<?xml version="1.0" encoding="UTF-8" standalone="no"?>
<!DOCTYPE svg PUBLIC "-//W3C//DTD SVG 1.1//EN"
 "http://www.w3.org/Graphics/SVG/1.1/DTD/svg11.dtd">
<!-- Generated by graphviz version 2.40.1 (20161225.0304)
 -->
<!-- Title: H Pages: 1 -->
<svg width="450px" height="220px"
 viewBox="0.00 0.00 450.00 220.00" xmlns="http://www.w3.org/2000/svg" xmlns:xlink="http://www.w3.org/1999/xlink">
<g id="graph0" class="graph" transform=" rotate(0) translate(4 216)">
<title>H</title>
<polygon fill="#ffffff" stroke="transparent" points="-4,4 -4,-216 446,-216 446,4 -4,4"/>
<!-- sE_Store1 -->
<g id="node1" class="node">
<title>sE_Store1</title>
<polygon fill="none" stroke="#000000" points="174.5,-192 174.5,-208 261.5,-208 261.5,-192 174.5,-192"/>
<text text-anchor="start" x="182.8682" y="-198" font-family="Times,serif" text-decoration="underline" font-size="10.00" fill="#000000">sE&#45;Store :Storage</text>
<polygon fill="none" stroke="#000000" points="174.5,-176 174.5,-192 261.5,-192 261.5,-176 174.5,-176"/>
<text text-anchor="start" x="177.5" y="-181" font-family="Times,serif" font-size="10.00" fill="#000000"> &#160;name = &quot;SE&#45;Store&quot;</text>
</g>
<!-- b422 -->
<g id="node2" class="node">
<title>b422</title>
<polygon fill="none" stroke="#000000" points="98.5,-111 98.5,-127 150.5,-127 150.5,-111 98.5,-111"/>
<text text-anchor="start" x="102.1416" y="-117" font-family="Times,serif" text-decoration="underline" font-size="10.00" fill="#000000">b42 :Board</text>
<polygon fill="none" stroke="#000000" points="98.5,-95 98.5,-111 150.5,-111 150.5,-95 98.5,-95"/>
<text text-anchor="start" x="101.5" y="-100" font-family="Times,serif" font-size="10.00" fill="#000000"> &#160;id = &quot;b42&quot;</text>
</g>
<!-- sE_Store1&#45;&gt;b422 -->
<g id="edge1" class="edge">
<title>sE_Store1&#45;&gt;b422</title>
<path fill="none" stroke="#000000" d="M194.5112,-171.9775C180.2034,-159.5158 161.8653,-143.544 147.5466,-131.0729"/>
<text text-anchor="middle" x="134.2165" y="-133.0729" font-family="Times,serif" font-size="10.00" fill="#000000">boards</text>
<text text-anchor="middle" x="184.792" y="-163.9775" font-family="Times,serif" font-size="10.00" fill="#000000">store</text>
</g>
<!-- b433 -->
<g id="node3" class="node">
<title>b433</title>
<polygon fill="none" stroke="#000000" points="222.5,-111 222.5,-127 274.5,-127 274.5,-111 222.5,-111"/>
<text text-anchor="start" x="226.1416" y="-117" font-family="Times,serif" text-decoration="underline" font-size="10.00" fill="#000000">b43 :Board</text>
<polygon fill="none" stroke="#000000" points="222.5,-95 222.5,-111 274.5,-111 274.5,-95 222.5,-95"/>
<text text-anchor="start" x="225.5" y="-100" font-family="Times,serif" font-size="10.00" fill="#000000"> &#160;id = &quot;b43&quot;</text>
</g>
<!-- sE_Store1&#45;&gt;b433 -->
<g id="edge2" class="edge">
<title>sE_Store1&#45;&gt;b433</title>
<path fill="none" stroke="#000000" d="M225.1629,-171.9775C229.9322,-159.5158 236.0449,-143.544 240.8178,-131.0729"/>
<text text-anchor="middle" x="227.4877" y="-133.0729" font-family="Times,serif" font-size="10.00" fill="#000000">boards</text>
<text text-anchor="middle" x="234.8822" y="-163.9775" font-family="Times,serif" font-size="10.00" fill="#000000">store</text>
</g>
<!-- sDM_book4 -->
<g id="node4" class="node">
<title>sDM_book4</title>
<polygon fill="none" stroke="#000000" points="8.5,-30 8.5,-46 103.5,-46 103.5,-30 8.5,-30"/>
<text text-anchor="start" x="16.5542" y="-36" font-family="Times,serif" text-decoration="underline" font-size="10.00" fill="#000000">sDM book :Product</text>
<polygon fill="none" stroke="#000000" points="8.5,-4 8.5,-30 103.5,-30 103.5,-4 8.5,-4"/>
<text text-anchor="start" x="11.5" y="-19" font-family="Times,serif" font-size="10.00" fill="#000000"> &#160;items = 1</text>
<text text-anchor="start" x="11.5" y="-9" font-family="Times,serif" font-size="10.00" fill="#000000"> &#160;name = &quot;SDM book&quot;</text>
</g>
<!-- sE_Store1&#45;&gt;sDM_book4 -->
<g id="edge3" class="edge">
<title>sE_Store1&#45;&gt;sDM_book4</title>
<path fill="none" stroke="#000000" d="M165.724,-182.7581C136.9496,-174.9988 102.7665,-160.9869 81.5,-136 61.1031,-112.0349 56.0133,-75.0199 55.0845,-50.4101"/>
<text text-anchor="middle" x="37.8653" y="-52.4101" font-family="Times,serif" font-size="10.00" fill="#000000">products</text>
<text text-anchor="middle" x="156.0047" y="-184.7581" font-family="Times,serif" font-size="10.00" fill="#000000">store</text>
</g>
<!-- java_book5 -->
<g id="node5" class="node">
<title>java_book5</title>
<polygon fill="none" stroke="#000000" points="137.5,-30 137.5,-46 228.5,-46 228.5,-30 137.5,-30"/>
<text text-anchor="start" x="145.229" y="-36" font-family="Times,serif" text-decoration="underline" font-size="10.00" fill="#000000">java book :Product</text>
<polygon fill="none" stroke="#000000" points="137.5,-4 137.5,-30 228.5,-30 228.5,-4 137.5,-4"/>
<text text-anchor="start" x="140.5" y="-19" font-family="Times,serif" font-size="10.00" fill="#000000"> &#160;items = 1</text>
<text text-anchor="start" x="140.5" y="-9" font-family="Times,serif" font-size="10.00" fill="#000000"> &#160;name = &quot;Java book&quot;</text>
</g>
<!-- sE_Store1&#45;&gt;java_book5 -->
<g id="edge4" class="edge">
<title>sE_Store1&#45;&gt;java_book5</title>
<path fill="none" stroke="#000000" d="M213.1345,-171.7891C210.8441,-161.1443 208.0015,-147.8697 205.5,-136 199.2907,-106.5365 192.2881,-72.6427 187.6582,-50.1383"/>
<text text-anchor="middle" x="204.8775" y="-52.1383" font-family="Times,serif" font-size="10.00" fill="#000000">products</text>
<text text-anchor="middle" x="213.1345" y="-163.7891" font-family="Times,serif" font-size="10.00" fill="#000000">store</text>
</g>
<!-- veltins_bottle6 -->
<g id="node6" class="node">
<title>veltins_bottle6</title>
<polygon fill="none" stroke="#000000" points="262.5,-30 262.5,-46 366.5,-46 366.5,-30 262.5,-30"/>
<text text-anchor="start" x="270.3374" y="-36" font-family="Times,serif" text-decoration="underline" font-size="10.00" fill="#000000">veltins bottle :Product</text>
<polygon fill="none" stroke="#000000" points="262.5,-4 262.5,-30 366.5,-30 366.5,-4 262.5,-4"/>
<text text-anchor="start" x="265.5" y="-19" font-family="Times,serif" font-size="10.00" fill="#000000"> &#160;items = 24</text>
<text text-anchor="start" x="265.5" y="-9" font-family="Times,serif" font-size="10.00" fill="#000000"> &#160;name = &quot;Veltins bottle&quot;</text>
</g>
<!-- sE_Store1&#45;&gt;veltins_bottle6 -->
<g id="edge5" class="edge">
<title>sE_Store1&#45;&gt;veltins_bottle6</title>
<path fill="none" stroke="#000000" d="M254.1634,-171.9808C267.8509,-162.7462 282.2896,-150.5723 291.5,-136 308.008,-109.8817 312.9185,-74.0505 314.2477,-50.2433"/>
<text text-anchor="middle" x="297.0285" y="-52.2433" font-family="Times,serif" font-size="10.00" fill="#000000">products</text>
<text text-anchor="middle" x="263.8827" y="-163.9808" font-family="Times,serif" font-size="10.00" fill="#000000">store</text>
</g>
<!-- dB_book7 -->
<g id="node7" class="node">
<title>dB_book7</title>
<polygon fill="none" stroke="#000000" points="347.5,-116 347.5,-132 434.5,-132 434.5,-116 347.5,-116"/>
<text text-anchor="start" x="355.7217" y="-122" font-family="Times,serif" text-decoration="underline" font-size="10.00" fill="#000000">dB book :Product</text>
<polygon fill="none" stroke="#000000" points="347.5,-90 347.5,-116 434.5,-116 434.5,-90 347.5,-90"/>
<text text-anchor="start" x="350.5" y="-105" font-family="Times,serif" font-size="10.00" fill="#000000"> &#160;items = 0</text>
<text text-anchor="start" x="350.5" y="-95" font-family="Times,serif" font-size="10.00" fill="#000000"> &#160;name = &quot;DB book&quot;</text>
</g>
<!-- sE_Store1&#45;&gt;dB_book7 -->
<g id="edge6" class="edge">
<title>sE_Store1&#45;&gt;dB_book7</title>
<path fill="none" stroke="#000000" d="M260.2641,-171.9775C284.0781,-160.8276 313.8939,-146.8676 338.9859,-135.1193"/>
<text text-anchor="middle" x="321.7667" y="-137.1193" font-family="Times,serif" font-size="10.00" fill="#000000">products</text>
<text text-anchor="middle" x="269.9833" y="-173.9775" font-family="Times,serif" font-size="10.00" fill="#000000">store</text>
</g>
<!-- b422&#45;&gt;sDM_book4 -->
<g id="edge7" class="edge">
<title>b422&#45;&gt;sDM_book4</title>
<path fill="none" stroke="#000000" d="M108.148,-90.6192C98.4241,-78.4996 86.0113,-63.0286 75.6809,-50.153"/>
<text text-anchor="middle" x="92.9001" y="-52.153" font-family="Times,serif" font-size="10.00" fill="#000000">products</text>
<text text-anchor="middle" x="96.7637" y="-82.6192" font-family="Times,serif" font-size="10.00" fill="#000000">board</text>
</g>
<!-- b422&#45;&gt;java_book5 -->
<g id="edge8" class="edge">
<title>b422&#45;&gt;java_book5</title>
<path fill="none" stroke="#000000" d="M138.2452,-90.6192C146.4189,-78.4996 156.8528,-63.0286 165.5364,-50.153"/>
<text text-anchor="middle" x="148.3171" y="-52.153" font-family="Times,serif" font-size="10.00" fill="#000000">products</text>
<text text-anchor="middle" x="126.8609" y="-82.6192" font-family="Times,serif" font-size="10.00" fill="#000000">board</text>
</g>
<!-- b433&#45;&gt;veltins_bottle6 -->
<g id="edge9" class="edge">
<title>b433&#45;&gt;veltins_bottle6</title>
<path fill="none" stroke="#000000" d="M264.1411,-90.6192C273.4422,-78.4996 285.3153,-63.0286 295.1966,-50.153"/>
<text text-anchor="middle" x="277.9773" y="-52.153" font-family="Times,serif" font-size="10.00" fill="#000000">products</text>
<text text-anchor="middle" x="252.7568" y="-82.6192" font-family="Times,serif" font-size="10.00" fill="#000000">board</text>
</g>
</g>
</svg>
