<?xml version="1.0" encoding="UTF-8" standalone="no"?>
<!DOCTYPE svg PUBLIC "-//W3C//DTD SVG 1.1//EN"
 "http://www.w3.org/Graphics/SVG/1.1/DTD/svg11.dtd">
<!-- Generated by graphviz version 2.38.0 (20140413.2041)
 -->
<!-- Title: H Pages: 1 -->
<svg width="448pt" height="228pt"
 viewBox="0.00 0.00 448.00 228.00" xmlns="http://www.w3.org/2000/svg" xmlns:xlink="http://www.w3.org/1999/xlink">
<g id="graph0" class="graph" transform="scale(1 1) rotate(0) translate(4 224)">
<title>H</title>
<polygon fill="white" stroke="none" points="-4,4 -4,-224 444,-224 444,4 -4,4"/>
<!-- sE_Store1 -->
<g id="node1" class="node"><title>sE_Store1</title>
<polygon fill="none" stroke="black" points="175,-199 175,-216 260,-216 260,-199 175,-199"/>
<text text-anchor="start" x="182.5" y="-206" font-family="Times New Roman,serif" text-decoration="underline" font-size="10.00">sE&#45;Store :Storage</text>
<polygon fill="none" stroke="black" points="175,-182 175,-199 260,-199 260,-182 175,-182"/>
<text text-anchor="start" x="178" y="-188" font-family="Times New Roman,serif" font-size="10.00"> &#160;name = &quot;SE&#45;Store&quot;</text>
</g>
<!-- b422 -->
<g id="node2" class="node"><title>b422</title>
<polygon fill="none" stroke="black" points="98,-115.5 98,-132.5 150,-132.5 150,-115.5 98,-115.5"/>
<text text-anchor="start" x="102.5" y="-122.5" font-family="Times New Roman,serif" text-decoration="underline" font-size="10.00">b42 :Board</text>
<polygon fill="none" stroke="black" points="98,-98.5 98,-115.5 150,-115.5 150,-98.5 98,-98.5"/>
<text text-anchor="start" x="101" y="-104.5" font-family="Times New Roman,serif" font-size="10.00"> &#160;id = &quot;b42&quot;</text>
</g>
<!-- sE_Store1&#45;&gt;b422 -->
<g id="edge1" class="edge"><title>sE_Store1&#45;&gt;b422</title>
<path fill="none" stroke="black" d="M194.011,-177.854C179.703,-165.315 161.365,-149.245 147.047,-136.697"/>
<text text-anchor="middle" x="133.047" y="-139.697" font-family="Times New Roman,serif" font-size="10.00">boards</text>
<text text-anchor="middle" x="183.511" y="-169.854" font-family="Times New Roman,serif" font-size="10.00">store</text>
</g>
<!-- b433 -->
<g id="node3" class="node"><title>b433</title>
<polygon fill="none" stroke="black" points="222,-115.5 222,-132.5 274,-132.5 274,-115.5 222,-115.5"/>
<text text-anchor="start" x="226.5" y="-122.5" font-family="Times New Roman,serif" text-decoration="underline" font-size="10.00">b43 :Board</text>
<polygon fill="none" stroke="black" points="222,-98.5 222,-115.5 274,-115.5 274,-98.5 222,-98.5"/>
<text text-anchor="start" x="225" y="-104.5" font-family="Times New Roman,serif" font-size="10.00"> &#160;id = &quot;b43&quot;</text>
</g>
<!-- sE_Store1&#45;&gt;b433 -->
<g id="edge2" class="edge"><title>sE_Store1&#45;&gt;b433</title>
<path fill="none" stroke="black" d="M224.663,-177.854C229.432,-165.315 235.545,-149.245 240.318,-136.697"/>
<text text-anchor="middle" x="226.318" y="-139.697" font-family="Times New Roman,serif" font-size="10.00">boards</text>
<text text-anchor="middle" x="235.163" y="-169.854" font-family="Times New Roman,serif" font-size="10.00">store</text>
</g>
<!-- sDM_book4 -->
<g id="node4" class="node"><title>sDM_book4</title>
<polygon fill="none" stroke="black" points="8,-31.5 8,-48.5 102,-48.5 102,-31.5 8,-31.5"/>
<text text-anchor="start" x="15.5" y="-38.5" font-family="Times New Roman,serif" text-decoration="underline" font-size="10.00">sDM book :Product</text>
<polygon fill="none" stroke="black" points="8,-3.5 8,-31.5 102,-31.5 102,-3.5 8,-3.5"/>
<text text-anchor="start" x="11" y="-20.5" font-family="Times New Roman,serif" font-size="10.00"> &#160;items = 1</text>
<text text-anchor="start" x="11" y="-9.5" font-family="Times New Roman,serif" font-size="10.00"> &#160;name = &quot;SDM book&quot;</text>
</g>
<!-- sE_Store1&#45;&gt;sDM_book4 -->
<g id="edge3" class="edge"><title>sE_Store1&#45;&gt;sDM_book4</title>
<path fill="none" stroke="black" d="M166.167,-189.08C137.165,-181.396 102.429,-167.352 81,-142 59.9453,-117.091 55.0528,-78.5917 54.3441,-53.2201"/>
<text text-anchor="middle" x="35.8441" y="-56.2201" font-family="Times New Roman,serif" font-size="10.00">products</text>
<text text-anchor="middle" x="155.667" y="-192.08" font-family="Times New Roman,serif" font-size="10.00">store</text>
</g>
<!-- java_book5 -->
<g id="node5" class="node"><title>java_book5</title>
<polygon fill="none" stroke="black" points="137,-31.5 137,-48.5 228,-48.5 228,-31.5 137,-31.5"/>
<text text-anchor="start" x="144.5" y="-38.5" font-family="Times New Roman,serif" text-decoration="underline" font-size="10.00">java book :Product</text>
<polygon fill="none" stroke="black" points="137,-3.5 137,-31.5 228,-31.5 228,-3.5 137,-3.5"/>
<text text-anchor="start" x="140" y="-20.5" font-family="Times New Roman,serif" font-size="10.00"> &#160;items = 1</text>
<text text-anchor="start" x="140" y="-9.5" font-family="Times New Roman,serif" font-size="10.00"> &#160;name = &quot;Java book&quot;</text>
</g>
<!-- sE_Store1&#45;&gt;java_book5 -->
<g id="edge4" class="edge"><title>sE_Store1&#45;&gt;java_book5</title>
<path fill="none" stroke="black" d="M212.605,-177.795C210.306,-167.152 207.465,-153.877 205,-142 198.695,-111.626 191.711,-76.6597 187.112,-53.4399"/>
<text text-anchor="middle" x="168.612" y="-56.4399" font-family="Times New Roman,serif" font-size="10.00">products</text>
<text text-anchor="middle" x="212.605" y="-169.795" font-family="Times New Roman,serif" font-size="10.00">store</text>
</g>
<!-- veltins_bottle6 -->
<g id="node6" class="node"><title>veltins_bottle6</title>
<polygon fill="none" stroke="black" points="262,-31.5 262,-48.5 366,-48.5 366,-31.5 262,-31.5"/>
<text text-anchor="start" x="269.5" y="-38.5" font-family="Times New Roman,serif" text-decoration="underline" font-size="10.00">veltins bottle :Product</text>
<polygon fill="none" stroke="black" points="262,-3.5 262,-31.5 366,-31.5 366,-3.5 262,-3.5"/>
<text text-anchor="start" x="265" y="-20.5" font-family="Times New Roman,serif" font-size="10.00"> &#160;items = 24</text>
<text text-anchor="start" x="265" y="-9.5" font-family="Times New Roman,serif" font-size="10.00"> &#160;name = &quot;Veltins bottle&quot;</text>
</g>
<!-- sE_Store1&#45;&gt;veltins_bottle6 -->
<g id="edge5" class="edge"><title>sE_Store1&#45;&gt;veltins_bottle6</title>
<path fill="none" stroke="black" d="M254.093,-177.75C267.672,-168.551 281.92,-156.464 291,-142 308.033,-114.868 312.802,-77.6119 313.957,-53.0635"/>
<text text-anchor="middle" x="332.457" y="-56.0635" font-family="Times New Roman,serif" font-size="10.00">products</text>
<text text-anchor="middle" x="264.593" y="-169.75" font-family="Times New Roman,serif" font-size="10.00">store</text>
</g>
<!-- dB_book7 -->
<g id="node7" class="node"><title>dB_book7</title>
<polygon fill="none" stroke="black" points="346,-120.5 346,-137.5 432,-137.5 432,-120.5 346,-120.5"/>
<text text-anchor="start" x="354" y="-127.5" font-family="Times New Roman,serif" text-decoration="underline" font-size="10.00">dB book :Product</text>
<polygon fill="none" stroke="black" points="346,-92.5 346,-120.5 432,-120.5 432,-92.5 346,-92.5"/>
<text text-anchor="start" x="349" y="-109.5" font-family="Times New Roman,serif" font-size="10.00"> &#160;items = 0</text>
<text text-anchor="start" x="349" y="-98.5" font-family="Times New Roman,serif" font-size="10.00"> &#160;name = &quot;DB book&quot;</text>
</g>
<!-- sE_Store1&#45;&gt;dB_book7 -->
<g id="edge6" class="edge"><title>sE_Store1&#45;&gt;dB_book7</title>
<path fill="none" stroke="black" d="M259.517,-177.854C283.193,-166.635 312.837,-152.589 337.784,-140.768"/>
<text text-anchor="middle" x="319.284" y="-143.768" font-family="Times New Roman,serif" font-size="10.00">products</text>
<text text-anchor="middle" x="270.017" y="-180.854" font-family="Times New Roman,serif" font-size="10.00">store</text>
</g>
<!-- b422&#45;&gt;sDM_book4 -->
<g id="edge7" class="edge"><title>b422&#45;&gt;sDM_book4</title>
<path fill="none" stroke="black" d="M107.997,-94.3218C98.2827,-82.0738 85.7912,-66.3237 75.3756,-53.191"/>
<text text-anchor="middle" x="93.8756" y="-56.191" font-family="Times New Roman,serif" font-size="10.00">products</text>
<text text-anchor="middle" x="95.9966" y="-86.3218" font-family="Times New Roman,serif" font-size="10.00">board</text>
</g>
<!-- b422&#45;&gt;java_book5 -->
<g id="edge8" class="edge"><title>b422&#45;&gt;java_book5</title>
<path fill="none" stroke="black" d="M137.452,-94.3218C145.617,-82.0738 156.118,-66.3237 164.873,-53.191"/>
<text text-anchor="middle" x="146.373" y="-56.191" font-family="Times New Roman,serif" font-size="10.00">products</text>
<text text-anchor="middle" x="125.452" y="-86.3218" font-family="Times New Roman,serif" font-size="10.00">board</text>
</g>
<!-- b433&#45;&gt;veltins_bottle6 -->
<g id="edge9" class="edge"><title>b433&#45;&gt;veltins_bottle6</title>
<path fill="none" stroke="black" d="M263.308,-94.3218C272.599,-82.0738 284.548,-66.3237 294.51,-53.191"/>
<text text-anchor="middle" x="276.01" y="-56.191" font-family="Times New Roman,serif" font-size="10.00">products</text>
<text text-anchor="middle" x="251.308" y="-86.3218" font-family="Times New Roman,serif" font-size="10.00">board</text>
</g>
</g>
</svg>
