<?xml version="1.0" encoding="UTF-8" standalone="no"?>
<!DOCTYPE svg PUBLIC "-//W3C//DTD SVG 1.1//EN"
 "http://www.w3.org/Graphics/SVG/1.1/DTD/svg11.dtd">
<!-- Generated by graphviz version 2.38.0 (20140413.2041)
 -->
<!-- Title: H Pages: 1 -->
<svg width="572pt" height="228pt"
 viewBox="0.00 0.00 571.50 228.00" xmlns="http://www.w3.org/2000/svg" xmlns:xlink="http://www.w3.org/1999/xlink">
<g id="graph0" class="graph" transform="scale(1 1) rotate(0) translate(4 224)">
<title>H</title>
<polygon fill="white" stroke="none" points="-4,4 -4,-224 567.5,-224 567.5,4 -4,4"/>
<!-- sE_Store1 -->
<g id="node1" class="node"><title>sE_Store1</title>
<polygon fill="none" stroke="black" points="206,-199 206,-216 291,-216 291,-199 206,-199"/>
<text text-anchor="start" x="213.5" y="-206" font-family="Times New Roman,serif" text-decoration="underline" font-size="10.00">sE&#45;Store :Storage</text>
<polygon fill="none" stroke="black" points="206,-182 206,-199 291,-199 291,-182 206,-182"/>
<text text-anchor="start" x="209" y="-188" font-family="Times New Roman,serif" font-size="10.00"> &#160;name = &quot;SE&#45;Store&quot;</text>
</g>
<!-- b422 -->
<g id="node2" class="node"><title>b422</title>
<polygon fill="none" stroke="black" points="98,-115.5 98,-132.5 150,-132.5 150,-115.5 98,-115.5"/>
<text text-anchor="start" x="102.5" y="-122.5" font-family="Times New Roman,serif" text-decoration="underline" font-size="10.00">b42 :Board</text>
<polygon fill="none" stroke="black" points="98,-98.5 98,-115.5 150,-115.5 150,-98.5 98,-98.5"/>
<text text-anchor="start" x="101" y="-104.5" font-family="Times New Roman,serif" font-size="10.00"> &#160;id = &quot;b42&quot;</text>
</g>
<!-- sE_Store1&#45;&gt;b422 -->
<g id="edge1" class="edge"><title>sE_Store1&#45;&gt;b422</title>
<path fill="none" stroke="black" d="M217.348,-177.854C198.271,-165.315 173.82,-149.245 154.729,-136.697"/>
<text text-anchor="middle" x="140.729" y="-139.697" font-family="Times New Roman,serif" font-size="10.00">boards</text>
<text text-anchor="middle" x="206.848" y="-169.854" font-family="Times New Roman,serif" font-size="10.00">store</text>
</g>
<!-- b433 -->
<g id="node3" class="node"><title>b433</title>
<polygon fill="none" stroke="black" points="222,-115.5 222,-132.5 274,-132.5 274,-115.5 222,-115.5"/>
<text text-anchor="start" x="226.5" y="-122.5" font-family="Times New Roman,serif" text-decoration="underline" font-size="10.00">b43 :Board</text>
<polygon fill="none" stroke="black" points="222,-98.5 222,-115.5 274,-115.5 274,-98.5 222,-98.5"/>
<text text-anchor="start" x="225" y="-104.5" font-family="Times New Roman,serif" font-size="10.00"> &#160;id = &quot;b43&quot;</text>
</g>
<!-- sE_Store1&#45;&gt;b433 -->
<g id="edge2" class="edge"><title>sE_Store1&#45;&gt;b433</title>
<path fill="none" stroke="black" d="M248,-177.854C248,-165.315 248,-149.245 248,-136.697"/>
<text text-anchor="middle" x="234" y="-139.697" font-family="Times New Roman,serif" font-size="10.00">boards</text>
<text text-anchor="middle" x="237.5" y="-169.854" font-family="Times New Roman,serif" font-size="10.00">store</text>
</g>
<!-- sDM_book4 -->
<g id="node4" class="node"><title>sDM_book4</title>
<polygon fill="none" stroke="black" points="8,-31.5 8,-48.5 102,-48.5 102,-31.5 8,-31.5"/>
<text text-anchor="start" x="15.5" y="-38.5" font-family="Times New Roman,serif" text-decoration="underline" font-size="10.00">sDM book :Product</text>
<polygon fill="none" stroke="black" points="8,-3.5 8,-31.5 102,-31.5 102,-3.5 8,-3.5"/>
<text text-anchor="start" x="11" y="-20.5" font-family="Times New Roman,serif" font-size="10.00"> &#160;items = 1</text>
<text text-anchor="start" x="11" y="-9.5" font-family="Times New Roman,serif" font-size="10.00"> &#160;name = &quot;SDM book&quot;</text>
</g>
<!-- sE_Store1&#45;&gt;sDM_book4 -->
<g id="edge3" class="edge"><title>sE_Store1&#45;&gt;sDM_book4</title>
<path fill="none" stroke="black" d="M197.425,-194.035C160.027,-188.389 110.641,-174.772 81,-142 58.9854,-117.66 54.3774,-78.6476 53.9891,-53.0451"/>
<text text-anchor="middle" x="35.4891" y="-56.0451" font-family="Times New Roman,serif" font-size="10.00">products</text>
<text text-anchor="middle" x="186.925" y="-197.035" font-family="Times New Roman,serif" font-size="10.00">store</text>
</g>
<!-- java_book5 -->
<g id="node5" class="node"><title>java_book5</title>
<polygon fill="none" stroke="black" points="137,-31.5 137,-48.5 228,-48.5 228,-31.5 137,-31.5"/>
<text text-anchor="start" x="144.5" y="-38.5" font-family="Times New Roman,serif" text-decoration="underline" font-size="10.00">java book :Product</text>
<polygon fill="none" stroke="black" points="137,-3.5 137,-31.5 228,-31.5 228,-3.5 137,-3.5"/>
<text text-anchor="start" x="140" y="-20.5" font-family="Times New Roman,serif" font-size="10.00"> &#160;items = 1</text>
<text text-anchor="start" x="140" y="-9.5" font-family="Times New Roman,serif" font-size="10.00"> &#160;name = &quot;Java book&quot;</text>
</g>
<!-- sE_Store1&#45;&gt;java_book5 -->
<g id="edge4" class="edge"><title>sE_Store1&#45;&gt;java_book5</title>
<path fill="none" stroke="black" d="M228.983,-177.947C220.425,-167.876 210.933,-155.057 205,-142 191.914,-113.204 186.236,-76.9849 183.797,-53.0827"/>
<text text-anchor="middle" x="202.297" y="-56.0827" font-family="Times New Roman,serif" font-size="10.00">products</text>
<text text-anchor="middle" x="218.483" y="-169.947" font-family="Times New Roman,serif" font-size="10.00">store</text>
</g>
<!-- veltins_bottle6 -->
<g id="node6" class="node"><title>veltins_bottle6</title>
<polygon fill="none" stroke="black" points="262,-31.5 262,-48.5 366,-48.5 366,-31.5 262,-31.5"/>
<text text-anchor="start" x="269.5" y="-38.5" font-family="Times New Roman,serif" text-decoration="underline" font-size="10.00">veltins bottle :Product</text>
<polygon fill="none" stroke="black" points="262,-3.5 262,-31.5 366,-31.5 366,-3.5 262,-3.5"/>
<text text-anchor="start" x="265" y="-20.5" font-family="Times New Roman,serif" font-size="10.00"> &#160;items = 24</text>
<text text-anchor="start" x="265" y="-9.5" font-family="Times New Roman,serif" font-size="10.00"> &#160;name = &quot;Veltins bottle&quot;</text>
</g>
<!-- sE_Store1&#45;&gt;veltins_bottle6 -->
<g id="edge5" class="edge"><title>sE_Store1&#45;&gt;veltins_bottle6</title>
<path fill="none" stroke="black" d="M267.017,-177.947C275.575,-167.876 285.067,-155.057 291,-142 304.086,-113.204 309.764,-76.9849 312.203,-53.0827"/>
<text text-anchor="middle" x="330.703" y="-56.0827" font-family="Times New Roman,serif" font-size="10.00">products</text>
<text text-anchor="middle" x="272.267" y="-169.947" font-family="Times New Roman,serif" font-size="10.00">store</text>
</g>
<!-- dB_book7 -->
<g id="node7" class="node"><title>dB_book7</title>
<polygon fill="none" stroke="black" points="346,-120.5 346,-137.5 432,-137.5 432,-120.5 346,-120.5"/>
<text text-anchor="start" x="354" y="-127.5" font-family="Times New Roman,serif" text-decoration="underline" font-size="10.00">dB book :Product</text>
<polygon fill="none" stroke="black" points="346,-92.5 346,-120.5 432,-120.5 432,-92.5 346,-92.5"/>
<text text-anchor="start" x="349" y="-109.5" font-family="Times New Roman,serif" font-size="10.00"> &#160;items = 0</text>
<text text-anchor="start" x="349" y="-98.5" font-family="Times New Roman,serif" font-size="10.00"> &#160;name = &quot;DB book&quot;</text>
</g>
<!-- sE_Store1&#45;&gt;dB_book7 -->
<g id="edge6" class="edge"><title>sE_Store1&#45;&gt;dB_book7</title>
<path fill="none" stroke="black" d="M282.854,-177.854C301.529,-167.059 324.733,-153.647 344.678,-142.118"/>
<text text-anchor="middle" x="326.178" y="-145.118" font-family="Times New Roman,serif" font-size="10.00">products</text>
<text text-anchor="middle" x="293.354" y="-169.854" font-family="Times New Roman,serif" font-size="10.00">store</text>
</g>
<!-- albert8 -->
<g id="node8" class="node"><title>albert8</title>
<polygon fill="none" stroke="black" points="467,-120.5 467,-137.5 556,-137.5 556,-120.5 467,-120.5"/>
<text text-anchor="start" x="488.5" y="-127.5" font-family="Times New Roman,serif" text-decoration="underline" font-size="10.00">albert :User</text>
<polygon fill="none" stroke="black" points="467,-92.5 467,-120.5 556,-120.5 556,-92.5 467,-92.5"/>
<text text-anchor="start" x="470" y="-109.5" font-family="Times New Roman,serif" font-size="10.00"> &#160;name = &quot;Albert&quot;</text>
<text text-anchor="start" x="470" y="-98.5" font-family="Times New Roman,serif" font-size="10.00"> &#160;passwd = &quot;geheim&quot;</text>
</g>
<!-- sE_Store1&#45;&gt;albert8 -->
<g id="edge7" class="edge"><title>sE_Store1&#45;&gt;albert8</title>
<path fill="none" stroke="black" d="M298.898,-185.6C339.84,-175.2 398.639,-159.304 449,-142 452.082,-140.941 455.232,-139.809 458.397,-138.632"/>
<text text-anchor="middle" x="449.397" y="-141.632" font-family="Times New Roman,serif" font-size="10.00">user</text>
<text text-anchor="middle" x="300.398" y="-188.6" font-family="Times New Roman,serif" font-size="10.00"> </text>
</g>
<!-- b422&#45;&gt;sDM_book4 -->
<g id="edge8" class="edge"><title>b422&#45;&gt;sDM_book4</title>
<path fill="none" stroke="black" d="M107.997,-94.3218C98.2827,-82.0738 85.7912,-66.3237 75.3756,-53.191"/>
<text text-anchor="middle" x="93.8756" y="-56.191" font-family="Times New Roman,serif" font-size="10.00">products</text>
<text text-anchor="middle" x="95.9966" y="-86.3218" font-family="Times New Roman,serif" font-size="10.00">board</text>
</g>
<!-- b422&#45;&gt;java_book5 -->
<g id="edge9" class="edge"><title>b422&#45;&gt;java_book5</title>
<path fill="none" stroke="black" d="M137.452,-94.3218C145.617,-82.0738 156.118,-66.3237 164.873,-53.191"/>
<text text-anchor="middle" x="146.373" y="-56.191" font-family="Times New Roman,serif" font-size="10.00">products</text>
<text text-anchor="middle" x="125.452" y="-86.3218" font-family="Times New Roman,serif" font-size="10.00">board</text>
</g>
<!-- b433&#45;&gt;veltins_bottle6 -->
<g id="edge10" class="edge"><title>b433&#45;&gt;veltins_bottle6</title>
<path fill="none" stroke="black" d="M263.308,-94.3218C272.599,-82.0738 284.548,-66.3237 294.51,-53.191"/>
<text text-anchor="middle" x="276.01" y="-56.191" font-family="Times New Roman,serif" font-size="10.00">products</text>
<text text-anchor="middle" x="251.308" y="-86.3218" font-family="Times New Roman,serif" font-size="10.00">board</text>
</g>
</g>
</svg>
