<?xml version="1.0" encoding="UTF-8" standalone="no"?>
<!DOCTYPE svg PUBLIC "-//W3C//DTD SVG 1.1//EN"
 "http://www.w3.org/Graphics/SVG/1.1/DTD/svg11.dtd">
<!-- Generated by graphviz version 2.38.0 (20140413.2041)
 -->
<!-- Title: H Pages: 1 -->
<svg width="558px" height="272px"
 viewBox="0.00 0.00 557.50 272.00" xmlns="http://www.w3.org/2000/svg" xmlns:xlink="http://www.w3.org/1999/xlink">
<g id="graph0" class="graph" transform="scale(0.7500187504687618 0.7500187504687618) rotate(0) translate(4 268)">
<title>H</title>
<polygon fill="white" stroke="none" points="-4,4 -4,-268 553.5,-268 553.5,4 -4,4"/>
<!-- stock_man1 -->
<g id="node1" class="node"><title>stock_man1</title>
<polygon fill="none" stroke="black" points="169,-243 169,-260 305,-260 305,-243 169,-243"/>
<text text-anchor="start" x="193.5" y="-250" font-family="Times New Roman,serif" text-decoration="underline" font-size="10.00">stock&#45;man :StockApp</text>
<polygon fill="none" stroke="black" points="169,-204 169,-243 305,-243 305,-204 169,-204"/>
<text text-anchor="start" x="172" y="-232" font-family="Times New Roman,serif" font-size="10.00"> &#160;description = &quot;Stock Manager&quot;</text>
<text text-anchor="start" x="172" y="-221" font-family="Times New Roman,serif" font-size="10.00"> &#160;id = &quot;stock&#45;man&quot;</text>
<text text-anchor="start" x="172" y="-210" font-family="Times New Roman,serif" font-size="10.00"> &#160;user = null</text>
</g>
<!-- login_page2 -->
<g id="node2" class="node"><title>login_page2</title>
<polygon fill="none" stroke="black" points="135,-142.5 135,-159.5 339,-159.5 339,-142.5 135,-142.5"/>
<text text-anchor="start" x="203.5" y="-149.5" font-family="Times New Roman,serif" text-decoration="underline" font-size="10.00">login&#45;page :Page</text>
<polygon fill="none" stroke="black" points="135,-114.5 135,-142.5 339,-142.5 339,-114.5 135,-114.5"/>
<text text-anchor="start" x="138" y="-131.5" font-family="Times New Roman,serif" font-size="10.00"> &#160;description = &quot;Login | button Scan | button Log&quot;</text>
<text text-anchor="start" x="138" y="-120.5" font-family="Times New Roman,serif" font-size="10.00"> &#160;id = &quot;login&#45;page&quot;</text>
</g>
<!-- stock_man1&#45;&gt;login_page2 -->
<g id="edge1" class="edge"><title>stock_man1&#45;&gt;login_page2</title>
<path fill="none" stroke="black" d="M237,-199.942C237,-188.29 237,-175.191 237,-164.091"/>
<text text-anchor="middle" x="221.5" y="-167.091" font-family="Times New Roman,serif" font-size="10.00">content</text>
<text text-anchor="middle" x="235.5" y="-191.942" font-family="Times New Roman,serif" font-size="10.00"> </text>
</g>
<!-- name_in3 -->
<g id="node3" class="node"><title>name_in3</title>
<polygon fill="none" stroke="black" points="8,-53.5 8,-70.5 132,-70.5 132,-53.5 8,-53.5"/>
<text text-anchor="start" x="35.5" y="-60.5" font-family="Times New Roman,serif" text-decoration="underline" font-size="10.00">name&#45;in :Content</text>
<polygon fill="none" stroke="black" points="8,-3.5 8,-53.5 132,-53.5 132,-3.5 8,-3.5"/>
<text text-anchor="start" x="11" y="-42.5" font-family="Times New Roman,serif" font-size="10.00"> &#160;action = null</text>
<text text-anchor="start" x="11" y="-31.5" font-family="Times New Roman,serif" font-size="10.00"> &#160;description = &quot;input name?&quot;</text>
<text text-anchor="start" x="11" y="-20.5" font-family="Times New Roman,serif" font-size="10.00"> &#160;id = &quot;name&#45;in&quot;</text>
<text text-anchor="start" x="11" y="-9.5" font-family="Times New Roman,serif" font-size="10.00"> &#160;value = null</text>
</g>
<!-- login_page2&#45;&gt;name_in3 -->
<g id="edge2" class="edge"><title>login_page2&#45;&gt;name_in3</title>
<path fill="none" stroke="black" d="M193.123,-110.752C174.568,-99.8633 152.615,-86.9808 132.422,-75.1309"/>
<text text-anchor="middle" x="116.922" y="-78.1309" font-family="Times New Roman,serif" font-size="10.00">content</text>
<text text-anchor="middle" x="191.623" y="-102.752" font-family="Times New Roman,serif" font-size="10.00"> </text>
</g>
<!-- pass_in4 -->
<g id="node4" class="node"><title>pass_in4</title>
<polygon fill="none" stroke="black" points="166,-53.5 166,-70.5 308,-70.5 308,-53.5 166,-53.5"/>
<text text-anchor="start" x="203.5" y="-60.5" font-family="Times New Roman,serif" text-decoration="underline" font-size="10.00">pass&#45;in :Content</text>
<polygon fill="none" stroke="black" points="166,-3.5 166,-53.5 308,-53.5 308,-3.5 166,-3.5"/>
<text text-anchor="start" x="169" y="-42.5" font-family="Times New Roman,serif" font-size="10.00"> &#160;action = null</text>
<text text-anchor="start" x="169" y="-31.5" font-family="Times New Roman,serif" font-size="10.00"> &#160;description = &quot;input password?&quot;</text>
<text text-anchor="start" x="169" y="-20.5" font-family="Times New Roman,serif" font-size="10.00"> &#160;id = &quot;pass&#45;in&quot;</text>
<text text-anchor="start" x="169" y="-9.5" font-family="Times New Roman,serif" font-size="10.00"> &#160;value = null</text>
</g>
<!-- login_page2&#45;&gt;pass_in4 -->
<g id="edge3" class="edge"><title>login_page2&#45;&gt;pass_in4</title>
<path fill="none" stroke="black" d="M237,-110.752C237,-99.8633 237,-86.9808 237,-75.1309"/>
<text text-anchor="middle" x="221.5" y="-78.1309" font-family="Times New Roman,serif" font-size="10.00">content</text>
<text text-anchor="middle" x="235.5" y="-102.752" font-family="Times New Roman,serif" font-size="10.00"> </text>
</g>
<!-- login_button5 -->
<g id="node5" class="node"><title>login_button5</title>
<polygon fill="none" stroke="black" points="343,-53.5 343,-70.5 542,-70.5 542,-53.5 343,-53.5"/>
<text text-anchor="start" x="398.5" y="-60.5" font-family="Times New Roman,serif" text-decoration="underline" font-size="10.00">login&#45;button :Content</text>
<polygon fill="none" stroke="black" points="343,-3.5 343,-53.5 542,-53.5 542,-3.5 343,-3.5"/>
<text text-anchor="start" x="346" y="-42.5" font-family="Times New Roman,serif" font-size="10.00"> &#160;action = &quot;login pal&#45;in product&#45;in items&#45;in Scan&quot;</text>
<text text-anchor="start" x="346" y="-31.5" font-family="Times New Roman,serif" font-size="10.00"> &#160;description = &quot;button login&quot;</text>
<text text-anchor="start" x="346" y="-20.5" font-family="Times New Roman,serif" font-size="10.00"> &#160;id = &quot;login&#45;button&quot;</text>
<text text-anchor="start" x="346" y="-9.5" font-family="Times New Roman,serif" font-size="10.00"> &#160;value = null</text>
</g>
<!-- login_page2&#45;&gt;login_button5 -->
<g id="edge4" class="edge"><title>login_page2&#45;&gt;login_button5</title>
<path fill="none" stroke="black" d="M290.594,-110.88C313.49,-99.9343 340.638,-86.956 365.58,-75.0327"/>
<text text-anchor="middle" x="350.08" y="-78.0327" font-family="Times New Roman,serif" font-size="10.00">content</text>
<text text-anchor="middle" x="289.094" y="-102.88" font-family="Times New Roman,serif" font-size="10.00"> </text>
</g>
</g>
</svg>
