<?xml version="1.0" encoding="UTF-8" standalone="no"?>
<!DOCTYPE svg PUBLIC "-//W3C//DTD SVG 1.1//EN"
 "http://www.w3.org/Graphics/SVG/1.1/DTD/svg11.dtd">
<!-- Generated by graphviz version 2.40.1 (20161225.0304)
 -->
<!-- Title: H Pages: 1 -->
<svg width="383px" height="210px"
 viewBox="0.00 0.00 382.50 210.00" xmlns="http://www.w3.org/2000/svg" xmlns:xlink="http://www.w3.org/1999/xlink">
<g id="graph0" class="graph" transform=" rotate(0) translate(4 206)">
<title>H</title>
<polygon fill="#ffffff" stroke="transparent" points="-4,4 -4,-206 378.5,-206 378.5,4 -4,4"/>
<!-- sE_Store1 -->
<g id="node1" class="node">
<title>sE_Store1</title>
<polygon fill="none" stroke="#000000" points="140.5,-182 140.5,-198 227.5,-198 227.5,-182 140.5,-182"/>
<text text-anchor="start" x="148.8682" y="-188" font-family="Times,serif" text-decoration="underline" font-size="10.00" fill="#000000">sE&#45;Store :Storage</text>
<polygon fill="none" stroke="#000000" points="140.5,-166 140.5,-182 227.5,-182 227.5,-166 140.5,-166"/>
<text text-anchor="start" x="143.5" y="-171" font-family="Times,serif" font-size="10.00" fill="#000000"> &#160;name = &quot;SE&#45;Store&quot;</text>
</g>
<!-- b422 -->
<g id="node2" class="node">
<title>b422</title>
<polygon fill="none" stroke="#000000" points="95.5,-106 95.5,-122 147.5,-122 147.5,-106 95.5,-106"/>
<text text-anchor="start" x="99.1416" y="-112" font-family="Times,serif" text-decoration="underline" font-size="10.00" fill="#000000">b42 :Board</text>
<polygon fill="none" stroke="#000000" points="95.5,-90 95.5,-106 147.5,-106 147.5,-90 95.5,-90"/>
<text text-anchor="start" x="98.5" y="-95" font-family="Times,serif" font-size="10.00" fill="#000000"> &#160;id = &quot;b42&quot;</text>
</g>
<!-- sE_Store1&#45;&gt;b422 -->
<g id="edge1" class="edge">
<title>sE_Store1&#45;&gt;b422</title>
<path fill="none" stroke="#000000" d="M166.8851,-161.6334C157.9178,-150.6411 146.8869,-137.1195 137.9457,-126.1593"/>
<text text-anchor="middle" x="124.6157" y="-128.1593" font-family="Times,serif" font-size="10.00" fill="#000000">boards</text>
<text text-anchor="middle" x="157.1659" y="-153.6334" font-family="Times,serif" font-size="10.00" fill="#000000">store</text>
</g>
<!-- b433 -->
<g id="node3" class="node">
<title>b433</title>
<polygon fill="none" stroke="#000000" points="223.5,-106 223.5,-122 275.5,-122 275.5,-106 223.5,-106"/>
<text text-anchor="start" x="227.1416" y="-112" font-family="Times,serif" text-decoration="underline" font-size="10.00" fill="#000000">b43 :Board</text>
<polygon fill="none" stroke="#000000" points="223.5,-90 223.5,-106 275.5,-106 275.5,-90 223.5,-90"/>
<text text-anchor="start" x="226.5" y="-95" font-family="Times,serif" font-size="10.00" fill="#000000"> &#160;id = &quot;b43&quot;</text>
</g>
<!-- sE_Store1&#45;&gt;b433 -->
<g id="edge2" class="edge">
<title>sE_Store1&#45;&gt;b433</title>
<path fill="none" stroke="#000000" d="M201.1868,-161.6334C210.7327,-150.6411 222.4752,-137.1195 231.9932,-126.1593"/>
<text text-anchor="middle" x="218.6632" y="-128.1593" font-family="Times,serif" font-size="10.00" fill="#000000">boards</text>
<text text-anchor="middle" x="191.4676" y="-153.6334" font-family="Times,serif" font-size="10.00" fill="#000000">store</text>
</g>
<!-- sDM_book4 -->
<g id="node4" class="node">
<title>sDM_book4</title>
<polygon fill="none" stroke="#000000" points="8.5,-30 8.5,-46 103.5,-46 103.5,-30 8.5,-30"/>
<text text-anchor="start" x="16.5542" y="-36" font-family="Times,serif" text-decoration="underline" font-size="10.00" fill="#000000">sDM book :Product</text>
<polygon fill="none" stroke="#000000" points="8.5,-4 8.5,-30 103.5,-30 103.5,-4 8.5,-4"/>
<text text-anchor="start" x="11.5" y="-19" font-family="Times,serif" font-size="10.00" fill="#000000"> &#160;items = 1</text>
<text text-anchor="start" x="11.5" y="-9" font-family="Times,serif" font-size="10.00" fill="#000000"> &#160;name = &quot;SDM book&quot;</text>
</g>
<!-- sE_Store1&#45;&gt;sDM_book4 -->
<g id="edge3" class="edge">
<title>sE_Store1&#45;&gt;sDM_book4</title>
<path fill="none" stroke="#000000" d="M131.8344,-165.0236C112.4649,-156.2314 91.9199,-143.5664 78.5,-126 61.7964,-104.1353 56.8434,-72.3293 55.5617,-50.2748"/>
<text text-anchor="middle" x="38.3425" y="-52.2748" font-family="Times,serif" font-size="10.00" fill="#000000">products</text>
<text text-anchor="middle" x="122.1151" y="-167.0236" font-family="Times,serif" font-size="10.00" fill="#000000">store</text>
</g>
<!-- java_book5 -->
<g id="node5" class="node">
<title>java_book5</title>
<polygon fill="none" stroke="#000000" points="137.5,-30 137.5,-46 228.5,-46 228.5,-30 137.5,-30"/>
<text text-anchor="start" x="145.229" y="-36" font-family="Times,serif" text-decoration="underline" font-size="10.00" fill="#000000">java book :Product</text>
<polygon fill="none" stroke="#000000" points="137.5,-4 137.5,-30 228.5,-30 228.5,-4 137.5,-4"/>
<text text-anchor="start" x="140.5" y="-19" font-family="Times,serif" font-size="10.00" fill="#000000"> &#160;items = 1</text>
<text text-anchor="start" x="140.5" y="-9" font-family="Times,serif" font-size="10.00" fill="#000000"> &#160;name = &quot;Java book&quot;</text>
</g>
<!-- sE_Store1&#45;&gt;java_book5 -->
<g id="edge4" class="edge">
<title>sE_Store1&#45;&gt;java_book5</title>
<path fill="none" stroke="#000000" d="M183.3713,-161.7964C183.1893,-133.2239 182.857,-81.0457 182.6595,-50.0473"/>
<text text-anchor="middle" x="165.4403" y="-52.0473" font-family="Times,serif" font-size="10.00" fill="#000000">products</text>
<text text-anchor="middle" x="173.6521" y="-153.7964" font-family="Times,serif" font-size="10.00" fill="#000000">store</text>
</g>
<!-- veltins_bottle6 -->
<g id="node6" class="node">
<title>veltins_bottle6</title>
<polygon fill="none" stroke="#000000" points="262.5,-30 262.5,-46 366.5,-46 366.5,-30 262.5,-30"/>
<text text-anchor="start" x="270.3374" y="-36" font-family="Times,serif" text-decoration="underline" font-size="10.00" fill="#000000">veltins bottle :Product</text>
<polygon fill="none" stroke="#000000" points="262.5,-4 262.5,-30 366.5,-30 366.5,-4 262.5,-4"/>
<text text-anchor="start" x="265.5" y="-19" font-family="Times,serif" font-size="10.00" fill="#000000"> &#160;items = 24</text>
<text text-anchor="start" x="265.5" y="-9" font-family="Times,serif" font-size="10.00" fill="#000000"> &#160;name = &quot;Veltins bottle&quot;</text>
</g>
<!-- sE_Store1&#45;&gt;veltins_bottle6 -->
<g id="edge5" class="edge">
<title>sE_Store1&#45;&gt;veltins_bottle6</title>
<path fill="none" stroke="#000000" d="M235.223,-166.3564C255.9062,-157.6207 278.1731,-144.6388 292.5,-126 309.2331,-104.2307 313.8232,-72.4061 314.808,-50.3212"/>
<text text-anchor="middle" x="297.5887" y="-52.3212" font-family="Times,serif" font-size="10.00" fill="#000000">products</text>
<text text-anchor="middle" x="244.9422" y="-168.3564" font-family="Times,serif" font-size="10.00" fill="#000000">store</text>
</g>
<!-- b422&#45;&gt;sDM_book4 -->
<g id="edge6" class="edge">
<title>b422&#45;&gt;sDM_book4</title>
<path fill="none" stroke="#000000" d="M105.1854,-85.9775C96.3293,-75.1087 85.2975,-61.5697 75.8801,-50.012"/>
<text text-anchor="middle" x="93.0994" y="-52.012" font-family="Times,serif" font-size="10.00" fill="#000000">products</text>
<text text-anchor="middle" x="93.8011" y="-77.9775" font-family="Times,serif" font-size="10.00" fill="#000000">board</text>
</g>
<!-- b422&#45;&gt;java_book5 -->
<g id="edge7" class="edge">
<title>b422&#45;&gt;java_book5</title>
<path fill="none" stroke="#000000" d="M136.5787,-85.9775C144.7638,-75.1087 154.9599,-61.5697 163.6638,-50.012"/>
<text text-anchor="middle" x="146.4446" y="-52.012" font-family="Times,serif" font-size="10.00" fill="#000000">products</text>
<text text-anchor="middle" x="125.1944" y="-77.9775" font-family="Times,serif" font-size="10.00" fill="#000000">board</text>
</g>
<!-- b433&#45;&gt;veltins_bottle6 -->
<g id="edge8" class="edge">
<title>b433&#45;&gt;veltins_bottle6</title>
<path fill="none" stroke="#000000" d="M265.5674,-85.9775C274.2893,-75.1087 285.154,-61.5697 294.4287,-50.012"/>
<text text-anchor="middle" x="277.2094" y="-52.012" font-family="Times,serif" font-size="10.00" fill="#000000">products</text>
<text text-anchor="middle" x="254.1831" y="-77.9775" font-family="Times,serif" font-size="10.00" fill="#000000">board</text>
</g>
</g>
</svg>
