<?xml version="1.0" encoding="UTF-8" standalone="no"?>
<!DOCTYPE svg PUBLIC "-//W3C//DTD SVG 1.1//EN"
 "http://www.w3.org/Graphics/SVG/1.1/DTD/svg11.dtd">
<!-- Generated by graphviz version 2.38.0 (20140413.2041)
 -->
<!-- Title: H Pages: 1 -->
<svg width="451pt" height="228pt"
 viewBox="0.00 0.00 451.00 228.00" xmlns="http://www.w3.org/2000/svg" xmlns:xlink="http://www.w3.org/1999/xlink">
<g id="graph0" class="graph" transform="scale(1 1) rotate(0) translate(4 224)">
<title>H</title>
<polygon fill="white" stroke="none" points="-4,4 -4,-224 447,-224 447,4 -4,4"/>
<!-- sE_Store1 -->
<g id="node1" class="node"><title>sE_Store1</title>
<polygon fill="none" stroke="black" points="211.5,-199 211.5,-216 296.5,-216 296.5,-199 211.5,-199"/>
<text text-anchor="start" x="219" y="-206" font-family="Times New Roman,serif" text-decoration="underline" font-size="10.00">sE&#45;Store :Storage</text>
<polygon fill="none" stroke="black" points="211.5,-182 211.5,-199 296.5,-199 296.5,-182 211.5,-182"/>
<text text-anchor="start" x="214.5" y="-188" font-family="Times New Roman,serif" font-size="10.00"> &#160;name = &quot;SE&#45;Store&quot;</text>
</g>
<!-- b_r1_c12 -->
<g id="node2" class="node"><title>b_r1_c12</title>
<polygon fill="none" stroke="black" points="152.5,-121 152.5,-138 217.5,-138 217.5,-121 152.5,-121"/>
<text text-anchor="start" x="156.5" y="-128" font-family="Times New Roman,serif" text-decoration="underline" font-size="10.00">b&#45;r1&#45;c1 :Board</text>
<polygon fill="none" stroke="black" points="152.5,-104 152.5,-121 217.5,-121 217.5,-104 152.5,-104"/>
<text text-anchor="start" x="155.5" y="-110" font-family="Times New Roman,serif" font-size="10.00"> &#160;id = &quot;b&#45;r1&#45;c1&quot;</text>
</g>
<!-- sE_Store1&#45;&gt;b_r1_c12 -->
<g id="edge1" class="edge"><title>sE_Store1&#45;&gt;b_r1_c12</title>
<path fill="none" stroke="black" d="M235.009,-177.633C225.029,-166.641 212.753,-153.119 202.803,-142.159"/>
<text text-anchor="middle" x="188.803" y="-145.159" font-family="Times New Roman,serif" font-size="10.00">boards</text>
<text text-anchor="middle" x="224.509" y="-169.633" font-family="Times New Roman,serif" font-size="10.00">store</text>
</g>
<!-- b_r1_c23 -->
<g id="node3" class="node"><title>b_r1_c23</title>
<polygon fill="none" stroke="black" points="291.5,-121 291.5,-138 356.5,-138 356.5,-121 291.5,-121"/>
<text text-anchor="start" x="295.5" y="-128" font-family="Times New Roman,serif" text-decoration="underline" font-size="10.00">b&#45;r1&#45;c2 :Board</text>
<polygon fill="none" stroke="black" points="291.5,-104 291.5,-121 356.5,-121 356.5,-104 291.5,-104"/>
<text text-anchor="start" x="294.5" y="-110" font-family="Times New Roman,serif" font-size="10.00"> &#160;id = &quot;b&#45;r1&#45;c2&quot;</text>
</g>
<!-- sE_Store1&#45;&gt;b_r1_c23 -->
<g id="edge2" class="edge"><title>sE_Store1&#45;&gt;b_r1_c23</title>
<path fill="none" stroke="black" d="M272.259,-177.633C282.383,-166.641 294.837,-153.119 304.932,-142.159"/>
<text text-anchor="middle" x="290.932" y="-145.159" font-family="Times New Roman,serif" font-size="10.00">boards</text>
<text text-anchor="middle" x="261.759" y="-169.633" font-family="Times New Roman,serif" font-size="10.00">store</text>
</g>
<!-- book_40044 -->
<g id="node4" class="node"><title>book_40044</title>
<polygon fill="none" stroke="black" points="8.5,-43 8.5,-60 151.5,-60 151.5,-43 8.5,-43"/>
<text text-anchor="start" x="41" y="-50" font-family="Times New Roman,serif" text-decoration="underline" font-size="10.00">book&#45;4004 :Product</text>
<polygon fill="none" stroke="black" points="8.5,-4 8.5,-43 151.5,-43 151.5,-4 8.5,-4"/>
<text text-anchor="start" x="11.5" y="-32" font-family="Times New Roman,serif" font-size="10.00"> &#160;id = &quot;book&#45;4004&quot;</text>
<text text-anchor="start" x="11.5" y="-21" font-family="Times New Roman,serif" font-size="10.00"> &#160;items = 1</text>
<text text-anchor="start" x="11.5" y="-10" font-family="Times New Roman,serif" font-size="10.00"> &#160;name = &quot;Story Driven Modeling&quot;</text>
</g>
<!-- sE_Store1&#45;&gt;book_40044 -->
<g id="edge3" class="edge"><title>sE_Store1&#45;&gt;book_40044</title>
<path fill="none" stroke="black" d="M202.987,-182.761C179.923,-173.813 153.566,-160.549 134.5,-142 112.319,-120.42 97.5492,-88.0019 88.9516,-64.1267"/>
<text text-anchor="middle" x="70.4516" y="-67.1267" font-family="Times New Roman,serif" font-size="10.00">products</text>
<text text-anchor="middle" x="192.487" y="-185.761" font-family="Times New Roman,serif" font-size="10.00">store</text>
</g>
<!-- book_50055 -->
<g id="node5" class="node"><title>book_50055</title>
<polygon fill="none" stroke="black" points="185.5,-43 185.5,-60 321.5,-60 321.5,-43 185.5,-43"/>
<text text-anchor="start" x="214.5" y="-50" font-family="Times New Roman,serif" text-decoration="underline" font-size="10.00">book&#45;5005 :Product</text>
<polygon fill="none" stroke="black" points="185.5,-4 185.5,-43 321.5,-43 321.5,-4 185.5,-4"/>
<text text-anchor="start" x="188.5" y="-32" font-family="Times New Roman,serif" font-size="10.00"> &#160;id = &quot;book&#45;5005&quot;</text>
<text text-anchor="start" x="188.5" y="-21" font-family="Times New Roman,serif" font-size="10.00"> &#160;items = 1</text>
<text text-anchor="start" x="188.5" y="-10" font-family="Times New Roman,serif" font-size="10.00"> &#160;name = &quot;Java is also an Island&quot;</text>
</g>
<!-- sE_Store1&#45;&gt;book_50055 -->
<g id="edge4" class="edge"><title>sE_Store1&#45;&gt;book_50055</title>
<path fill="none" stroke="black" d="M253.5,-177.768C253.5,-149.37 253.5,-97.4391 253.5,-64.1079"/>
<text text-anchor="middle" x="272" y="-67.1079" font-family="Times New Roman,serif" font-size="10.00">products</text>
<text text-anchor="middle" x="243" y="-169.768" font-family="Times New Roman,serif" font-size="10.00">store</text>
</g>
<!-- beer_16 -->
<g id="node6" class="node"><title>beer_16</title>
<polygon fill="none" stroke="black" points="356.5,-43 356.5,-60 435.5,-60 435.5,-43 356.5,-43"/>
<text text-anchor="start" x="365.5" y="-50" font-family="Times New Roman,serif" text-decoration="underline" font-size="10.00">beer&#45;1 :Product</text>
<polygon fill="none" stroke="black" points="356.5,-4 356.5,-43 435.5,-43 435.5,-4 356.5,-4"/>
<text text-anchor="start" x="359.5" y="-32" font-family="Times New Roman,serif" font-size="10.00"> &#160;id = &quot;beer&#45;1&quot;</text>
<text text-anchor="start" x="359.5" y="-21" font-family="Times New Roman,serif" font-size="10.00"> &#160;items = 24</text>
<text text-anchor="start" x="359.5" y="-10" font-family="Times New Roman,serif" font-size="10.00"> &#160;name = &quot;Veltins&quot;</text>
</g>
<!-- sE_Store1&#45;&gt;beer_16 -->
<g id="edge5" class="edge"><title>sE_Store1&#45;&gt;beer_16</title>
<path fill="none" stroke="black" d="M304.175,-185.57C328.287,-177.133 355.497,-163.486 372.5,-142 389.903,-120.009 394.97,-87.9611 396.093,-64.3035"/>
<text text-anchor="middle" x="414.593" y="-67.3035" font-family="Times New Roman,serif" font-size="10.00">products</text>
<text text-anchor="middle" x="314.675" y="-188.57" font-family="Times New Roman,serif" font-size="10.00">store</text>
</g>
<!-- b_r1_c12&#45;&gt;book_40044 -->
<g id="edge6" class="edge"><title>b_r1_c12&#45;&gt;book_40044</title>
<path fill="none" stroke="black" d="M160.147,-99.8218C147.425,-89.2805 131.572,-76.145 117.296,-64.3168"/>
<text text-anchor="middle" x="135.796" y="-67.3168" font-family="Times New Roman,serif" font-size="10.00">products</text>
<text text-anchor="middle" x="148.147" y="-91.8218" font-family="Times New Roman,serif" font-size="10.00">board</text>
</g>
<!-- b_r1_c12&#45;&gt;book_50055 -->
<g id="edge7" class="edge"><title>b_r1_c12&#45;&gt;book_50055</title>
<path fill="none" stroke="black" d="M200.503,-99.8218C208.864,-89.2805 219.282,-76.145 228.663,-64.3168"/>
<text text-anchor="middle" x="210.163" y="-67.3168" font-family="Times New Roman,serif" font-size="10.00">products</text>
<text text-anchor="middle" x="188.503" y="-91.8218" font-family="Times New Roman,serif" font-size="10.00">board</text>
</g>
<!-- b_r1_c23&#45;&gt;beer_16 -->
<g id="edge8" class="edge"><title>b_r1_c23&#45;&gt;beer_16</title>
<path fill="none" stroke="black" d="M340.199,-99.8218C348.923,-89.2805 359.794,-76.145 369.583,-64.3168"/>
<text text-anchor="middle" x="351.083" y="-67.3168" font-family="Times New Roman,serif" font-size="10.00">products</text>
<text text-anchor="middle" x="328.199" y="-91.8218" font-family="Times New Roman,serif" font-size="10.00">board</text>
</g>
</g>
</svg>
