<?xml version="1.0" encoding="UTF-8" standalone="no"?>
<!DOCTYPE svg PUBLIC "-//W3C//DTD SVG 1.1//EN"
 "http://www.w3.org/Graphics/SVG/1.1/DTD/svg11.dtd">
<!-- Generated by graphviz version 2.38.0 (20140413.2041)
 -->
<!-- Title: H Pages: 1 -->
<svg width="555pt" height="228pt"
 viewBox="0.00 0.00 554.50 228.00" xmlns="http://www.w3.org/2000/svg" xmlns:xlink="http://www.w3.org/1999/xlink">
<g id="graph0" class="graph" transform="scale(1 1) rotate(0) translate(4 224)">
<title>H</title>
<polygon fill="white" stroke="none" points="-4,4 -4,-224 550.5,-224 550.5,4 -4,4"/>
<!-- sE_Store1 -->
<g id="node1" class="node"><title>sE_Store1</title>
<polygon fill="none" stroke="black" points="237,-199 237,-216 322,-216 322,-199 237,-199"/>
<text text-anchor="start" x="244.5" y="-206" font-family="Times New Roman,serif" text-decoration="underline" font-size="10.00">sE&#45;Store :Storage</text>
<polygon fill="none" stroke="black" points="237,-182 237,-199 322,-199 322,-182 237,-182"/>
<text text-anchor="start" x="240" y="-188" font-family="Times New Roman,serif" font-size="10.00"> &#160;name = &quot;SE&#45;Store&quot;</text>
</g>
<!-- b422 -->
<g id="node2" class="node"><title>b422</title>
<polygon fill="none" stroke="black" points="98,-115.5 98,-132.5 150,-132.5 150,-115.5 98,-115.5"/>
<text text-anchor="start" x="102.5" y="-122.5" font-family="Times New Roman,serif" text-decoration="underline" font-size="10.00">b42 :Board</text>
<polygon fill="none" stroke="black" points="98,-98.5 98,-115.5 150,-115.5 150,-98.5 98,-98.5"/>
<text text-anchor="start" x="101" y="-104.5" font-family="Times New Roman,serif" font-size="10.00"> &#160;id = &quot;b42&quot;</text>
</g>
<!-- sE_Store1&#45;&gt;b422 -->
<g id="edge1" class="edge"><title>sE_Store1&#45;&gt;b422</title>
<path fill="none" stroke="black" d="M240.339,-177.839C219.988,-167.208 194.626,-153.931 172,-142 167.493,-139.623 162.751,-137.115 158.075,-134.635"/>
<text text-anchor="middle" x="172.075" y="-137.635" font-family="Times New Roman,serif" font-size="10.00">boards</text>
<text text-anchor="middle" x="229.839" y="-169.839" font-family="Times New Roman,serif" font-size="10.00">store</text>
</g>
<!-- b433 -->
<g id="node3" class="node"><title>b433</title>
<polygon fill="none" stroke="black" points="222,-115.5 222,-132.5 274,-132.5 274,-115.5 222,-115.5"/>
<text text-anchor="start" x="226.5" y="-122.5" font-family="Times New Roman,serif" text-decoration="underline" font-size="10.00">b43 :Board</text>
<polygon fill="none" stroke="black" points="222,-98.5 222,-115.5 274,-115.5 274,-98.5 222,-98.5"/>
<text text-anchor="start" x="225" y="-104.5" font-family="Times New Roman,serif" font-size="10.00"> &#160;id = &quot;b43&quot;</text>
</g>
<!-- sE_Store1&#45;&gt;b433 -->
<g id="edge2" class="edge"><title>sE_Store1&#45;&gt;b433</title>
<path fill="none" stroke="black" d="M271.337,-177.854C266.568,-165.315 260.455,-149.245 255.682,-136.697"/>
<text text-anchor="middle" x="241.682" y="-139.697" font-family="Times New Roman,serif" font-size="10.00">boards</text>
<text text-anchor="middle" x="260.837" y="-169.854" font-family="Times New Roman,serif" font-size="10.00">store</text>
</g>
<!-- b454 -->
<g id="node4" class="node"><title>b454</title>
<polygon fill="none" stroke="black" points="346,-115.5 346,-132.5 398,-132.5 398,-115.5 346,-115.5"/>
<text text-anchor="start" x="350.5" y="-122.5" font-family="Times New Roman,serif" text-decoration="underline" font-size="10.00">b45 :Board</text>
<polygon fill="none" stroke="black" points="346,-98.5 346,-115.5 398,-115.5 398,-98.5 346,-98.5"/>
<text text-anchor="start" x="349" y="-104.5" font-family="Times New Roman,serif" font-size="10.00"> &#160;id = &quot;b45&quot;</text>
</g>
<!-- sE_Store1&#45;&gt;b454 -->
<g id="edge3" class="edge"><title>sE_Store1&#45;&gt;b454</title>
<path fill="none" stroke="black" d="M301.989,-177.854C316.297,-165.315 334.635,-149.245 348.953,-136.697"/>
<text text-anchor="middle" x="334.953" y="-139.697" font-family="Times New Roman,serif" font-size="10.00">boards</text>
<text text-anchor="middle" x="312.489" y="-169.854" font-family="Times New Roman,serif" font-size="10.00">store</text>
</g>
<!-- sDM_book5 -->
<g id="node5" class="node"><title>sDM_book5</title>
<polygon fill="none" stroke="black" points="8,-31.5 8,-48.5 102,-48.5 102,-31.5 8,-31.5"/>
<text text-anchor="start" x="15.5" y="-38.5" font-family="Times New Roman,serif" text-decoration="underline" font-size="10.00">sDM book :Product</text>
<polygon fill="none" stroke="black" points="8,-3.5 8,-31.5 102,-31.5 102,-3.5 8,-3.5"/>
<text text-anchor="start" x="11" y="-20.5" font-family="Times New Roman,serif" font-size="10.00"> &#160;items = 1</text>
<text text-anchor="start" x="11" y="-9.5" font-family="Times New Roman,serif" font-size="10.00"> &#160;name = &quot;SDM book&quot;</text>
</g>
<!-- sE_Store1&#45;&gt;sDM_book5 -->
<g id="edge4" class="edge"><title>sE_Store1&#45;&gt;sDM_book5</title>
<path fill="none" stroke="black" d="M228.222,-197.452C183.245,-194.143 118.992,-182.035 81,-142 58.4086,-118.194 53.9494,-79.0442 53.7508,-53.2659"/>
<text text-anchor="middle" x="35.2508" y="-56.2659" font-family="Times New Roman,serif" font-size="10.00">products</text>
<text text-anchor="middle" x="217.722" y="-200.452" font-family="Times New Roman,serif" font-size="10.00">store</text>
</g>
<!-- java_book6 -->
<g id="node6" class="node"><title>java_book6</title>
<polygon fill="none" stroke="black" points="137,-31.5 137,-48.5 228,-48.5 228,-31.5 137,-31.5"/>
<text text-anchor="start" x="144.5" y="-38.5" font-family="Times New Roman,serif" text-decoration="underline" font-size="10.00">java book :Product</text>
<polygon fill="none" stroke="black" points="137,-3.5 137,-31.5 228,-31.5 228,-3.5 137,-3.5"/>
<text text-anchor="start" x="140" y="-20.5" font-family="Times New Roman,serif" font-size="10.00"> &#160;items = 1</text>
<text text-anchor="start" x="140" y="-9.5" font-family="Times New Roman,serif" font-size="10.00"> &#160;name = &quot;Java book&quot;</text>
</g>
<!-- sE_Store1&#45;&gt;java_book6 -->
<g id="edge5" class="edge"><title>sE_Store1&#45;&gt;java_book6</title>
<path fill="none" stroke="black" d="M241.907,-177.75C228.328,-168.551 214.08,-156.464 205,-142 187.967,-114.868 183.198,-77.6119 182.043,-53.0635"/>
<text text-anchor="middle" x="200.543" y="-56.0635" font-family="Times New Roman,serif" font-size="10.00">products</text>
<text text-anchor="middle" x="231.407" y="-180.75" font-family="Times New Roman,serif" font-size="10.00">store</text>
</g>
<!-- veltins_bottle7 -->
<g id="node7" class="node"><title>veltins_bottle7</title>
<polygon fill="none" stroke="black" points="262,-31.5 262,-48.5 366,-48.5 366,-31.5 262,-31.5"/>
<text text-anchor="start" x="269.5" y="-38.5" font-family="Times New Roman,serif" text-decoration="underline" font-size="10.00">veltins bottle :Product</text>
<polygon fill="none" stroke="black" points="262,-3.5 262,-31.5 366,-31.5 366,-3.5 262,-3.5"/>
<text text-anchor="start" x="265" y="-20.5" font-family="Times New Roman,serif" font-size="10.00"> &#160;items = 24</text>
<text text-anchor="start" x="265" y="-9.5" font-family="Times New Roman,serif" font-size="10.00"> &#160;name = &quot;Veltins bottle&quot;</text>
</g>
<!-- sE_Store1&#45;&gt;veltins_bottle7 -->
<g id="edge6" class="edge"><title>sE_Store1&#45;&gt;veltins_bottle7</title>
<path fill="none" stroke="black" d="M283.395,-177.795C285.694,-167.152 288.535,-153.877 291,-142 297.305,-111.626 304.289,-76.6597 308.888,-53.4399"/>
<text text-anchor="middle" x="290.388" y="-56.4399" font-family="Times New Roman,serif" font-size="10.00">products</text>
<text text-anchor="middle" x="288.645" y="-169.795" font-family="Times New Roman,serif" font-size="10.00">store</text>
</g>
<!-- dB_book8 -->
<g id="node8" class="node"><title>dB_book8</title>
<polygon fill="none" stroke="black" points="432,-120.5 432,-137.5 518,-137.5 518,-120.5 432,-120.5"/>
<text text-anchor="start" x="440" y="-127.5" font-family="Times New Roman,serif" text-decoration="underline" font-size="10.00">dB book :Product</text>
<polygon fill="none" stroke="black" points="432,-92.5 432,-120.5 518,-120.5 518,-92.5 432,-92.5"/>
<text text-anchor="start" x="435" y="-109.5" font-family="Times New Roman,serif" font-size="10.00"> &#160;items = 0</text>
<text text-anchor="start" x="435" y="-98.5" font-family="Times New Roman,serif" font-size="10.00"> &#160;name = &quot;DB book&quot;</text>
</g>
<!-- sE_Store1&#45;&gt;dB_book8 -->
<g id="edge7" class="edge"><title>sE_Store1&#45;&gt;dB_book8</title>
<path fill="none" stroke="black" d="M328.156,-177.915C354.027,-167.305 386.262,-154.023 415,-142 417.924,-140.777 420.925,-139.516 423.953,-138.241"/>
<text text-anchor="middle" x="405.453" y="-141.241" font-family="Times New Roman,serif" font-size="10.00">products</text>
<text text-anchor="middle" x="338.656" y="-169.915" font-family="Times New Roman,serif" font-size="10.00">store</text>
</g>
<!-- rE_book9 -->
<g id="node9" class="node"><title>rE_book9</title>
<polygon fill="none" stroke="black" points="454,-31.5 454,-48.5 539,-48.5 539,-31.5 454,-31.5"/>
<text text-anchor="start" x="463" y="-38.5" font-family="Times New Roman,serif" text-decoration="underline" font-size="10.00">rE book :Product</text>
<polygon fill="none" stroke="black" points="454,-3.5 454,-31.5 539,-31.5 539,-3.5 454,-3.5"/>
<text text-anchor="start" x="457" y="-20.5" font-family="Times New Roman,serif" font-size="10.00"> &#160;items = 42</text>
<text text-anchor="start" x="457" y="-9.5" font-family="Times New Roman,serif" font-size="10.00"> &#160;name = &quot;RE book&quot;</text>
</g>
<!-- sE_Store1&#45;&gt;rE_book9 -->
<g id="edge8" class="edge"><title>sE_Store1&#45;&gt;rE_book9</title>
<path fill="none" stroke="black" d="M329.594,-194.279C396.721,-188.17 509.718,-173.41 535,-142 555.936,-115.989 535.821,-78.1194 517.572,-53.1556"/>
<text text-anchor="middle" x="499.072" y="-56.1556" font-family="Times New Roman,serif" font-size="10.00">products</text>
<text text-anchor="middle" x="340.094" y="-197.279" font-family="Times New Roman,serif" font-size="10.00">store</text>
</g>
<!-- b422&#45;&gt;sDM_book5 -->
<g id="edge9" class="edge"><title>b422&#45;&gt;sDM_book5</title>
<path fill="none" stroke="black" d="M107.997,-94.3218C98.2827,-82.0738 85.7912,-66.3237 75.3756,-53.191"/>
<text text-anchor="middle" x="93.8756" y="-56.191" font-family="Times New Roman,serif" font-size="10.00">products</text>
<text text-anchor="middle" x="95.9966" y="-86.3218" font-family="Times New Roman,serif" font-size="10.00">board</text>
</g>
<!-- b422&#45;&gt;java_book6 -->
<g id="edge10" class="edge"><title>b422&#45;&gt;java_book6</title>
<path fill="none" stroke="black" d="M137.452,-94.3218C145.617,-82.0738 156.118,-66.3237 164.873,-53.191"/>
<text text-anchor="middle" x="146.373" y="-56.191" font-family="Times New Roman,serif" font-size="10.00">products</text>
<text text-anchor="middle" x="125.452" y="-86.3218" font-family="Times New Roman,serif" font-size="10.00">board</text>
</g>
<!-- b433&#45;&gt;veltins_bottle7 -->
<g id="edge11" class="edge"><title>b433&#45;&gt;veltins_bottle7</title>
<path fill="none" stroke="black" d="M263.308,-94.3218C272.599,-82.0738 284.548,-66.3237 294.51,-53.191"/>
<text text-anchor="middle" x="313.01" y="-56.191" font-family="Times New Roman,serif" font-size="10.00">products</text>
<text text-anchor="middle" x="251.308" y="-86.3218" font-family="Times New Roman,serif" font-size="10.00">board</text>
</g>
<!-- b454&#45;&gt;rE_book9 -->
<g id="edge12" class="edge"><title>b454&#45;&gt;rE_book9</title>
<path fill="none" stroke="black" d="M400.76,-94.3218C418.217,-82.0738 440.665,-66.3237 459.383,-53.191"/>
<text text-anchor="middle" x="440.883" y="-56.191" font-family="Times New Roman,serif" font-size="10.00">products</text>
<text text-anchor="middle" x="388.76" y="-86.3218" font-family="Times New Roman,serif" font-size="10.00">board</text>
</g>
</g>
</svg>
