<?xml version="1.0" encoding="UTF-8" standalone="no"?>
<!DOCTYPE svg PUBLIC "-//W3C//DTD SVG 1.1//EN"
 "http://www.w3.org/Graphics/SVG/1.1/DTD/svg11.dtd">
<!-- Generated by graphviz version 2.40.1 (20161225.0304)
 -->
<!-- Title: H Pages: 1 -->
<svg width="557px" height="220px"
 viewBox="0.00 0.00 556.50 220.00" xmlns="http://www.w3.org/2000/svg" xmlns:xlink="http://www.w3.org/1999/xlink">
<g id="graph0" class="graph" transform=" rotate(0) translate(4 216)">
<title>H</title>
<polygon fill="#ffffff" stroke="transparent" points="-4,4 -4,-216 552.5,-216 552.5,4 -4,4"/>
<!-- sE_Store1 -->
<g id="node1" class="node">
<title>sE_Store1</title>
<polygon fill="none" stroke="#000000" points="236.5,-192 236.5,-208 323.5,-208 323.5,-192 236.5,-192"/>
<text text-anchor="start" x="244.8682" y="-198" font-family="Times,serif" text-decoration="underline" font-size="10.00" fill="#000000">sE&#45;Store :Storage</text>
<polygon fill="none" stroke="#000000" points="236.5,-176 236.5,-192 323.5,-192 323.5,-176 236.5,-176"/>
<text text-anchor="start" x="239.5" y="-181" font-family="Times,serif" font-size="10.00" fill="#000000"> &#160;name = &quot;SE&#45;Store&quot;</text>
</g>
<!-- b422 -->
<g id="node2" class="node">
<title>b422</title>
<polygon fill="none" stroke="#000000" points="98.5,-111 98.5,-127 150.5,-127 150.5,-111 98.5,-111"/>
<text text-anchor="start" x="102.1416" y="-117" font-family="Times,serif" text-decoration="underline" font-size="10.00" fill="#000000">b42 :Board</text>
<polygon fill="none" stroke="#000000" points="98.5,-95 98.5,-111 150.5,-111 150.5,-95 98.5,-95"/>
<text text-anchor="start" x="101.5" y="-100" font-family="Times,serif" font-size="10.00" fill="#000000"> &#160;id = &quot;b42&quot;</text>
</g>
<!-- sE_Store1&#45;&gt;b422 -->
<g id="edge1" class="edge">
<title>sE_Store1&#45;&gt;b422</title>
<path fill="none" stroke="#000000" d="M241.1854,-171.9775C215.9046,-158.7663 183.0745,-141.6099 158.6803,-128.862"/>
<text text-anchor="middle" x="172.0104" y="-130.862" font-family="Times,serif" font-size="10.00" fill="#000000">boards</text>
<text text-anchor="middle" x="231.4661" y="-163.9775" font-family="Times,serif" font-size="10.00" fill="#000000">store</text>
</g>
<!-- b433 -->
<g id="node3" class="node">
<title>b433</title>
<polygon fill="none" stroke="#000000" points="222.5,-111 222.5,-127 274.5,-127 274.5,-111 222.5,-111"/>
<text text-anchor="start" x="226.1416" y="-117" font-family="Times,serif" text-decoration="underline" font-size="10.00" fill="#000000">b43 :Board</text>
<polygon fill="none" stroke="#000000" points="222.5,-95 222.5,-111 274.5,-111 274.5,-95 222.5,-95"/>
<text text-anchor="start" x="225.5" y="-100" font-family="Times,serif" font-size="10.00" fill="#000000"> &#160;id = &quot;b43&quot;</text>
</g>
<!-- sE_Store1&#45;&gt;b433 -->
<g id="edge2" class="edge">
<title>sE_Store1&#45;&gt;b433</title>
<path fill="none" stroke="#000000" d="M271.8371,-171.9775C267.0678,-159.5158 260.9551,-143.544 256.1822,-131.0729"/>
<text text-anchor="middle" x="242.8521" y="-133.0729" font-family="Times,serif" font-size="10.00" fill="#000000">boards</text>
<text text-anchor="middle" x="262.1178" y="-163.9775" font-family="Times,serif" font-size="10.00" fill="#000000">store</text>
</g>
<!-- b454 -->
<g id="node4" class="node">
<title>b454</title>
<polygon fill="none" stroke="#000000" points="346.5,-111 346.5,-127 398.5,-127 398.5,-111 346.5,-111"/>
<text text-anchor="start" x="350.1416" y="-117" font-family="Times,serif" text-decoration="underline" font-size="10.00" fill="#000000">b45 :Board</text>
<polygon fill="none" stroke="#000000" points="346.5,-95 346.5,-111 398.5,-111 398.5,-95 346.5,-95"/>
<text text-anchor="start" x="349.5" y="-100" font-family="Times,serif" font-size="10.00" fill="#000000"> &#160;id = &quot;b45&quot;</text>
</g>
<!-- sE_Store1&#45;&gt;b454 -->
<g id="edge3" class="edge">
<title>sE_Store1&#45;&gt;b454</title>
<path fill="none" stroke="#000000" d="M302.4888,-171.9775C316.7966,-159.5158 335.1347,-143.544 349.4534,-131.0729"/>
<text text-anchor="middle" x="336.1233" y="-133.0729" font-family="Times,serif" font-size="10.00" fill="#000000">boards</text>
<text text-anchor="middle" x="312.208" y="-163.9775" font-family="Times,serif" font-size="10.00" fill="#000000">store</text>
</g>
<!-- sDM_book5 -->
<g id="node5" class="node">
<title>sDM_book5</title>
<polygon fill="none" stroke="#000000" points="8.5,-30 8.5,-46 103.5,-46 103.5,-30 8.5,-30"/>
<text text-anchor="start" x="16.5542" y="-36" font-family="Times,serif" text-decoration="underline" font-size="10.00" fill="#000000">sDM book :Product</text>
<polygon fill="none" stroke="#000000" points="8.5,-4 8.5,-30 103.5,-30 103.5,-4 8.5,-4"/>
<text text-anchor="start" x="11.5" y="-19" font-family="Times,serif" font-size="10.00" fill="#000000"> &#160;items = 1</text>
<text text-anchor="start" x="11.5" y="-9" font-family="Times,serif" font-size="10.00" fill="#000000"> &#160;name = &quot;SDM book&quot;</text>
</g>
<!-- sE_Store1&#45;&gt;sDM_book5 -->
<g id="edge4" class="edge">
<title>sE_Store1&#45;&gt;sDM_book5</title>
<path fill="none" stroke="#000000" d="M227.5805,-183.4445C175.9265,-173.8935 101.5513,-156.986 81.5,-136 59.6231,-113.1034 54.9361,-75.4681 54.4972,-50.4616"/>
<text text-anchor="middle" x="37.278" y="-52.4616" font-family="Times,serif" font-size="10.00" fill="#000000">products</text>
<text text-anchor="middle" x="217.8612" y="-185.4445" font-family="Times,serif" font-size="10.00" fill="#000000">store</text>
</g>
<!-- java_book6 -->
<g id="node6" class="node">
<title>java_book6</title>
<polygon fill="none" stroke="#000000" points="137.5,-30 137.5,-46 228.5,-46 228.5,-30 137.5,-30"/>
<text text-anchor="start" x="145.229" y="-36" font-family="Times,serif" text-decoration="underline" font-size="10.00" fill="#000000">java book :Product</text>
<polygon fill="none" stroke="#000000" points="137.5,-4 137.5,-30 228.5,-30 228.5,-4 137.5,-4"/>
<text text-anchor="start" x="140.5" y="-19" font-family="Times,serif" font-size="10.00" fill="#000000"> &#160;items = 1</text>
<text text-anchor="start" x="140.5" y="-9" font-family="Times,serif" font-size="10.00" fill="#000000"> &#160;name = &quot;Java book&quot;</text>
</g>
<!-- sE_Store1&#45;&gt;java_book6 -->
<g id="edge5" class="edge">
<title>sE_Store1&#45;&gt;java_book6</title>
<path fill="none" stroke="#000000" d="M242.8366,-171.9808C229.1491,-162.7462 214.7104,-150.5723 205.5,-136 188.992,-109.8817 184.0815,-74.0505 182.7523,-50.2433"/>
<text text-anchor="middle" x="165.5331" y="-52.2433" font-family="Times,serif" font-size="10.00" fill="#000000">products</text>
<text text-anchor="middle" x="252.5558" y="-163.9808" font-family="Times,serif" font-size="10.00" fill="#000000">store</text>
</g>
<!-- veltins_bottle7 -->
<g id="node7" class="node">
<title>veltins_bottle7</title>
<polygon fill="none" stroke="#000000" points="262.5,-30 262.5,-46 366.5,-46 366.5,-30 262.5,-30"/>
<text text-anchor="start" x="270.3374" y="-36" font-family="Times,serif" text-decoration="underline" font-size="10.00" fill="#000000">veltins bottle :Product</text>
<polygon fill="none" stroke="#000000" points="262.5,-4 262.5,-30 366.5,-30 366.5,-4 262.5,-4"/>
<text text-anchor="start" x="265.5" y="-19" font-family="Times,serif" font-size="10.00" fill="#000000"> &#160;items = 24</text>
<text text-anchor="start" x="265.5" y="-9" font-family="Times,serif" font-size="10.00" fill="#000000"> &#160;name = &quot;Veltins bottle&quot;</text>
</g>
<!-- sE_Store1&#45;&gt;veltins_bottle7 -->
<g id="edge6" class="edge">
<title>sE_Store1&#45;&gt;veltins_bottle7</title>
<path fill="none" stroke="#000000" d="M283.8655,-171.7891C286.1559,-161.1443 288.9985,-147.8697 291.5,-136 297.7093,-106.5365 304.7119,-72.6427 309.3418,-50.1383"/>
<text text-anchor="middle" x="326.561" y="-52.1383" font-family="Times,serif" font-size="10.00" fill="#000000">products</text>
<text text-anchor="middle" x="288.7251" y="-163.7891" font-family="Times,serif" font-size="10.00" fill="#000000">store</text>
</g>
<!-- dB_book8 -->
<g id="node8" class="node">
<title>dB_book8</title>
<polygon fill="none" stroke="#000000" points="433.5,-116 433.5,-132 520.5,-132 520.5,-116 433.5,-116"/>
<text text-anchor="start" x="441.7217" y="-122" font-family="Times,serif" text-decoration="underline" font-size="10.00" fill="#000000">dB book :Product</text>
<polygon fill="none" stroke="#000000" points="433.5,-90 433.5,-116 520.5,-116 520.5,-90 433.5,-90"/>
<text text-anchor="start" x="436.5" y="-105" font-family="Times,serif" font-size="10.00" fill="#000000"> &#160;items = 0</text>
<text text-anchor="start" x="436.5" y="-95" font-family="Times,serif" font-size="10.00" fill="#000000"> &#160;name = &quot;DB book&quot;</text>
</g>
<!-- sE_Store1&#45;&gt;dB_book8 -->
<g id="edge7" class="edge">
<title>sE_Store1&#45;&gt;dB_book8</title>
<path fill="none" stroke="#000000" d="M328.1966,-171.9775C357.5932,-159.8906 395.0209,-144.5015 424.9215,-132.2074"/>
<text text-anchor="middle" x="407.7023" y="-134.2074" font-family="Times,serif" font-size="10.00" fill="#000000">products</text>
<text text-anchor="middle" x="337.9159" y="-163.9775" font-family="Times,serif" font-size="10.00" fill="#000000">store</text>
</g>
<!-- rE_book9 -->
<g id="node9" class="node">
<title>rE_book9</title>
<polygon fill="none" stroke="#000000" points="454.5,-30 454.5,-46 540.5,-46 540.5,-30 454.5,-30"/>
<text text-anchor="start" x="463.3374" y="-36" font-family="Times,serif" text-decoration="underline" font-size="10.00" fill="#000000">rE book :Product</text>
<polygon fill="none" stroke="#000000" points="454.5,-4 454.5,-30 540.5,-30 540.5,-4 454.5,-4"/>
<text text-anchor="start" x="457.5" y="-19" font-family="Times,serif" font-size="10.00" fill="#000000"> &#160;items = 42</text>
<text text-anchor="start" x="457.5" y="-9" font-family="Times,serif" font-size="10.00" fill="#000000"> &#160;name = &quot;RE book&quot;</text>
</g>
<!-- sE_Store1&#45;&gt;rE_book9 -->
<g id="edge8" class="edge">
<title>sE_Store1&#45;&gt;rE_book9</title>
<path fill="none" stroke="#000000" d="M331.0577,-188.2888C398.7723,-182.2189 512.0762,-167.5341 537.5,-136 557.8136,-110.8043 537.8158,-74.4274 519.5281,-50.2686"/>
<text text-anchor="middle" x="502.3088" y="-52.2686" font-family="Times,serif" font-size="10.00" fill="#000000">products</text>
<text text-anchor="middle" x="340.7769" y="-190.2888" font-family="Times,serif" font-size="10.00" fill="#000000">store</text>
</g>
<!-- b422&#45;&gt;sDM_book5 -->
<g id="edge9" class="edge">
<title>b422&#45;&gt;sDM_book5</title>
<path fill="none" stroke="#000000" d="M108.148,-90.6192C98.4241,-78.4996 86.0113,-63.0286 75.6809,-50.153"/>
<text text-anchor="middle" x="92.9001" y="-52.153" font-family="Times,serif" font-size="10.00" fill="#000000">products</text>
<text text-anchor="middle" x="96.7637" y="-82.6192" font-family="Times,serif" font-size="10.00" fill="#000000">board</text>
</g>
<!-- b422&#45;&gt;java_book6 -->
<g id="edge10" class="edge">
<title>b422&#45;&gt;java_book6</title>
<path fill="none" stroke="#000000" d="M138.2452,-90.6192C146.4189,-78.4996 156.8528,-63.0286 165.5364,-50.153"/>
<text text-anchor="middle" x="182.7556" y="-52.153" font-family="Times,serif" font-size="10.00" fill="#000000">products</text>
<text text-anchor="middle" x="126.8609" y="-82.6192" font-family="Times,serif" font-size="10.00" fill="#000000">board</text>
</g>
<!-- b433&#45;&gt;veltins_bottle7 -->
<g id="edge11" class="edge">
<title>b433&#45;&gt;veltins_bottle7</title>
<path fill="none" stroke="#000000" d="M264.1411,-90.6192C273.4422,-78.4996 285.3153,-63.0286 295.1966,-50.153"/>
<text text-anchor="middle" x="277.9773" y="-52.153" font-family="Times,serif" font-size="10.00" fill="#000000">products</text>
<text text-anchor="middle" x="252.7568" y="-82.6192" font-family="Times,serif" font-size="10.00" fill="#000000">board</text>
</g>
<!-- b454&#45;&gt;rE_book9 -->
<g id="edge12" class="edge">
<title>b454&#45;&gt;rE_book9</title>
<path fill="none" stroke="#000000" d="M401.8069,-90.8368C419.4141,-78.7231 441.9725,-63.2029 460.7641,-50.2743"/>
<text text-anchor="middle" x="443.5449" y="-52.2743" font-family="Times,serif" font-size="10.00" fill="#000000">products</text>
<text text-anchor="middle" x="390.4227" y="-82.8368" font-family="Times,serif" font-size="10.00" fill="#000000">board</text>
</g>
</g>
</svg>
