<?xml version="1.0" encoding="UTF-8" standalone="no"?>
<!DOCTYPE svg PUBLIC "-//W3C//DTD SVG 1.1//EN"
 "http://www.w3.org/Graphics/SVG/1.1/DTD/svg11.dtd">
<!-- Generated by graphviz version 2.38.0 (20140413.2041)
 -->
<!-- Title: H Pages: 1 -->
<svg width="692pt" height="228pt"
 viewBox="0.00 0.00 691.50 228.00" xmlns="http://www.w3.org/2000/svg" xmlns:xlink="http://www.w3.org/1999/xlink">
<g id="graph0" class="graph" transform="scale(1 1) rotate(0) translate(4 224)">
<title>H</title>
<polygon fill="white" stroke="none" points="-4,4 -4,-224 687.5,-224 687.5,4 -4,4"/>
<!-- store241 -->
<g id="node1" class="node"><title>store241</title>
<polygon fill="none" stroke="black" points="270,-199 270,-216 351,-216 351,-199 270,-199"/>
<text text-anchor="start" x="278" y="-206" font-family="Times New Roman,serif" text-decoration="underline" font-size="10.00">store24 :Storage</text>
<polygon fill="none" stroke="black" points="270,-182 270,-199 351,-199 351,-182 270,-182"/>
<text text-anchor="start" x="273" y="-188" font-family="Times New Roman,serif" font-size="10.00"> &#160;name = &quot;Store24&quot;</text>
</g>
<!-- b422 -->
<g id="node2" class="node"><title>b422</title>
<polygon fill="none" stroke="black" points="98,-115.5 98,-132.5 150,-132.5 150,-115.5 98,-115.5"/>
<text text-anchor="start" x="102.5" y="-122.5" font-family="Times New Roman,serif" text-decoration="underline" font-size="10.00">b42 :Board</text>
<polygon fill="none" stroke="black" points="98,-98.5 98,-115.5 150,-115.5 150,-98.5 98,-98.5"/>
<text text-anchor="start" x="101" y="-104.5" font-family="Times New Roman,serif" font-size="10.00"> &#160;id = &quot;b42&quot;</text>
</g>
<!-- store241&#45;&gt;b422 -->
<g id="edge1" class="edge"><title>store241&#45;&gt;b422</title>
<path fill="none" stroke="black" d="M261.258,-179.634C234.603,-169.239 201.167,-155.621 172,-142 167.469,-139.884 162.756,-137.551 158.132,-135.182"/>
<text text-anchor="middle" x="172.132" y="-138.182" font-family="Times New Roman,serif" font-size="10.00">boards</text>
<text text-anchor="middle" x="250.758" y="-182.634" font-family="Times New Roman,serif" font-size="10.00">store</text>
</g>
<!-- b433 -->
<g id="node3" class="node"><title>b433</title>
<polygon fill="none" stroke="black" points="222,-115.5 222,-132.5 274,-132.5 274,-115.5 222,-115.5"/>
<text text-anchor="start" x="226.5" y="-122.5" font-family="Times New Roman,serif" text-decoration="underline" font-size="10.00">b43 :Board</text>
<polygon fill="none" stroke="black" points="222,-98.5 222,-115.5 274,-115.5 274,-98.5 222,-98.5"/>
<text text-anchor="start" x="225" y="-104.5" font-family="Times New Roman,serif" font-size="10.00"> &#160;id = &quot;b43&quot;</text>
</g>
<!-- store241&#45;&gt;b433 -->
<g id="edge2" class="edge"><title>store241&#45;&gt;b433</title>
<path fill="none" stroke="black" d="M294.674,-177.854C285.136,-165.315 272.91,-149.245 263.364,-136.697"/>
<text text-anchor="middle" x="249.364" y="-139.697" font-family="Times New Roman,serif" font-size="10.00">boards</text>
<text text-anchor="middle" x="284.174" y="-169.854" font-family="Times New Roman,serif" font-size="10.00">store</text>
</g>
<!-- b454 -->
<g id="node4" class="node"><title>b454</title>
<polygon fill="none" stroke="black" points="346,-115.5 346,-132.5 398,-132.5 398,-115.5 346,-115.5"/>
<text text-anchor="start" x="350.5" y="-122.5" font-family="Times New Roman,serif" text-decoration="underline" font-size="10.00">b45 :Board</text>
<polygon fill="none" stroke="black" points="346,-98.5 346,-115.5 398,-115.5 398,-98.5 346,-98.5"/>
<text text-anchor="start" x="349" y="-104.5" font-family="Times New Roman,serif" font-size="10.00"> &#160;id = &quot;b45&quot;</text>
</g>
<!-- store241&#45;&gt;b454 -->
<g id="edge3" class="edge"><title>store241&#45;&gt;b454</title>
<path fill="none" stroke="black" d="M325.326,-177.854C334.864,-165.315 347.09,-149.245 356.636,-136.697"/>
<text text-anchor="middle" x="342.636" y="-139.697" font-family="Times New Roman,serif" font-size="10.00">boards</text>
<text text-anchor="middle" x="335.826" y="-169.854" font-family="Times New Roman,serif" font-size="10.00">store</text>
</g>
<!-- sDM_book5 -->
<g id="node5" class="node"><title>sDM_book5</title>
<polygon fill="none" stroke="black" points="8,-31.5 8,-48.5 102,-48.5 102,-31.5 8,-31.5"/>
<text text-anchor="start" x="15.5" y="-38.5" font-family="Times New Roman,serif" text-decoration="underline" font-size="10.00">sDM book :Product</text>
<polygon fill="none" stroke="black" points="8,-3.5 8,-31.5 102,-31.5 102,-3.5 8,-3.5"/>
<text text-anchor="start" x="11" y="-20.5" font-family="Times New Roman,serif" font-size="10.00"> &#160;items = 1</text>
<text text-anchor="start" x="11" y="-9.5" font-family="Times New Roman,serif" font-size="10.00"> &#160;name = &quot;SDM book&quot;</text>
</g>
<!-- store241&#45;&gt;sDM_book5 -->
<g id="edge4" class="edge"><title>store241&#45;&gt;sDM_book5</title>
<path fill="none" stroke="black" d="M261.48,-192.152C201.955,-183.989 105.862,-167.276 81,-142 57.9862,-118.602 53.6358,-79.3471 53.5763,-53.4345"/>
<text text-anchor="middle" x="35.0763" y="-56.4345" font-family="Times New Roman,serif" font-size="10.00">products</text>
<text text-anchor="middle" x="250.98" y="-195.152" font-family="Times New Roman,serif" font-size="10.00">store</text>
</g>
<!-- java_book6 -->
<g id="node6" class="node"><title>java_book6</title>
<polygon fill="none" stroke="black" points="137,-31.5 137,-48.5 228,-48.5 228,-31.5 137,-31.5"/>
<text text-anchor="start" x="144.5" y="-38.5" font-family="Times New Roman,serif" text-decoration="underline" font-size="10.00">java book :Product</text>
<polygon fill="none" stroke="black" points="137,-3.5 137,-31.5 228,-31.5 228,-3.5 137,-3.5"/>
<text text-anchor="start" x="140" y="-20.5" font-family="Times New Roman,serif" font-size="10.00"> &#160;items = 1</text>
<text text-anchor="start" x="140" y="-9.5" font-family="Times New Roman,serif" font-size="10.00"> &#160;name = &quot;Java book&quot;</text>
</g>
<!-- store241&#45;&gt;java_book6 -->
<g id="edge5" class="edge"><title>store241&#45;&gt;java_book6</title>
<path fill="none" stroke="black" d="M261.356,-182.635C241.024,-173.838 218.933,-160.732 205,-142 185.76,-116.133 181.547,-78.2285 181.117,-53.2176"/>
<text text-anchor="middle" x="162.617" y="-56.2176" font-family="Times New Roman,serif" font-size="10.00">products</text>
<text text-anchor="middle" x="250.856" y="-174.635" font-family="Times New Roman,serif" font-size="10.00">store</text>
</g>
<!-- veltins_bottle7 -->
<g id="node7" class="node"><title>veltins_bottle7</title>
<polygon fill="none" stroke="black" points="262,-31.5 262,-48.5 366,-48.5 366,-31.5 262,-31.5"/>
<text text-anchor="start" x="269.5" y="-38.5" font-family="Times New Roman,serif" text-decoration="underline" font-size="10.00">veltins bottle :Product</text>
<polygon fill="none" stroke="black" points="262,-3.5 262,-31.5 366,-31.5 366,-3.5 262,-3.5"/>
<text text-anchor="start" x="265" y="-20.5" font-family="Times New Roman,serif" font-size="10.00"> &#160;items = 24</text>
<text text-anchor="start" x="265" y="-9.5" font-family="Times New Roman,serif" font-size="10.00"> &#160;name = &quot;Veltins bottle&quot;</text>
</g>
<!-- store241&#45;&gt;veltins_bottle7 -->
<g id="edge6" class="edge"><title>store241&#45;&gt;veltins_bottle7</title>
<path fill="none" stroke="black" d="M310.475,-177.772C311.203,-146.722 312.596,-87.3387 313.396,-53.2564"/>
<text text-anchor="middle" x="294.896" y="-56.2564" font-family="Times New Roman,serif" font-size="10.00">products</text>
<text text-anchor="middle" x="310.475" y="-169.772" font-family="Times New Roman,serif" font-size="10.00">store</text>
</g>
<!-- dB_book8 -->
<g id="node8" class="node"><title>dB_book8</title>
<polygon fill="none" stroke="black" points="432,-120.5 432,-137.5 518,-137.5 518,-120.5 432,-120.5"/>
<text text-anchor="start" x="440" y="-127.5" font-family="Times New Roman,serif" text-decoration="underline" font-size="10.00">dB book :Product</text>
<polygon fill="none" stroke="black" points="432,-92.5 432,-120.5 518,-120.5 518,-92.5 432,-92.5"/>
<text text-anchor="start" x="435" y="-109.5" font-family="Times New Roman,serif" font-size="10.00"> &#160;items = 0</text>
<text text-anchor="start" x="435" y="-98.5" font-family="Times New Roman,serif" font-size="10.00"> &#160;name = &quot;DB book&quot;</text>
</g>
<!-- store241&#45;&gt;dB_book8 -->
<g id="edge7" class="edge"><title>store241&#45;&gt;dB_book8</title>
<path fill="none" stroke="black" d="M350.787,-177.854C372.831,-166.965 400.269,-153.413 423.745,-141.817"/>
<text text-anchor="middle" x="405.245" y="-144.817" font-family="Times New Roman,serif" font-size="10.00">products</text>
<text text-anchor="middle" x="361.287" y="-169.854" font-family="Times New Roman,serif" font-size="10.00">store</text>
</g>
<!-- rE_book9 -->
<g id="node9" class="node"><title>rE_book9</title>
<polygon fill="none" stroke="black" points="454,-31.5 454,-48.5 539,-48.5 539,-31.5 454,-31.5"/>
<text text-anchor="start" x="463" y="-38.5" font-family="Times New Roman,serif" text-decoration="underline" font-size="10.00">rE book :Product</text>
<polygon fill="none" stroke="black" points="454,-3.5 454,-31.5 539,-31.5 539,-3.5 454,-3.5"/>
<text text-anchor="start" x="457" y="-20.5" font-family="Times New Roman,serif" font-size="10.00"> &#160;items = 42</text>
<text text-anchor="start" x="457" y="-9.5" font-family="Times New Roman,serif" font-size="10.00"> &#160;name = &quot;RE book&quot;</text>
</g>
<!-- store241&#45;&gt;rE_book9 -->
<g id="edge8" class="edge"><title>store241&#45;&gt;rE_book9</title>
<path fill="none" stroke="black" d="M358.598,-192.841C418.067,-185.409 513.526,-169.474 535,-142 555.562,-115.693 535.538,-77.8947 517.411,-53.0279"/>
<text text-anchor="middle" x="498.911" y="-56.0279" font-family="Times New Roman,serif" font-size="10.00">products</text>
<text text-anchor="middle" x="369.098" y="-195.841" font-family="Times New Roman,serif" font-size="10.00">store</text>
</g>
<!-- albert10 -->
<g id="node10" class="node"><title>albert10</title>
<polygon fill="none" stroke="black" points="591,-120.5 591,-137.5 676,-137.5 676,-120.5 591,-120.5"/>
<text text-anchor="start" x="610.5" y="-127.5" font-family="Times New Roman,serif" text-decoration="underline" font-size="10.00">albert :User</text>
<polygon fill="none" stroke="black" points="591,-92.5 591,-120.5 676,-120.5 676,-92.5 591,-92.5"/>
<text text-anchor="start" x="594" y="-109.5" font-family="Times New Roman,serif" font-size="10.00"> &#160;name = &quot;Albert&quot;</text>
<text text-anchor="start" x="594" y="-98.5" font-family="Times New Roman,serif" font-size="10.00"> &#160;passwd = &quot;secret&quot;</text>
</g>
<!-- store241&#45;&gt;albert10 -->
<g id="edge9" class="edge"><title>store241&#45;&gt;albert10</title>
<path fill="none" stroke="black" d="M358.616,-189.85C410.926,-180.525 496.271,-163.702 568,-142 572.641,-140.596 577.419,-139.008 582.177,-137.328"/>
<text text-anchor="middle" x="573.177" y="-140.328" font-family="Times New Roman,serif" font-size="10.00">user</text>
<text text-anchor="middle" x="360.116" y="-181.85" font-family="Times New Roman,serif" font-size="10.00"> </text>
</g>
<!-- b422&#45;&gt;sDM_book5 -->
<g id="edge10" class="edge"><title>b422&#45;&gt;sDM_book5</title>
<path fill="none" stroke="black" d="M107.997,-94.3218C98.2827,-82.0738 85.7912,-66.3237 75.3756,-53.191"/>
<text text-anchor="middle" x="93.8756" y="-56.191" font-family="Times New Roman,serif" font-size="10.00">products</text>
<text text-anchor="middle" x="95.9966" y="-86.3218" font-family="Times New Roman,serif" font-size="10.00">board</text>
</g>
<!-- b422&#45;&gt;java_book6 -->
<g id="edge11" class="edge"><title>b422&#45;&gt;java_book6</title>
<path fill="none" stroke="black" d="M137.452,-94.3218C145.617,-82.0738 156.118,-66.3237 164.873,-53.191"/>
<text text-anchor="middle" x="183.373" y="-56.191" font-family="Times New Roman,serif" font-size="10.00">products</text>
<text text-anchor="middle" x="125.452" y="-86.3218" font-family="Times New Roman,serif" font-size="10.00">board</text>
</g>
<!-- b433&#45;&gt;veltins_bottle7 -->
<g id="edge12" class="edge"><title>b433&#45;&gt;veltins_bottle7</title>
<path fill="none" stroke="black" d="M263.308,-94.3218C272.599,-82.0738 284.548,-66.3237 294.51,-53.191"/>
<text text-anchor="middle" x="276.01" y="-56.191" font-family="Times New Roman,serif" font-size="10.00">products</text>
<text text-anchor="middle" x="251.308" y="-86.3218" font-family="Times New Roman,serif" font-size="10.00">board</text>
</g>
<!-- b454&#45;&gt;rE_book9 -->
<g id="edge13" class="edge"><title>b454&#45;&gt;rE_book9</title>
<path fill="none" stroke="black" d="M400.76,-94.3218C418.217,-82.0738 440.665,-66.3237 459.383,-53.191"/>
<text text-anchor="middle" x="440.883" y="-56.191" font-family="Times New Roman,serif" font-size="10.00">products</text>
<text text-anchor="middle" x="388.76" y="-86.3218" font-family="Times New Roman,serif" font-size="10.00">board</text>
</g>
</g>
</svg>
