<svg width="283px" height="316px"
 viewBox="0.00 0.00 283.19 316.00" xmlns="http://www.w3.org/2000/svg" xmlns:xlink="http://www.w3.org/1999/xlink">
<g id="graph0" class="graph" transform=" rotate(0) translate(4 312)">
<title>H</title>
<polygon fill="#ffffff" stroke="transparent" points="-4,4 -4,-312 279.1941,-312 279.1941,4 -4,4"/>
<!-- Assignment -->
<g id="node1" class="node">
<title>Assignment</title>
<polygon fill="none" stroke="#000000" points="28.3867,-288 28.3867,-304 85.3867,-304 85.3867,-288 28.3867,-288"/>
<text text-anchor="start" x="32.9976" y="-293" font-family="Times,serif" font-size="10.00" fill="#000000">Assignment</text>
<polygon fill="none" stroke="#000000" points="28.3867,-262 28.3867,-288 85.3867,-288 85.3867,-262 28.3867,-262"/>
<text text-anchor="start" x="31.3867" y="-277" font-family="Times,serif" font-size="10.00" fill="#000000">name :String</text>
<text text-anchor="start" x="31.3867" y="-267" font-family="Times,serif" font-size="10.00" fill="#000000">points :int</text>
</g>
<!-- Room -->
<g id="node2" class="node">
<title>Room</title>
<polygon fill="none" stroke="#000000" points="24.3867,-202 24.3867,-218 89.3867,-218 89.3867,-202 24.3867,-202"/>
<text text-anchor="start" x="44.6626" y="-207" font-family="Times,serif" font-size="10.00" fill="#000000">Room</text>
<polygon fill="none" stroke="#000000" points="24.3867,-176 24.3867,-202 89.3867,-202 89.3867,-176 24.3867,-176"/>
<text text-anchor="start" x="27.3867" y="-191" font-family="Times,serif" font-size="10.00" fill="#000000">topic :String</text>
<text text-anchor="start" x="27.3867" y="-181" font-family="Times,serif" font-size="10.00" fill="#000000">credits :double</text>
</g>
<!-- Room&#45;&gt;Assignment -->
<g id="edge1" class="edge">
<title>Room&#45;&gt;Assignment</title>
<path fill="none" stroke="#000000" d="M56.3867,-222.3377C56.3867,-233.5352 56.3867,-246.6669 56.3867,-257.8434"/>
<text text-anchor="middle" x="28.1934" y="-249.8434" font-family="Times,serif" font-size="10.00" fill="#000000">assignments *</text>
<text text-anchor="middle" x="45.8325" y="-224.3377" font-family="Times,serif" font-size="10.00" fill="#000000">room</text>
</g>
<!-- University -->
<g id="node3" class="node">
<title>University</title>
<polygon fill="none" stroke="#000000" points="28.3867,-116 28.3867,-132 85.3867,-132 85.3867,-116 28.3867,-116"/>
<text text-anchor="start" x="35.7783" y="-121" font-family="Times,serif" font-size="10.00" fill="#000000">University</text>
<polygon fill="none" stroke="#000000" points="28.3867,-100 28.3867,-116 85.3867,-116 85.3867,-100 28.3867,-100"/>
<text text-anchor="start" x="31.3867" y="-105" font-family="Times,serif" font-size="10.00" fill="#000000">name :String</text>
</g>
<!-- University&#45;&gt;Room -->
<g id="edge2" class="edge">
<title>University&#45;&gt;Room</title>
<path fill="none" stroke="#000000" d="M56.3867,-136.0225C56.3867,-146.8913 56.3867,-160.4303 56.3867,-171.988"/>
<text text-anchor="middle" x="40.1367" y="-163.988" font-family="Times,serif" font-size="10.00" fill="#000000">rooms *</text>
<text text-anchor="middle" x="49.9976" y="-138.0225" font-family="Times,serif" font-size="10.00" fill="#000000">uni</text>
</g>
<!-- Student -->
<g id="node4" class="node">
<title>Student</title>
<polygon fill="none" stroke="#000000" points="20.3867,-35 20.3867,-51 92.3867,-51 92.3867,-35 20.3867,-35"/>
<text text-anchor="start" x="41.1084" y="-40" font-family="Times,serif" font-size="10.00" fill="#000000">Student</text>
<polygon fill="none" stroke="#000000" points="20.3867,-9 20.3867,-35 92.3867,-35 92.3867,-9 20.3867,-9"/>
<text text-anchor="start" x="23.3867" y="-24" font-family="Times,serif" font-size="10.00" fill="#000000">name :String</text>
<text text-anchor="start" x="23.3867" y="-14" font-family="Times,serif" font-size="10.00" fill="#000000">studentId :String</text>
</g>
<!-- Student&#45;&gt;University -->
<g id="edge3" class="edge">
<title>Student&#45;&gt;University</title>
<path fill="none" stroke="#000000" d="M56.3867,-55.3377C56.3867,-68.2198 56.3867,-83.6617 56.3867,-95.7417"/>
<text text-anchor="middle" x="49.9976" y="-87.7417" font-family="Times,serif" font-size="10.00" fill="#000000">uni</text>
<text text-anchor="middle" x="36.2476" y="-57.3377" font-family="Times,serif" font-size="10.00" fill="#000000">students *</text>
</g>
<!-- PatternObject -->
<g id="node5" class="node">
<title>PatternObject</title>
<polygon fill="none" stroke="#000000" points="127.3867,-40 127.3867,-56 242.3867,-56 242.3867,-40 127.3867,-40"/>
<text text-anchor="start" x="157.3965" y="-45" font-family="Times,serif" font-size="10.00" fill="#000000">PatternObject</text>
<polygon fill="none" stroke="#000000" points="127.3867,-4 127.3867,-40 242.3867,-40 242.3867,-4 127.3867,-4"/>
<text text-anchor="start" x="130.3867" y="-29" font-family="Times,serif" font-size="10.00" fill="#000000">name :String</text>
<text text-anchor="start" x="130.3867" y="-19" font-family="Times,serif" font-size="10.00" fill="#000000">students :PatternObject</text>
<text text-anchor="start" x="130.3867" y="-9" font-family="Times,serif" font-size="10.00" fill="#000000">assignments :PatternObject</text>
</g>
<!-- PatternObject&#45;&gt;PatternObject -->
<g id="edge4" class="edge">
<title>PatternObject&#45;&gt;PatternObject</title>
<path fill="none" stroke="#000000" d="M250.1941,-15.1505C260.6973,-17.3236 267.8867,-22.2734 267.8867,-30 267.8867,-37.7266 260.6973,-42.6764 250.1941,-44.8495"/>
<text text-anchor="middle" x="256.5833" y="-36.8495" font-family="Times,serif" font-size="10.00" fill="#000000">uni</text>
<text text-anchor="middle" x="262.6941" y="-7.1505" font-family="Times,serif" font-size="10.00" fill="#000000">rooms</text>
</g>
<!-- ModelPattern -->
<g id="node6" class="node">
<title>ModelPattern</title>
<polygon fill="none" stroke="#000000" points="154.3867,-111 154.3867,-127 214.3867,-127 214.3867,-111 154.3867,-111"/>
<text text-anchor="start" x="157.1699" y="-116" font-family="Times,serif" font-size="10.00" fill="#000000">ModelPattern</text>
<polygon fill="none" stroke="#000000" points="154.3867,-105 154.3867,-111 214.3867,-111 214.3867,-105 154.3867,-105"/>
</g>
<!-- PatternObject&#45;&gt;ModelPattern -->
<g id="edge5" class="edge">
<title>PatternObject&#45;&gt;ModelPattern</title>
<path fill="none" stroke="#000000" d="M184.3867,-60.0786C184.3867,-72.6723 184.3867,-86.8962 184.3867,-97.847"/>
<text text-anchor="middle" x="166.4741" y="-62.0786" font-family="Times,serif" font-size="10.00" fill="#000000">objects *</text>
</g>
</g>
</svg>
