<svg width="286pt" height="328pt"
 viewBox="0.00 0.00 286.20 328.00" xmlns="http://www.w3.org/2000/svg" xmlns:xlink="http://www.w3.org/1999/xlink">
<g id="graph0" class="graph" transform="scale(1 1) rotate(0) translate(4 324)">
<title>H</title>
<polygon fill="white" stroke="none" points="-4,4 -4,-324 282.201,-324 282.201,4 -4,4"/>
<!-- Assignment -->
<g id="node1" class="node"><title>Assignment</title>
<polygon fill="none" stroke="black" points="30,-298.5 30,-315.5 86,-315.5 86,-298.5 30,-298.5"/>
<text text-anchor="start" x="33.5" y="-304.5" font-family="Times New Roman,serif" font-size="10.00">Assignment</text>
<polygon fill="none" stroke="black" points="30,-270.5 30,-298.5 86,-298.5 86,-270.5 30,-270.5"/>
<text text-anchor="start" x="33" y="-287.5" font-family="Times New Roman,serif" font-size="10.00">name :String</text>
<text text-anchor="start" x="33" y="-276.5" font-family="Times New Roman,serif" font-size="10.00">points :int</text>
</g>
<!-- Room -->
<g id="node2" class="node"><title>Room</title>
<polygon fill="none" stroke="black" points="25,-209.5 25,-226.5 91,-226.5 91,-209.5 25,-209.5"/>
<text text-anchor="start" x="46" y="-215.5" font-family="Times New Roman,serif" font-size="10.00">Room</text>
<polygon fill="none" stroke="black" points="25,-181.5 25,-209.5 91,-209.5 91,-181.5 25,-181.5"/>
<text text-anchor="start" x="28" y="-198.5" font-family="Times New Roman,serif" font-size="10.00">topic :String</text>
<text text-anchor="start" x="28" y="-187.5" font-family="Times New Roman,serif" font-size="10.00">credits :double</text>
</g>
<!-- Room&#45;&gt;Assignment -->
<g id="edge1" class="edge"><title>Room&#45;&gt;Assignment</title>
<path fill="none" stroke="black" d="M58,-231.132C58,-242.36 58,-255.509 58,-266.75"/>
<text text-anchor="middle" x="29" y="-258.75" font-family="Times New Roman,serif" font-size="10.00">assignments *</text>
<text text-anchor="middle" x="47.5" y="-234.132" font-family="Times New Roman,serif" font-size="10.00">room</text>
</g>
<!-- University -->
<g id="node3" class="node"><title>University</title>
<polygon fill="none" stroke="black" points="30,-121 30,-138 86,-138 86,-121 30,-121"/>
<text text-anchor="start" x="36.5" y="-127" font-family="Times New Roman,serif" font-size="10.00">University</text>
<polygon fill="none" stroke="black" points="30,-104 30,-121 86,-121 86,-104 30,-104"/>
<text text-anchor="start" x="33" y="-110" font-family="Times New Roman,serif" font-size="10.00">name :String</text>
</g>
<!-- University&#45;&gt;Room -->
<g id="edge2" class="edge"><title>University&#45;&gt;Room</title>
<path fill="none" stroke="black" d="M58,-142.146C58,-152.893 58,-166.236 58,-177.73"/>
<text text-anchor="middle" x="41.5" y="-169.73" font-family="Times New Roman,serif" font-size="10.00">rooms *</text>
<text text-anchor="middle" x="51.5" y="-145.146" font-family="Times New Roman,serif" font-size="10.00">uni</text>
</g>
<!-- Student -->
<g id="node4" class="node"><title>Student</title>
<polygon fill="none" stroke="black" points="21,-37 21,-54 95,-54 95,-37 21,-37"/>
<text text-anchor="start" x="42" y="-43" font-family="Times New Roman,serif" font-size="10.00">Student</text>
<polygon fill="none" stroke="black" points="21,-9 21,-37 95,-37 95,-9 21,-9"/>
<text text-anchor="start" x="24" y="-26" font-family="Times New Roman,serif" font-size="10.00">name :String</text>
<text text-anchor="start" x="24" y="-15" font-family="Times New Roman,serif" font-size="10.00">studentId :String</text>
</g>
<!-- Student&#45;&gt;University -->
<g id="edge3" class="edge"><title>Student&#45;&gt;University</title>
<path fill="none" stroke="black" d="M58,-58.6323C58,-71.7645 58,-87.5262 58,-99.7875"/>
<text text-anchor="middle" x="51.5" y="-91.7875" font-family="Times New Roman,serif" font-size="10.00">uni</text>
<text text-anchor="middle" x="36.5" y="-61.6323" font-family="Times New Roman,serif" font-size="10.00">students *</text>
</g>
<!-- PatternObject -->
<g id="node5" class="node"><title>PatternObject</title>
<polygon fill="none" stroke="black" points="129,-43 129,-60 245,-60 245,-43 129,-43"/>
<text text-anchor="start" x="159.5" y="-49" font-family="Times New Roman,serif" font-size="10.00">PatternObject</text>
<polygon fill="none" stroke="black" points="129,-4 129,-43 245,-43 245,-4 129,-4"/>
<text text-anchor="start" x="132" y="-32" font-family="Times New Roman,serif" font-size="10.00">name :String</text>
<text text-anchor="start" x="132" y="-21" font-family="Times New Roman,serif" font-size="10.00">students :PatternObject</text>
<text text-anchor="start" x="132" y="-10" font-family="Times New Roman,serif" font-size="10.00">assignments :PatternObject</text>
</g>
<!-- PatternObject&#45;&gt;PatternObject -->
<g id="edge4" class="edge"><title>PatternObject&#45;&gt;PatternObject</title>
<path fill="none" stroke="black" d="M253.201,-16.8052C263.768,-19.0288 271,-24.0938 271,-32 271,-39.9063 263.768,-44.9712 253.201,-47.1948"/>
<text text-anchor="middle" x="259.701" y="-39.1948" font-family="Times New Roman,serif" font-size="10.00">uni</text>
<text text-anchor="middle" x="265.701" y="-8.80518" font-family="Times New Roman,serif" font-size="10.00">rooms</text>
</g>
<!-- ModelPattern -->
<g id="node6" class="node"><title>ModelPattern</title>
<polygon fill="none" stroke="black" points="157,-115 157,-132 218,-132 218,-115 157,-115"/>
<text text-anchor="start" x="160" y="-121" font-family="Times New Roman,serif" font-size="10.00">ModelPattern</text>
<polygon fill="none" stroke="black" points="157,-109 157,-115 218,-115 218,-109 157,-109"/>
</g>
<!-- PatternObject&#45;&gt;ModelPattern -->
<g id="edge5" class="edge"><title>PatternObject&#45;&gt;ModelPattern</title>
<path fill="none" stroke="black" d="M187,-64.409C187,-77.2584 187,-91.6368 187,-102.551"/>
<text text-anchor="middle" x="168.5" y="-67.409" font-family="Times New Roman,serif" font-size="10.00">objects *</text>
</g>
</g>
</svg>
