<svg width="429px" height="228px"
 viewBox="0.00 0.00 428.86 228.00" xmlns="http://www.w3.org/2000/svg" xmlns:xlink="http://www.w3.org/1999/xlink">
<g id="graph0" class="graph" transform="scale(0.7500187504687618 0.7500187504687618) rotate(0) translate(4 224)">
<title>H</title>
<polygon fill="white" stroke="none" points="-4,4 -4,-224 424.857,-224 424.857,4 -4,4"/>
<!-- Storage -->
<g id="node1" class="node"><title>Storage</title>
<polygon fill="none" stroke="black" points="21.8568,-199 21.8568,-216 77.8568,-216 77.8568,-199 21.8568,-199"/>
<text text-anchor="start" x="34.3568" y="-205" font-family="Times New Roman,serif" font-size="10.00">Storage</text>
<polygon fill="none" stroke="black" points="21.8568,-182 21.8568,-199 77.8568,-199 77.8568,-182 21.8568,-182"/>
<text text-anchor="start" x="24.8568" y="-188" font-family="Times New Roman,serif" font-size="10.00">name :String</text>
</g>
<!-- Board -->
<g id="node2" class="node"><title>Board</title>
<polygon fill="none" stroke="black" points="59.8568,-121 59.8568,-138 102.857,-138 102.857,-121 59.8568,-121"/>
<text text-anchor="start" x="68.8568" y="-127" font-family="Times New Roman,serif" font-size="10.00">Board</text>
<polygon fill="none" stroke="black" points="59.8568,-104 59.8568,-121 102.857,-121 102.857,-104 59.8568,-104"/>
<text text-anchor="start" x="62.8568" y="-110" font-family="Times New Roman,serif" font-size="10.00">id :String</text>
</g>
<!-- Board&#45;&gt;Storage -->
<g id="edge1" class="edge"><title>Board&#45;&gt;Storage</title>
<path fill="none" stroke="black" d="M72.5494,-142.367C68.0657,-153.359 62.5503,-166.881 58.0797,-177.841"/>
<text text-anchor="middle" x="47.5797" y="-169.841" font-family="Times New Roman,serif" font-size="10.00">store</text>
<text text-anchor="middle" x="54.5494" y="-145.367" font-family="Times New Roman,serif" font-size="10.00">boards *</text>
</g>
<!-- Product -->
<g id="node3" class="node"><title>Product</title>
<polygon fill="none" stroke="black" points="18.8568,-37 18.8568,-54 74.8568,-54 74.8568,-37 18.8568,-37"/>
<text text-anchor="start" x="30.8568" y="-43" font-family="Times New Roman,serif" font-size="10.00">Product</text>
<polygon fill="none" stroke="black" points="18.8568,-9 18.8568,-37 74.8568,-37 74.8568,-9 18.8568,-9"/>
<text text-anchor="start" x="21.8568" y="-26" font-family="Times New Roman,serif" font-size="10.00">name :String</text>
<text text-anchor="start" x="21.8568" y="-15" font-family="Times New Roman,serif" font-size="10.00">items :String</text>
</g>
<!-- Product&#45;&gt;Storage -->
<g id="edge2" class="edge"><title>Product&#45;&gt;Storage</title>
<path fill="none" stroke="black" d="M44,-58.5686C41.933,-80.6714 39.829,-113.467 41.8568,-142 42.7062,-153.951 44.5629,-167.23 46.2739,-177.856"/>
<text text-anchor="middle" x="35.7739" y="-169.856" font-family="Times New Roman,serif" font-size="10.00">store</text>
<text text-anchor="middle" x="22" y="-61.5686" font-family="Times New Roman,serif" font-size="10.00">products *</text>
</g>
<!-- Product&#45;&gt;Board -->
<g id="edge3" class="edge"><title>Product&#45;&gt;Board</title>
<path fill="none" stroke="black" d="M56.874,-58.6323C62.0061,-71.7645 68.1659,-87.5262 72.9577,-99.7875"/>
<text text-anchor="middle" x="60.9577" y="-91.7875" font-family="Times New Roman,serif" font-size="10.00">board</text>
<text text-anchor="middle" x="78.874" y="-61.6323" font-family="Times New Roman,serif" font-size="10.00">products *</text>
</g>
<!-- Table -->
<g id="node4" class="node"><title>Table</title>
<polygon fill="none" stroke="black" points="139.857,-199 139.857,-216 182.857,-216 182.857,-199 139.857,-199"/>
<text text-anchor="start" x="149.857" y="-205" font-family="Times New Roman,serif" font-size="10.00">Table</text>
<polygon fill="none" stroke="black" points="139.857,-182 139.857,-199 182.857,-199 182.857,-182 139.857,-182"/>
<text text-anchor="start" x="142.857" y="-188" font-family="Times New Roman,serif" font-size="10.00">id :String</text>
</g>
<!-- Column -->
<g id="node5" class="node"><title>Column</title>
<polygon fill="none" stroke="black" points="139.857,-121 139.857,-138 182.857,-138 182.857,-121 139.857,-121"/>
<text text-anchor="start" x="145.857" y="-127" font-family="Times New Roman,serif" font-size="10.00">Column</text>
<polygon fill="none" stroke="black" points="139.857,-104 139.857,-121 182.857,-121 182.857,-104 139.857,-104"/>
<text text-anchor="start" x="142.857" y="-110" font-family="Times New Roman,serif" font-size="10.00">id :String</text>
</g>
<!-- Column&#45;&gt;Table -->
<g id="edge4" class="edge"><title>Column&#45;&gt;Table</title>
<path fill="none" stroke="black" d="M160.857,-142.367C160.857,-153.359 160.857,-166.881 160.857,-177.841"/>
<text text-anchor="middle" x="139.857" y="-145.367" font-family="Times New Roman,serif" font-size="10.00">columns *</text>
</g>
<!-- ShopApp -->
<g id="node6" class="node"><title>ShopApp</title>
<polygon fill="none" stroke="black" points="218.857,-43 218.857,-60 298.857,-60 298.857,-43 218.857,-43"/>
<text text-anchor="start" x="238.857" y="-49" font-family="Times New Roman,serif" font-size="10.00">ShopApp</text>
<polygon fill="none" stroke="black" points="218.857,-4 218.857,-43 298.857,-43 298.857,-4 218.857,-4"/>
<text text-anchor="start" x="221.857" y="-32" font-family="Times New Roman,serif" font-size="10.00">id :String</text>
<text text-anchor="start" x="221.857" y="-21" font-family="Times New Roman,serif" font-size="10.00">description :String</text>
<text text-anchor="start" x="221.857" y="-10" font-family="Times New Roman,serif" font-size="10.00">content :Page</text>
</g>
<!-- Page -->
<g id="node7" class="node"><title>Page</title>
<polygon fill="none" stroke="black" points="332.857,-43 332.857,-60 412.857,-60 412.857,-43 332.857,-43"/>
<text text-anchor="start" x="362.857" y="-49" font-family="Times New Roman,serif" font-size="10.00">Page</text>
<polygon fill="none" stroke="black" points="332.857,-4 332.857,-43 412.857,-43 412.857,-4 332.857,-4"/>
<text text-anchor="start" x="335.857" y="-32" font-family="Times New Roman,serif" font-size="10.00">id :String</text>
<text text-anchor="start" x="335.857" y="-21" font-family="Times New Roman,serif" font-size="10.00">description :String</text>
<text text-anchor="start" x="335.857" y="-10" font-family="Times New Roman,serif" font-size="10.00">content :Table</text>
</g>
<!-- String -->
<g id="node8" class="node"><title>String</title>
<ellipse fill="none" stroke="black" cx="160.857" cy="-32" rx="32.4942" ry="18"/>
<text text-anchor="middle" x="160.857" y="-28.3" font-family="Times New Roman,serif" font-size="14.00">String</text>
</g>
<!-- String&#45;&gt;Column -->
<g id="edge5" class="edge"><title>String&#45;&gt;Column</title>
<path fill="none" stroke="black" d="M160.857,-50.1884C160.857,-64.4503 160.857,-84.7564 160.857,-99.7944"/>
<text text-anchor="middle" x="147.857" y="-53.1884" font-family="Times New Roman,serif" font-size="10.00">cells *</text>
</g>
</g>
</svg>
