<?xml version="1.0" encoding="UTF-8" standalone="no"?>
<!DOCTYPE svg PUBLIC "-//W3C//DTD SVG 1.1//EN"
 "http://www.w3.org/Graphics/SVG/1.1/DTD/svg11.dtd">
<!-- Generated by graphviz version 2.38.0 (20140413.2041)
 -->
<!-- Title: H Pages: 1 -->
<svg width="555px" height="462px"
 viewBox="0.00 0.00 554.50 462.00" xmlns="http://www.w3.org/2000/svg" xmlns:xlink="http://www.w3.org/1999/xlink">
<g id="graph0" class="graph" transform="scale(0.7500187504687618 0.7500187504687618) rotate(0) translate(4 458)">
<title>H</title>
<polygon fill="white" stroke="none" points="-4,4 -4,-458 550.5,-458 550.5,4 -4,4"/>
<!-- mondayArrival1 -->
<g id="node1" class="node"><title>mondayArrival1</title>
<polygon fill="none" stroke="black" points="301,-433 301,-450 400,-450 400,-433 301,-433"/>
<text text-anchor="start" x="304" y="-440" font-family="Times New Roman,serif" text-decoration="underline" font-size="10.00">mondayArrival :Arrival</text>
<polygon fill="none" stroke="black" points="301,-416 301,-433 400,-433 400,-416 301,-416"/>
<text text-anchor="start" x="305" y="-422" font-family="Times New Roman,serif" font-size="10.00"> &#160;id = &quot;mondayArrival&quot;</text>
</g>
<!-- eu1002 -->
<g id="node2" class="node"><title>eu1002</title>
<polygon fill="none" stroke="black" points="163,-355 163,-372 231,-372 231,-355 163,-355"/>
<text text-anchor="start" x="169.5" y="-362" font-family="Times New Roman,serif" text-decoration="underline" font-size="10.00">eu100 :Palette</text>
<polygon fill="none" stroke="black" points="163,-316 163,-355 231,-355 231,-316 163,-316"/>
<text text-anchor="start" x="166" y="-344" font-family="Times New Roman,serif" font-size="10.00"> &#160;id = &quot;eu100&quot;</text>
<text text-anchor="start" x="166" y="-333" font-family="Times New Roman,serif" font-size="10.00"> &#160;items = null</text>
<text text-anchor="start" x="166" y="-322" font-family="Times New Roman,serif" font-size="10.00"> &#160;quantity = 100</text>
</g>
<!-- mondayArrival1&#45;&gt;eu1002 -->
<g id="edge1" class="edge"><title>mondayArrival1&#45;&gt;eu1002</title>
<path fill="none" stroke="black" d="M312.476,-411.911C293.107,-401.413 269.163,-388.233 248,-376 245.129,-374.341 242.18,-372.612 239.215,-370.857"/>
<text text-anchor="middle" x="255.215" y="-373.857" font-family="Times New Roman,serif" font-size="10.00">palettes</text>
<text text-anchor="middle" x="310.976" y="-403.911" font-family="Times New Roman,serif" font-size="10.00"> </text>
</g>
<!-- eu2003 -->
<g id="node3" class="node"><title>eu2003</title>
<polygon fill="none" stroke="black" points="265,-355 265,-372 333,-372 333,-355 265,-355"/>
<text text-anchor="start" x="271.5" y="-362" font-family="Times New Roman,serif" text-decoration="underline" font-size="10.00">eu200 :Palette</text>
<polygon fill="none" stroke="black" points="265,-316 265,-355 333,-355 333,-316 265,-316"/>
<text text-anchor="start" x="268" y="-344" font-family="Times New Roman,serif" font-size="10.00"> &#160;id = &quot;eu200&quot;</text>
<text text-anchor="start" x="268" y="-333" font-family="Times New Roman,serif" font-size="10.00"> &#160;items = null</text>
<text text-anchor="start" x="268" y="-322" font-family="Times New Roman,serif" font-size="10.00"> &#160;quantity = 150</text>
</g>
<!-- mondayArrival1&#45;&gt;eu2003 -->
<g id="edge2" class="edge"><title>mondayArrival1&#45;&gt;eu2003</title>
<path fill="none" stroke="black" d="M338.171,-411.822C331.992,-401.28 324.292,-388.145 317.358,-376.317"/>
<text text-anchor="middle" x="301.358" y="-379.317" font-family="Times New Roman,serif" font-size="10.00">palettes</text>
<text text-anchor="middle" x="336.671" y="-403.822" font-family="Times New Roman,serif" font-size="10.00"> </text>
</g>
<!-- eu3334 -->
<g id="node4" class="node"><title>eu3334</title>
<polygon fill="none" stroke="black" points="367,-355 367,-372 435,-372 435,-355 367,-355"/>
<text text-anchor="start" x="373.5" y="-362" font-family="Times New Roman,serif" text-decoration="underline" font-size="10.00">eu333 :Palette</text>
<polygon fill="none" stroke="black" points="367,-316 367,-355 435,-355 435,-316 367,-316"/>
<text text-anchor="start" x="370" y="-344" font-family="Times New Roman,serif" font-size="10.00"> &#160;id = &quot;eu333&quot;</text>
<text text-anchor="start" x="370" y="-333" font-family="Times New Roman,serif" font-size="10.00"> &#160;items = null</text>
<text text-anchor="start" x="370" y="-322" font-family="Times New Roman,serif" font-size="10.00"> &#160;quantity = 150</text>
</g>
<!-- mondayArrival1&#45;&gt;eu3334 -->
<g id="edge3" class="edge"><title>mondayArrival1&#45;&gt;eu3334</title>
<path fill="none" stroke="black" d="M361.829,-411.822C368.008,-401.28 375.708,-388.145 382.642,-376.317"/>
<text text-anchor="middle" x="366.642" y="-379.317" font-family="Times New Roman,serif" font-size="10.00">palettes</text>
<text text-anchor="middle" x="360.329" y="-403.822" font-family="Times New Roman,serif" font-size="10.00"> </text>
</g>
<!-- italy5 -->
<g id="node5" class="node"><title>italy5</title>
<polygon fill="none" stroke="black" points="470,-344 470,-361 539,-361 539,-344 470,-344"/>
<text text-anchor="start" x="475.5" y="-351" font-family="Times New Roman,serif" text-decoration="underline" font-size="10.00">italy :Producer</text>
<polygon fill="none" stroke="black" points="470,-327 470,-344 539,-344 539,-327 470,-327"/>
<text text-anchor="start" x="473" y="-333" font-family="Times New Roman,serif" font-size="10.00"> &#160;name = &quot;Italy&quot;</text>
</g>
<!-- mondayArrival1&#45;&gt;italy5 -->
<g id="edge4" class="edge"><title>mondayArrival1&#45;&gt;italy5</title>
<path fill="none" stroke="black" d="M387.48,-411.835C406.838,-401.317 430.785,-388.142 452,-376 458.112,-372.502 464.586,-368.712 470.815,-365.021"/>
<text text-anchor="middle" x="489.315" y="-368.021" font-family="Times New Roman,serif" font-size="10.00">producer</text>
<text text-anchor="middle" x="385.98" y="-403.835" font-family="Times New Roman,serif" font-size="10.00"> </text>
</g>
<!-- f26 -->
<g id="node6" class="node"><title>f26</title>
<polygon fill="none" stroke="black" points="99,-177 99,-194 157,-194 157,-177 99,-177"/>
<text text-anchor="start" x="111" y="-184" font-family="Times New Roman,serif" text-decoration="underline" font-size="10.00">f2 :Place</text>
<polygon fill="none" stroke="black" points="99,-160 99,-177 157,-177 157,-160 99,-160"/>
<text text-anchor="start" x="102" y="-166" font-family="Times New Roman,serif" font-size="10.00"> &#160;name = &quot;f2&quot;</text>
</g>
<!-- eu1002&#45;&gt;f26 -->
<g id="edge5" class="edge"><title>eu1002&#45;&gt;f26</title>
<path fill="none" stroke="black" d="M169.162,-311.795C160.899,-301.088 152.576,-288.611 147,-276 135.787,-250.639 131.168,-218.698 129.281,-198.309"/>
<text text-anchor="middle" x="118.281" y="-201.309" font-family="Times New Roman,serif" font-size="10.00">place</text>
<text text-anchor="middle" x="155.162" y="-303.795" font-family="Times New Roman,serif" font-size="10.00">palette</text>
</g>
<!-- nike_Airs7 -->
<g id="node7" class="node"><title>nike_Airs7</title>
<polygon fill="none" stroke="black" points="164,-255 164,-272 252,-272 252,-255 164,-255"/>
<text text-anchor="start" x="171.5" y="-262" font-family="Times New Roman,serif" text-decoration="underline" font-size="10.00">nike Airs :Product</text>
<polygon fill="none" stroke="black" points="164,-238 164,-255 252,-255 252,-238 164,-238"/>
<text text-anchor="start" x="167" y="-244" font-family="Times New Roman,serif" font-size="10.00"> &#160;name = &quot;Nike Airs&quot;</text>
</g>
<!-- eu1002&#45;&gt;nike_Airs7 -->
<g id="edge6" class="edge"><title>eu1002&#45;&gt;nike_Airs7</title>
<path fill="none" stroke="black" d="M200.971,-311.591C202.461,-299.812 204.112,-286.749 205.44,-276.247"/>
<text text-anchor="middle" x="189.44" y="-279.247" font-family="Times New Roman,serif" font-size="10.00">product</text>
<text text-anchor="middle" x="216.971" y="-303.591" font-family="Times New Roman,serif" font-size="10.00">palettes</text>
</g>
<!-- high_Heels8 -->
<g id="node8" class="node"><title>high_Heels8</title>
<polygon fill="none" stroke="black" points="325,-255 325,-272 420,-272 420,-255 325,-255"/>
<text text-anchor="start" x="333" y="-262" font-family="Times New Roman,serif" text-decoration="underline" font-size="10.00">high Heels :Product</text>
<polygon fill="none" stroke="black" points="325,-238 325,-255 420,-255 420,-238 325,-238"/>
<text text-anchor="start" x="328" y="-244" font-family="Times New Roman,serif" font-size="10.00"> &#160;name = &quot;High Heels&quot;</text>
</g>
<!-- eu2003&#45;&gt;high_Heels8 -->
<g id="edge7" class="edge"><title>eu2003&#45;&gt;high_Heels8</title>
<path fill="none" stroke="black" d="M325.355,-311.591C335.238,-299.812 346.199,-286.749 355.011,-276.247"/>
<text text-anchor="middle" x="339.011" y="-279.247" font-family="Times New Roman,serif" font-size="10.00">product</text>
<text text-anchor="middle" x="309.355" y="-303.591" font-family="Times New Roman,serif" font-size="10.00">palettes</text>
</g>
<!-- w9 -->
<g id="node9" class="node"><title>w9</title>
<polygon fill="none" stroke="black" points="254,-171 254,-188 323,-188 323,-171 254,-171"/>
<text text-anchor="start" x="257" y="-178" font-family="Times New Roman,serif" text-decoration="underline" font-size="10.00">w9 :Warehouse</text>
<polygon fill="none" stroke="black" points="254,-165 254,-171 323,-171 323,-165 254,-165"/>
</g>
<!-- eu2003&#45;&gt;w9 -->
<g id="edge8" class="edge"><title>eu2003&#45;&gt;w9</title>
<path fill="none" stroke="black" d="M296.931,-311.965C294.628,-277.424 290.99,-222.845 289.148,-195.227"/>
<text text-anchor="middle" x="279.148" y="-198.227" font-family="Times New Roman,serif" font-size="10.00">ramp</text>
<text text-anchor="middle" x="281.431" y="-303.965" font-family="Times New Roman,serif" font-size="10.00">atRamp</text>
</g>
<!-- eu3334&#45;&gt;high_Heels8 -->
<g id="edge9" class="edge"><title>eu3334&#45;&gt;high_Heels8</title>
<path fill="none" stroke="black" d="M390.53,-311.591C386.604,-299.812 382.25,-286.749 378.749,-276.247"/>
<text text-anchor="middle" x="394.749" y="-279.247" font-family="Times New Roman,serif" font-size="10.00">product</text>
<text text-anchor="middle" x="374.53" y="-303.591" font-family="Times New Roman,serif" font-size="10.00">palettes</text>
</g>
<!-- eu3334&#45;&gt;w9 -->
<g id="edge10" class="edge"><title>eu3334&#45;&gt;w9</title>
<path fill="none" stroke="black" d="M425.334,-311.731C440.09,-288.695 453.224,-257.43 437,-234 413.244,-199.694 365.673,-186.375 330.647,-181.22"/>
<text text-anchor="middle" x="340.647" y="-184.22" font-family="Times New Roman,serif" font-size="10.00">ramp</text>
<text text-anchor="middle" x="409.834" y="-303.731" font-family="Times New Roman,serif" font-size="10.00">atRamp</text>
</g>
<!-- fast_area10 -->
<g id="node10" class="node"><title>fast_area10</title>
<polygon fill="none" stroke="black" points="86,-99 86,-116 171,-116 171,-99 86,-99"/>
<text text-anchor="start" x="99.5" y="-106" font-family="Times New Roman,serif" text-decoration="underline" font-size="10.00">fast area :Area</text>
<polygon fill="none" stroke="black" points="86,-82 86,-99 171,-99 171,-82 86,-82"/>
<text text-anchor="start" x="89" y="-88" font-family="Times New Roman,serif" font-size="10.00"> &#160;name = &quot;fast area&quot;</text>
</g>
<!-- f26&#45;&gt;fast_area10 -->
<g id="edge11" class="edge"><title>f26&#45;&gt;fast_area10</title>
<path fill="none" stroke="black" d="M128,-155.633C128,-144.641 128,-131.119 128,-120.159"/>
<text text-anchor="middle" x="119.5" y="-123.159" font-family="Times New Roman,serif" font-size="10.00">area</text>
<text text-anchor="middle" x="115" y="-147.633" font-family="Times New Roman,serif" font-size="10.00">places</text>
</g>
<!-- nike_Airs7&#45;&gt;w9 -->
<g id="edge12" class="edge"><title>nike_Airs7&#45;&gt;w9</title>
<path fill="none" stroke="black" d="M229.439,-233.633C242.12,-221.586 258,-206.5 270.023,-195.078"/>
<text text-anchor="middle" x="248.023" y="-198.078" font-family="Times New Roman,serif" font-size="10.00">warehouse</text>
<text text-anchor="middle" x="210.939" y="-225.633" font-family="Times New Roman,serif" font-size="10.00">products</text>
</g>
<!-- high_Heels8&#45;&gt;w9 -->
<g id="edge13" class="edge"><title>high_Heels8&#45;&gt;w9</title>
<path fill="none" stroke="black" d="M349.49,-233.633C336.174,-221.586 319.5,-206.5 306.876,-195.078"/>
<text text-anchor="middle" x="328.876" y="-198.078" font-family="Times New Roman,serif" font-size="10.00">warehouse</text>
<text text-anchor="middle" x="330.99" y="-225.633" font-family="Times New Roman,serif" font-size="10.00">products</text>
</g>
<!-- w9&#45;&gt;fast_area10 -->
<g id="edge14" class="edge"><title>w9&#45;&gt;fast_area10</title>
<path fill="none" stroke="black" d="M252.093,-158.944C227.861,-147.434 195.781,-132.196 170.309,-120.097"/>
<text text-anchor="middle" x="159.309" y="-123.097" font-family="Times New Roman,serif" font-size="10.00">areas</text>
<text text-anchor="middle" x="230.093" y="-150.944" font-family="Times New Roman,serif" font-size="10.00">warehouse</text>
</g>
<!-- middle_area11 -->
<g id="node11" class="node"><title>middle_area11</title>
<polygon fill="none" stroke="black" points="240,-99 240,-116 336,-116 336,-99 240,-99"/>
<text text-anchor="start" x="253" y="-106" font-family="Times New Roman,serif" text-decoration="underline" font-size="10.00">middle area :Area</text>
<polygon fill="none" stroke="black" points="240,-82 240,-99 336,-99 336,-82 240,-82"/>
<text text-anchor="start" x="243" y="-88" font-family="Times New Roman,serif" font-size="10.00"> &#160;name = &quot;middle area&quot;</text>
</g>
<!-- w9&#45;&gt;middle_area11 -->
<g id="edge15" class="edge"><title>w9&#45;&gt;middle_area11</title>
<path fill="none" stroke="black" d="M288,-158.754C288,-147.28 288,-132.164 288,-120.138"/>
<text text-anchor="middle" x="277" y="-123.138" font-family="Times New Roman,serif" font-size="10.00">areas</text>
<text text-anchor="middle" x="310" y="-150.754" font-family="Times New Roman,serif" font-size="10.00">warehouse</text>
</g>
<!-- slow_area12 -->
<g id="node12" class="node"><title>slow_area12</title>
<polygon fill="none" stroke="black" points="370,-99 370,-116 458,-116 458,-99 370,-99"/>
<text text-anchor="start" x="383" y="-106" font-family="Times New Roman,serif" text-decoration="underline" font-size="10.00">slow area :Area</text>
<polygon fill="none" stroke="black" points="370,-82 370,-99 458,-99 458,-82 370,-82"/>
<text text-anchor="start" x="373" y="-88" font-family="Times New Roman,serif" font-size="10.00"> &#160;name = &quot;slow area&quot;</text>
</g>
<!-- w9&#45;&gt;slow_area12 -->
<g id="edge16" class="edge"><title>w9&#45;&gt;slow_area12</title>
<path fill="none" stroke="black" d="M316.277,-158.944C335.287,-147.478 360.431,-132.312 380.453,-120.235"/>
<text text-anchor="middle" x="369.453" y="-123.235" font-family="Times New Roman,serif" font-size="10.00">areas</text>
<text text-anchor="middle" x="338.277" y="-161.944" font-family="Times New Roman,serif" font-size="10.00">warehouse</text>
</g>
<!-- f113 -->
<g id="node13" class="node"><title>f113</title>
<polygon fill="none" stroke="black" points="8,-21 8,-38 66,-38 66,-21 8,-21"/>
<text text-anchor="start" x="20" y="-28" font-family="Times New Roman,serif" text-decoration="underline" font-size="10.00">f1 :Place</text>
<polygon fill="none" stroke="black" points="8,-4 8,-21 66,-21 66,-4 8,-4"/>
<text text-anchor="start" x="11" y="-10" font-family="Times New Roman,serif" font-size="10.00"> &#160;name = &quot;f1&quot;</text>
</g>
<!-- fast_area10&#45;&gt;f113 -->
<g id="edge17" class="edge"><title>fast_area10&#45;&gt;f113</title>
<path fill="none" stroke="black" d="M103.614,-77.6334C90.4519,-66.6411 74.2615,-53.1195 61.1381,-42.1593"/>
<text text-anchor="middle" x="48.1381" y="-45.1593" font-family="Times New Roman,serif" font-size="10.00">places</text>
<text text-anchor="middle" x="95.1137" y="-69.6334" font-family="Times New Roman,serif" font-size="10.00">area</text>
</g>
<!-- f314 -->
<g id="node14" class="node"><title>f314</title>
<polygon fill="none" stroke="black" points="100,-21 100,-38 158,-38 158,-21 100,-21"/>
<text text-anchor="start" x="112" y="-28" font-family="Times New Roman,serif" text-decoration="underline" font-size="10.00">f3 :Place</text>
<polygon fill="none" stroke="black" points="100,-4 100,-21 158,-21 158,-4 100,-4"/>
<text text-anchor="start" x="103" y="-10" font-family="Times New Roman,serif" font-size="10.00"> &#160;name = &quot;f3&quot;</text>
</g>
<!-- fast_area10&#45;&gt;f314 -->
<g id="edge18" class="edge"><title>fast_area10&#45;&gt;f314</title>
<path fill="none" stroke="black" d="M128.268,-77.6334C128.413,-66.6411 128.591,-53.1195 128.735,-42.1593"/>
<text text-anchor="middle" x="115.735" y="-45.1593" font-family="Times New Roman,serif" font-size="10.00">places</text>
<text text-anchor="middle" x="119.768" y="-69.6334" font-family="Times New Roman,serif" font-size="10.00">area</text>
</g>
<!-- m115 -->
<g id="node15" class="node"><title>m115</title>
<polygon fill="none" stroke="black" points="192,-21 192,-38 254,-38 254,-21 192,-21"/>
<text text-anchor="start" x="204.5" y="-28" font-family="Times New Roman,serif" text-decoration="underline" font-size="10.00">m1 :Place</text>
<polygon fill="none" stroke="black" points="192,-4 192,-21 254,-21 254,-4 192,-4"/>
<text text-anchor="start" x="195" y="-10" font-family="Times New Roman,serif" font-size="10.00"> &#160;name = &quot;m1&quot;</text>
</g>
<!-- middle_area11&#45;&gt;m115 -->
<g id="edge19" class="edge"><title>middle_area11&#45;&gt;m115</title>
<path fill="none" stroke="black" d="M270.581,-77.6334C261.18,-66.6411 249.615,-53.1195 240.241,-42.1593"/>
<text text-anchor="middle" x="227.241" y="-45.1593" font-family="Times New Roman,serif" font-size="10.00">places</text>
<text text-anchor="middle" x="262.081" y="-69.6334" font-family="Times New Roman,serif" font-size="10.00">area</text>
</g>
<!-- m216 -->
<g id="node16" class="node"><title>m216</title>
<polygon fill="none" stroke="black" points="288,-21 288,-38 350,-38 350,-21 288,-21"/>
<text text-anchor="start" x="300.5" y="-28" font-family="Times New Roman,serif" text-decoration="underline" font-size="10.00">m2 :Place</text>
<polygon fill="none" stroke="black" points="288,-4 288,-21 350,-21 350,-4 288,-4"/>
<text text-anchor="start" x="291" y="-10" font-family="Times New Roman,serif" font-size="10.00"> &#160;name = &quot;m2&quot;</text>
</g>
<!-- middle_area11&#45;&gt;m216 -->
<g id="edge20" class="edge"><title>middle_area11&#45;&gt;m216</title>
<path fill="none" stroke="black" d="M296.307,-77.6334C300.791,-66.6411 306.307,-53.1195 310.777,-42.1593"/>
<text text-anchor="middle" x="297.777" y="-45.1593" font-family="Times New Roman,serif" font-size="10.00">places</text>
<text text-anchor="middle" x="287.807" y="-69.6334" font-family="Times New Roman,serif" font-size="10.00">area</text>
</g>
<!-- s117 -->
<g id="node17" class="node"><title>s117</title>
<polygon fill="none" stroke="black" points="384,-21 384,-38 444,-38 444,-21 384,-21"/>
<text text-anchor="start" x="396.5" y="-28" font-family="Times New Roman,serif" text-decoration="underline" font-size="10.00">s1 :Place</text>
<polygon fill="none" stroke="black" points="384,-4 384,-21 444,-21 444,-4 384,-4"/>
<text text-anchor="start" x="387" y="-10" font-family="Times New Roman,serif" font-size="10.00"> &#160;name = &quot;s1&quot;</text>
</g>
<!-- slow_area12&#45;&gt;s117 -->
<g id="edge21" class="edge"><title>slow_area12&#45;&gt;s117</title>
<path fill="none" stroke="black" d="M414,-77.6334C414,-66.6411 414,-53.1195 414,-42.1593"/>
<text text-anchor="middle" x="401" y="-45.1593" font-family="Times New Roman,serif" font-size="10.00">places</text>
<text text-anchor="middle" x="405.5" y="-69.6334" font-family="Times New Roman,serif" font-size="10.00">area</text>
</g>
</g>
</svg>
