<?xml version="1.0" encoding="UTF-8" standalone="no"?>
<!DOCTYPE svg PUBLIC "-//W3C//DTD SVG 1.1//EN"
 "http://www.w3.org/Graphics/SVG/1.1/DTD/svg11.dtd">
<!-- Generated by graphviz version 2.38.0 (20140413.2041)
 -->
<!-- Title: H Pages: 1 -->
<svg width="547pt" height="534pt"
 viewBox="0.00 0.00 546.50 534.00" xmlns="http://www.w3.org/2000/svg" xmlns:xlink="http://www.w3.org/1999/xlink">
<g id="graph0" class="graph" transform="scale(1 1) rotate(0) translate(4 530)">
<title>H</title>
<polygon fill="white" stroke="none" points="-4,4 -4,-530 542.5,-530 542.5,4 -4,4"/>
<!-- mondayArrival1 -->
<g id="node1" class="node"><title>mondayArrival1</title>
<polygon fill="none" stroke="black" points="293,-505 293,-522 392,-522 392,-505 293,-505"/>
<text text-anchor="start" x="296" y="-512" font-family="Times New Roman,serif" text-decoration="underline" font-size="10.00">mondayArrival :Arrival</text>
<polygon fill="none" stroke="black" points="293,-488 293,-505 392,-505 392,-488 293,-488"/>
<text text-anchor="start" x="297" y="-494" font-family="Times New Roman,serif" font-size="10.00"> &#160;id = &quot;mondayArrival&quot;</text>
</g>
<!-- eu1002 -->
<g id="node2" class="node"><title>eu1002</title>
<polygon fill="none" stroke="black" points="155,-427 155,-444 223,-444 223,-427 155,-427"/>
<text text-anchor="start" x="161.5" y="-434" font-family="Times New Roman,serif" text-decoration="underline" font-size="10.00">eu100 :Palette</text>
<polygon fill="none" stroke="black" points="155,-388 155,-427 223,-427 223,-388 155,-388"/>
<text text-anchor="start" x="158" y="-416" font-family="Times New Roman,serif" font-size="10.00"> &#160;id = &quot;eu100&quot;</text>
<text text-anchor="start" x="158" y="-405" font-family="Times New Roman,serif" font-size="10.00"> &#160;items = null</text>
<text text-anchor="start" x="158" y="-394" font-family="Times New Roman,serif" font-size="10.00"> &#160;quantity = 100</text>
</g>
<!-- mondayArrival1&#45;&gt;eu1002 -->
<g id="edge1" class="edge"><title>mondayArrival1&#45;&gt;eu1002</title>
<path fill="none" stroke="black" d="M304.476,-483.911C285.107,-473.413 261.163,-460.233 240,-448 237.129,-446.341 234.18,-444.612 231.215,-442.857"/>
<text text-anchor="middle" x="247.215" y="-445.857" font-family="Times New Roman,serif" font-size="10.00">palettes</text>
<text text-anchor="middle" x="302.976" y="-475.911" font-family="Times New Roman,serif" font-size="10.00"> </text>
</g>
<!-- eu2003 -->
<g id="node3" class="node"><title>eu2003</title>
<polygon fill="none" stroke="black" points="257,-427 257,-444 325,-444 325,-427 257,-427"/>
<text text-anchor="start" x="263.5" y="-434" font-family="Times New Roman,serif" text-decoration="underline" font-size="10.00">eu200 :Palette</text>
<polygon fill="none" stroke="black" points="257,-388 257,-427 325,-427 325,-388 257,-388"/>
<text text-anchor="start" x="260" y="-416" font-family="Times New Roman,serif" font-size="10.00"> &#160;id = &quot;eu200&quot;</text>
<text text-anchor="start" x="260" y="-405" font-family="Times New Roman,serif" font-size="10.00"> &#160;items = null</text>
<text text-anchor="start" x="260" y="-394" font-family="Times New Roman,serif" font-size="10.00"> &#160;quantity = 150</text>
</g>
<!-- mondayArrival1&#45;&gt;eu2003 -->
<g id="edge2" class="edge"><title>mondayArrival1&#45;&gt;eu2003</title>
<path fill="none" stroke="black" d="M330.171,-483.822C323.992,-473.28 316.292,-460.145 309.358,-448.317"/>
<text text-anchor="middle" x="293.358" y="-451.317" font-family="Times New Roman,serif" font-size="10.00">palettes</text>
<text text-anchor="middle" x="328.671" y="-475.822" font-family="Times New Roman,serif" font-size="10.00"> </text>
</g>
<!-- eu3334 -->
<g id="node4" class="node"><title>eu3334</title>
<polygon fill="none" stroke="black" points="359,-427 359,-444 427,-444 427,-427 359,-427"/>
<text text-anchor="start" x="365.5" y="-434" font-family="Times New Roman,serif" text-decoration="underline" font-size="10.00">eu333 :Palette</text>
<polygon fill="none" stroke="black" points="359,-388 359,-427 427,-427 427,-388 359,-388"/>
<text text-anchor="start" x="362" y="-416" font-family="Times New Roman,serif" font-size="10.00"> &#160;id = &quot;eu333&quot;</text>
<text text-anchor="start" x="362" y="-405" font-family="Times New Roman,serif" font-size="10.00"> &#160;items = null</text>
<text text-anchor="start" x="362" y="-394" font-family="Times New Roman,serif" font-size="10.00"> &#160;quantity = 150</text>
</g>
<!-- mondayArrival1&#45;&gt;eu3334 -->
<g id="edge3" class="edge"><title>mondayArrival1&#45;&gt;eu3334</title>
<path fill="none" stroke="black" d="M353.829,-483.822C360.008,-473.28 367.708,-460.145 374.642,-448.317"/>
<text text-anchor="middle" x="358.642" y="-451.317" font-family="Times New Roman,serif" font-size="10.00">palettes</text>
<text text-anchor="middle" x="352.329" y="-475.822" font-family="Times New Roman,serif" font-size="10.00"> </text>
</g>
<!-- italy5 -->
<g id="node5" class="node"><title>italy5</title>
<polygon fill="none" stroke="black" points="462,-416 462,-433 531,-433 531,-416 462,-416"/>
<text text-anchor="start" x="467.5" y="-423" font-family="Times New Roman,serif" text-decoration="underline" font-size="10.00">italy :Producer</text>
<polygon fill="none" stroke="black" points="462,-399 462,-416 531,-416 531,-399 462,-399"/>
<text text-anchor="start" x="465" y="-405" font-family="Times New Roman,serif" font-size="10.00"> &#160;name = &quot;Italy&quot;</text>
</g>
<!-- mondayArrival1&#45;&gt;italy5 -->
<g id="edge4" class="edge"><title>mondayArrival1&#45;&gt;italy5</title>
<path fill="none" stroke="black" d="M379.48,-483.835C398.838,-473.317 422.785,-460.142 444,-448 450.112,-444.502 456.586,-440.712 462.815,-437.021"/>
<text text-anchor="middle" x="481.315" y="-440.021" font-family="Times New Roman,serif" font-size="10.00">producer</text>
<text text-anchor="middle" x="377.98" y="-475.835" font-family="Times New Roman,serif" font-size="10.00"> </text>
</g>
<!-- s16 -->
<g id="node6" class="node"><title>s16</title>
<polygon fill="none" stroke="black" points="113,-327 113,-344 173,-344 173,-327 113,-327"/>
<text text-anchor="start" x="125.5" y="-334" font-family="Times New Roman,serif" text-decoration="underline" font-size="10.00">s1 :Place</text>
<polygon fill="none" stroke="black" points="113,-310 113,-327 173,-327 173,-310 113,-310"/>
<text text-anchor="start" x="116" y="-316" font-family="Times New Roman,serif" font-size="10.00"> &#160;name = &quot;s1&quot;</text>
</g>
<!-- eu1002&#45;&gt;s16 -->
<g id="edge5" class="edge"><title>eu1002&#45;&gt;s16</title>
<path fill="none" stroke="black" d="M172.393,-383.591C166.165,-371.812 159.258,-358.749 153.705,-348.247"/>
<text text-anchor="middle" x="142.705" y="-351.247" font-family="Times New Roman,serif" font-size="10.00">place</text>
<text text-anchor="middle" x="158.393" y="-375.591" font-family="Times New Roman,serif" font-size="10.00">palette</text>
</g>
<!-- nike_Airs7 -->
<g id="node7" class="node"><title>nike_Airs7</title>
<polygon fill="none" stroke="black" points="208,-249 208,-266 296,-266 296,-249 208,-249"/>
<text text-anchor="start" x="215.5" y="-256" font-family="Times New Roman,serif" text-decoration="underline" font-size="10.00">nike Airs :Product</text>
<polygon fill="none" stroke="black" points="208,-232 208,-249 296,-249 296,-232 208,-232"/>
<text text-anchor="start" x="211" y="-238" font-family="Times New Roman,serif" font-size="10.00"> &#160;name = &quot;Nike Airs&quot;</text>
</g>
<!-- eu1002&#45;&gt;nike_Airs7 -->
<g id="edge6" class="edge"><title>eu1002&#45;&gt;nike_Airs7</title>
<path fill="none" stroke="black" d="M200.85,-383.965C213.539,-350.731 233.311,-298.947 244.182,-270.475"/>
<text text-anchor="middle" x="228.182" y="-273.475" font-family="Times New Roman,serif" font-size="10.00">product</text>
<text text-anchor="middle" x="216.85" y="-375.965" font-family="Times New Roman,serif" font-size="10.00">palettes</text>
</g>
<!-- high_Heels8 -->
<g id="node8" class="node"><title>high_Heels8</title>
<polygon fill="none" stroke="black" points="285,-327 285,-344 380,-344 380,-327 285,-327"/>
<text text-anchor="start" x="293" y="-334" font-family="Times New Roman,serif" text-decoration="underline" font-size="10.00">high Heels :Product</text>
<polygon fill="none" stroke="black" points="285,-310 285,-327 380,-327 380,-310 285,-310"/>
<text text-anchor="start" x="288" y="-316" font-family="Times New Roman,serif" font-size="10.00"> &#160;name = &quot;High Heels&quot;</text>
</g>
<!-- eu2003&#45;&gt;high_Heels8 -->
<g id="edge7" class="edge"><title>eu2003&#45;&gt;high_Heels8</title>
<path fill="none" stroke="black" d="M305.802,-383.591C311.353,-371.812 317.509,-358.749 322.458,-348.247"/>
<text text-anchor="middle" x="306.458" y="-351.247" font-family="Times New Roman,serif" font-size="10.00">product</text>
<text text-anchor="middle" x="289.802" y="-375.591" font-family="Times New Roman,serif" font-size="10.00">palettes</text>
</g>
<!-- eu3334&#45;&gt;high_Heels8 -->
<g id="edge8" class="edge"><title>eu3334&#45;&gt;high_Heels8</title>
<path fill="none" stroke="black" d="M370.978,-383.591C362.719,-371.812 353.56,-358.749 346.196,-348.247"/>
<text text-anchor="middle" x="362.196" y="-351.247" font-family="Times New Roman,serif" font-size="10.00">product</text>
<text text-anchor="middle" x="354.978" y="-375.591" font-family="Times New Roman,serif" font-size="10.00">palettes</text>
</g>
<!-- slow_area9 -->
<g id="node9" class="node"><title>slow_area9</title>
<polygon fill="none" stroke="black" points="86,-249 86,-266 174,-266 174,-249 86,-249"/>
<text text-anchor="start" x="99" y="-256" font-family="Times New Roman,serif" text-decoration="underline" font-size="10.00">slow area :Area</text>
<polygon fill="none" stroke="black" points="86,-232 86,-249 174,-249 174,-232 86,-232"/>
<text text-anchor="start" x="89" y="-238" font-family="Times New Roman,serif" font-size="10.00"> &#160;name = &quot;slow area&quot;</text>
</g>
<!-- s16&#45;&gt;slow_area9 -->
<g id="edge9" class="edge"><title>s16&#45;&gt;slow_area9</title>
<path fill="none" stroke="black" d="M139.516,-305.633C137.636,-294.641 135.323,-281.119 133.448,-270.159"/>
<text text-anchor="middle" x="124.948" y="-273.159" font-family="Times New Roman,serif" font-size="10.00">area</text>
<text text-anchor="middle" x="126.516" y="-297.633" font-family="Times New Roman,serif" font-size="10.00">places</text>
</g>
<!-- w10 -->
<g id="node10" class="node"><title>w10</title>
<polygon fill="none" stroke="black" points="216,-168 216,-185 289,-185 289,-168 216,-168"/>
<text text-anchor="start" x="219" y="-175" font-family="Times New Roman,serif" text-decoration="underline" font-size="10.00">w10 :Warehouse</text>
<polygon fill="none" stroke="black" points="216,-162 216,-168 289,-168 289,-162 216,-162"/>
</g>
<!-- nike_Airs7&#45;&gt;w10 -->
<g id="edge10" class="edge"><title>nike_Airs7&#45;&gt;w10</title>
<path fill="none" stroke="black" d="M252,-227.665C252,-216.528 252,-202.874 252,-192.26"/>
<text text-anchor="middle" x="230" y="-195.26" font-family="Times New Roman,serif" font-size="10.00">warehouse</text>
<text text-anchor="middle" x="233.5" y="-219.665" font-family="Times New Roman,serif" font-size="10.00">products</text>
</g>
<!-- high_Heels8&#45;&gt;w10 -->
<g id="edge11" class="edge"><title>high_Heels8&#45;&gt;w10</title>
<path fill="none" stroke="black" d="M331.873,-305.9C330.916,-285.101 327.035,-252.316 313,-228 304.724,-213.662 291.118,-201.282 278.853,-192.1"/>
<text text-anchor="middle" x="300.853" y="-195.1" font-family="Times New Roman,serif" font-size="10.00">warehouse</text>
<text text-anchor="middle" x="313.373" y="-297.9" font-family="Times New Roman,serif" font-size="10.00">products</text>
</g>
<!-- slow_area9&#45;&gt;w10 -->
<g id="edge12" class="edge"><title>slow_area9&#45;&gt;w10</title>
<path fill="none" stroke="black" d="M163.66,-227.859C182.421,-216.633 205.532,-202.805 223.41,-192.107"/>
<text text-anchor="middle" x="201.41" y="-195.107" font-family="Times New Roman,serif" font-size="10.00">warehouse</text>
<text text-anchor="middle" x="152.66" y="-219.859" font-family="Times New Roman,serif" font-size="10.00">areas</text>
</g>
<!-- fast_area11 -->
<g id="node11" class="node"><title>fast_area11</title>
<polygon fill="none" stroke="black" points="117,-99 117,-116 202,-116 202,-99 117,-99"/>
<text text-anchor="start" x="130.5" y="-106" font-family="Times New Roman,serif" text-decoration="underline" font-size="10.00">fast area :Area</text>
<polygon fill="none" stroke="black" points="117,-82 117,-99 202,-99 202,-82 117,-82"/>
<text text-anchor="start" x="120" y="-88" font-family="Times New Roman,serif" font-size="10.00"> &#160;name = &quot;fast area&quot;</text>
</g>
<!-- w10&#45;&gt;fast_area11 -->
<g id="edge13" class="edge"><title>w10&#45;&gt;fast_area11</title>
<path fill="none" stroke="black" d="M229.96,-155.7C216.317,-144.991 198.746,-131.199 184.503,-120.018"/>
<text text-anchor="middle" x="173.503" y="-123.018" font-family="Times New Roman,serif" font-size="10.00">areas</text>
<text text-anchor="middle" x="207.96" y="-147.7" font-family="Times New Roman,serif" font-size="10.00">warehouse</text>
</g>
<!-- middle_area12 -->
<g id="node12" class="node"><title>middle_area12</title>
<polygon fill="none" stroke="black" points="267,-99 267,-116 363,-116 363,-99 267,-99"/>
<text text-anchor="start" x="280" y="-106" font-family="Times New Roman,serif" text-decoration="underline" font-size="10.00">middle area :Area</text>
<polygon fill="none" stroke="black" points="267,-82 267,-99 363,-99 363,-82 267,-82"/>
<text text-anchor="start" x="270" y="-88" font-family="Times New Roman,serif" font-size="10.00"> &#160;name = &quot;middle area&quot;</text>
</g>
<!-- w10&#45;&gt;middle_area12 -->
<g id="edge14" class="edge"><title>w10&#45;&gt;middle_area12</title>
<path fill="none" stroke="black" d="M266.93,-155.7C276.172,-144.991 288.075,-131.199 297.724,-120.018"/>
<text text-anchor="middle" x="286.724" y="-123.018" font-family="Times New Roman,serif" font-size="10.00">areas</text>
<text text-anchor="middle" x="288.93" y="-147.7" font-family="Times New Roman,serif" font-size="10.00">warehouse</text>
</g>
<!-- f113 -->
<g id="node13" class="node"><title>f113</title>
<polygon fill="none" stroke="black" points="8,-21 8,-38 66,-38 66,-21 8,-21"/>
<text text-anchor="start" x="20" y="-28" font-family="Times New Roman,serif" text-decoration="underline" font-size="10.00">f1 :Place</text>
<polygon fill="none" stroke="black" points="8,-4 8,-21 66,-21 66,-4 8,-4"/>
<text text-anchor="start" x="11" y="-10" font-family="Times New Roman,serif" font-size="10.00"> &#160;name = &quot;f1&quot;</text>
</g>
<!-- fast_area11&#45;&gt;f113 -->
<g id="edge15" class="edge"><title>fast_area11&#45;&gt;f113</title>
<path fill="none" stroke="black" d="M126.627,-77.8329C108.979,-66.8391 87.1963,-53.2698 69.5247,-42.2613"/>
<text text-anchor="middle" x="56.5247" y="-45.2613" font-family="Times New Roman,serif" font-size="10.00">places</text>
<text text-anchor="middle" x="118.127" y="-69.8329" font-family="Times New Roman,serif" font-size="10.00">area</text>
</g>
<!-- f214 -->
<g id="node14" class="node"><title>f214</title>
<polygon fill="none" stroke="black" points="100,-21 100,-38 158,-38 158,-21 100,-21"/>
<text text-anchor="start" x="112" y="-28" font-family="Times New Roman,serif" text-decoration="underline" font-size="10.00">f2 :Place</text>
<polygon fill="none" stroke="black" points="100,-4 100,-21 158,-21 158,-4 100,-4"/>
<text text-anchor="start" x="103" y="-10" font-family="Times New Roman,serif" font-size="10.00"> &#160;name = &quot;f2&quot;</text>
</g>
<!-- fast_area11&#45;&gt;f214 -->
<g id="edge16" class="edge"><title>fast_area11&#45;&gt;f214</title>
<path fill="none" stroke="black" d="M150.961,-77.6334C146.622,-66.6411 141.284,-53.1195 136.958,-42.1593"/>
<text text-anchor="middle" x="123.958" y="-45.1593" font-family="Times New Roman,serif" font-size="10.00">places</text>
<text text-anchor="middle" x="142.461" y="-69.6334" font-family="Times New Roman,serif" font-size="10.00">area</text>
</g>
<!-- f315 -->
<g id="node15" class="node"><title>f315</title>
<polygon fill="none" stroke="black" points="192,-21 192,-38 250,-38 250,-21 192,-21"/>
<text text-anchor="start" x="204" y="-28" font-family="Times New Roman,serif" text-decoration="underline" font-size="10.00">f3 :Place</text>
<polygon fill="none" stroke="black" points="192,-4 192,-21 250,-21 250,-4 192,-4"/>
<text text-anchor="start" x="195" y="-10" font-family="Times New Roman,serif" font-size="10.00"> &#160;name = &quot;f3&quot;</text>
</g>
<!-- fast_area11&#45;&gt;f315 -->
<g id="edge17" class="edge"><title>fast_area11&#45;&gt;f315</title>
<path fill="none" stroke="black" d="M175.615,-77.6334C184.582,-66.6411 195.613,-53.1195 204.554,-42.1593"/>
<text text-anchor="middle" x="191.554" y="-45.1593" font-family="Times New Roman,serif" font-size="10.00">places</text>
<text text-anchor="middle" x="167.115" y="-69.6334" font-family="Times New Roman,serif" font-size="10.00">area</text>
</g>
<!-- m116 -->
<g id="node16" class="node"><title>m116</title>
<polygon fill="none" stroke="black" points="284,-21 284,-38 346,-38 346,-21 284,-21"/>
<text text-anchor="start" x="296.5" y="-28" font-family="Times New Roman,serif" text-decoration="underline" font-size="10.00">m1 :Place</text>
<polygon fill="none" stroke="black" points="284,-4 284,-21 346,-21 346,-4 284,-4"/>
<text text-anchor="start" x="287" y="-10" font-family="Times New Roman,serif" font-size="10.00"> &#160;name = &quot;m1&quot;</text>
</g>
<!-- middle_area12&#45;&gt;m116 -->
<g id="edge18" class="edge"><title>middle_area12&#45;&gt;m116</title>
<path fill="none" stroke="black" d="M315,-77.6334C315,-66.6411 315,-53.1195 315,-42.1593"/>
<text text-anchor="middle" x="302" y="-45.1593" font-family="Times New Roman,serif" font-size="10.00">places</text>
<text text-anchor="middle" x="306.5" y="-69.6334" font-family="Times New Roman,serif" font-size="10.00">area</text>
</g>
<!-- m217 -->
<g id="node17" class="node"><title>m217</title>
<polygon fill="none" stroke="black" points="380,-21 380,-38 442,-38 442,-21 380,-21"/>
<text text-anchor="start" x="392.5" y="-28" font-family="Times New Roman,serif" text-decoration="underline" font-size="10.00">m2 :Place</text>
<polygon fill="none" stroke="black" points="380,-4 380,-21 442,-21 442,-4 380,-4"/>
<text text-anchor="start" x="383" y="-10" font-family="Times New Roman,serif" font-size="10.00"> &#160;name = &quot;m2&quot;</text>
</g>
<!-- middle_area12&#45;&gt;m217 -->
<g id="edge19" class="edge"><title>middle_area12&#45;&gt;m217</title>
<path fill="none" stroke="black" d="M340.474,-77.8329C354.361,-66.8391 371.501,-53.2698 385.407,-42.2613"/>
<text text-anchor="middle" x="372.407" y="-45.2613" font-family="Times New Roman,serif" font-size="10.00">places</text>
<text text-anchor="middle" x="331.974" y="-69.8329" font-family="Times New Roman,serif" font-size="10.00">area</text>
</g>
</g>
</svg>
