<?xml version="1.0" encoding="UTF-8" standalone="no"?>
<!DOCTYPE svg PUBLIC "-//W3C//DTD SVG 1.1//EN"
 "http://www.w3.org/Graphics/SVG/1.1/DTD/svg11.dtd">
<!-- Generated by graphviz version 2.40.1 (20161225.0304)
 -->
<!-- Title: H Pages: 1 -->
<svg width="560px" height="448px"
 viewBox="0.00 0.00 560.00 448.00" xmlns="http://www.w3.org/2000/svg" xmlns:xlink="http://www.w3.org/1999/xlink">
<g id="graph0" class="graph" transform=" rotate(0) translate(4 444)">
<title>H</title>
<polygon fill="#ffffff" stroke="transparent" points="-4,4 -4,-444 556,-444 556,4 -4,4"/>
<!-- mondayArrival1 -->
<g id="node1" class="node">
<title>mondayArrival1</title>
<polygon fill="none" stroke="#000000" points="304.5,-420 304.5,-436 405.5,-436 405.5,-420 304.5,-420"/>
<text text-anchor="start" x="307.3755" y="-426" font-family="Times,serif" text-decoration="underline" font-size="10.00" fill="#000000">mondayArrival :Arrival</text>
<polygon fill="none" stroke="#000000" points="304.5,-404 304.5,-420 405.5,-420 405.5,-404 304.5,-404"/>
<text text-anchor="start" x="308.6621" y="-409" font-family="Times,serif" font-size="10.00" fill="#000000"> &#160;id = &quot;mondayArrival&quot;</text>
</g>
<!-- eu1002 -->
<g id="node2" class="node">
<title>eu1002</title>
<polygon fill="none" stroke="#000000" points="166.5,-344 166.5,-360 235.5,-360 235.5,-344 166.5,-344"/>
<text text-anchor="start" x="172.5356" y="-350" font-family="Times,serif" text-decoration="underline" font-size="10.00" fill="#000000">eu100 :Palette</text>
<polygon fill="none" stroke="#000000" points="166.5,-308 166.5,-344 235.5,-344 235.5,-308 166.5,-308"/>
<text text-anchor="start" x="169.5" y="-333" font-family="Times,serif" font-size="10.00" fill="#000000"> &#160;id = &quot;eu100&quot;</text>
<text text-anchor="start" x="169.5" y="-323" font-family="Times,serif" font-size="10.00" fill="#000000"> &#160;items = null</text>
<text text-anchor="start" x="169.5" y="-313" font-family="Times,serif" font-size="10.00" fill="#000000"> &#160;quantity = 100</text>
</g>
<!-- mondayArrival1&#45;&gt;eu1002 -->
<g id="edge1" class="edge">
<title>mondayArrival1&#45;&gt;eu1002</title>
<path fill="none" stroke="#000000" d="M317.5702,-399.9696C298.1495,-389.3743 273.9773,-376.0893 252.5,-364 249.412,-362.2618 246.227,-360.4561 243.0252,-358.6315"/>
<text text-anchor="middle" x="258.2962" y="-360.6315" font-family="Times,serif" font-size="10.00" fill="#000000">palettes</text>
<text text-anchor="middle" x="316.3202" y="-391.9696" font-family="Times,serif" font-size="10.00" fill="#000000"> </text>
</g>
<!-- eu2003 -->
<g id="node3" class="node">
<title>eu2003</title>
<polygon fill="none" stroke="#000000" points="269.5,-344 269.5,-360 338.5,-360 338.5,-344 269.5,-344"/>
<text text-anchor="start" x="275.5356" y="-350" font-family="Times,serif" text-decoration="underline" font-size="10.00" fill="#000000">eu200 :Palette</text>
<polygon fill="none" stroke="#000000" points="269.5,-308 269.5,-344 338.5,-344 338.5,-308 269.5,-308"/>
<text text-anchor="start" x="272.5" y="-333" font-family="Times,serif" font-size="10.00" fill="#000000"> &#160;id = &quot;eu200&quot;</text>
<text text-anchor="start" x="272.5" y="-323" font-family="Times,serif" font-size="10.00" fill="#000000"> &#160;items = null</text>
<text text-anchor="start" x="272.5" y="-313" font-family="Times,serif" font-size="10.00" fill="#000000"> &#160;quantity = 150</text>
</g>
<!-- mondayArrival1&#45;&gt;eu2003 -->
<g id="edge2" class="edge">
<title>mondayArrival1&#45;&gt;eu2003</title>
<path fill="none" stroke="#000000" d="M342.4137,-399.6192C336.1102,-388.9897 328.2778,-375.7822 321.2959,-364.0088"/>
<text text-anchor="middle" x="306.0249" y="-366.0088" font-family="Times,serif" font-size="10.00" fill="#000000">palettes</text>
<text text-anchor="middle" x="341.1637" y="-391.6192" font-family="Times,serif" font-size="10.00" fill="#000000"> </text>
</g>
<!-- eu3334 -->
<g id="node4" class="node">
<title>eu3334</title>
<polygon fill="none" stroke="#000000" points="372.5,-344 372.5,-360 441.5,-360 441.5,-344 372.5,-344"/>
<text text-anchor="start" x="378.5356" y="-350" font-family="Times,serif" text-decoration="underline" font-size="10.00" fill="#000000">eu333 :Palette</text>
<polygon fill="none" stroke="#000000" points="372.5,-308 372.5,-344 441.5,-344 441.5,-308 372.5,-308"/>
<text text-anchor="start" x="375.5" y="-333" font-family="Times,serif" font-size="10.00" fill="#000000"> &#160;id = &quot;eu333&quot;</text>
<text text-anchor="start" x="375.5" y="-323" font-family="Times,serif" font-size="10.00" fill="#000000"> &#160;items = null</text>
<text text-anchor="start" x="375.5" y="-313" font-family="Times,serif" font-size="10.00" fill="#000000"> &#160;quantity = 150</text>
</g>
<!-- mondayArrival1&#45;&gt;eu3334 -->
<g id="edge3" class="edge">
<title>mondayArrival1&#45;&gt;eu3334</title>
<path fill="none" stroke="#000000" d="M366.8233,-399.6192C373.2504,-388.9897 381.2363,-375.7822 388.3551,-364.0088"/>
<text text-anchor="middle" x="373.0841" y="-366.0088" font-family="Times,serif" font-size="10.00" fill="#000000">palettes</text>
<text text-anchor="middle" x="365.5733" y="-391.6192" font-family="Times,serif" font-size="10.00" fill="#000000"> </text>
</g>
<!-- italy5 -->
<g id="node5" class="node">
<title>italy5</title>
<polygon fill="none" stroke="#000000" points="475.5,-334 475.5,-350 544.5,-350 544.5,-334 475.5,-334"/>
<text text-anchor="start" x="480.4248" y="-340" font-family="Times,serif" text-decoration="underline" font-size="10.00" fill="#000000">italy :Producer</text>
<polygon fill="none" stroke="#000000" points="475.5,-318 475.5,-334 544.5,-334 544.5,-318 475.5,-318"/>
<text text-anchor="start" x="478.5" y="-323" font-family="Times,serif" font-size="10.00" fill="#000000"> &#160;name = &quot;Italy&quot;</text>
</g>
<!-- mondayArrival1&#45;&gt;italy5 -->
<g id="edge4" class="edge">
<title>mondayArrival1&#45;&gt;italy5</title>
<path fill="none" stroke="#000000" d="M392.7234,-399.8623C412.4625,-389.3509 436.8789,-376.1745 458.5,-364 464.1391,-360.8247 470.0914,-357.3954 475.8612,-354.0294"/>
<text text-anchor="middle" x="493.6297" y="-356.0294" font-family="Times,serif" font-size="10.00" fill="#000000">producer</text>
<text text-anchor="middle" x="391.4734" y="-391.8623" font-family="Times,serif" font-size="10.00" fill="#000000"> </text>
</g>
<!-- f26 -->
<g id="node6" class="node">
<title>f26</title>
<polygon fill="none" stroke="#000000" points="101.5,-172 101.5,-188 160.5,-188 160.5,-172 101.5,-172"/>
<text text-anchor="start" x="113.3682" y="-178" font-family="Times,serif" text-decoration="underline" font-size="10.00" fill="#000000">f2 :Place</text>
<polygon fill="none" stroke="#000000" points="101.5,-156 101.5,-172 160.5,-172 160.5,-156 101.5,-156"/>
<text text-anchor="start" x="104.5" y="-161" font-family="Times,serif" font-size="10.00" fill="#000000"> &#160;name = &quot;f2&quot;</text>
</g>
<!-- eu1002&#45;&gt;f26 -->
<g id="edge5" class="edge">
<title>eu1002&#45;&gt;f26</title>
<path fill="none" stroke="#000000" d="M172.3781,-303.7133C163.8626,-293.1004 155.2526,-280.6553 149.5,-268 138.3212,-243.4075 133.6992,-212.3308 131.8015,-192.3112"/>
<text text-anchor="middle" x="121.2546" y="-194.3112" font-family="Times,serif" font-size="10.00" fill="#000000">place</text>
<text text-anchor="middle" x="159.0529" y="-295.7133" font-family="Times,serif" font-size="10.00" fill="#000000">palette</text>
</g>
<!-- nike_Airs7 -->
<g id="node7" class="node">
<title>nike_Airs7</title>
<polygon fill="none" stroke="#000000" points="166.5,-248 166.5,-264 256.5,-264 256.5,-248 166.5,-248"/>
<text text-anchor="start" x="175.1108" y="-254" font-family="Times,serif" text-decoration="underline" font-size="10.00" fill="#000000">nike Airs :Product</text>
<polygon fill="none" stroke="#000000" points="166.5,-232 166.5,-248 256.5,-248 256.5,-232 166.5,-232"/>
<text text-anchor="start" x="169.5" y="-237" font-family="Times,serif" font-size="10.00" fill="#000000"> &#160;name = &quot;Nike Airs&quot;</text>
</g>
<!-- eu1002&#45;&gt;nike_Airs7 -->
<g id="edge6" class="edge">
<title>eu1002&#45;&gt;nike_Airs7</title>
<path fill="none" stroke="#000000" d="M204.3473,-303.9214C205.859,-292.1027 207.5543,-278.8483 208.9149,-268.2107"/>
<text text-anchor="middle" x="193.6415" y="-270.2107" font-family="Times,serif" font-size="10.00" fill="#000000">product</text>
<text text-anchor="middle" x="189.0763" y="-295.9214" font-family="Times,serif" font-size="10.00" fill="#000000">palettes</text>
</g>
<!-- high_Heels8 -->
<g id="node8" class="node">
<title>high_Heels8</title>
<polygon fill="none" stroke="#000000" points="328.5,-248 328.5,-264 424.5,-264 424.5,-248 328.5,-248"/>
<text text-anchor="start" x="336.7832" y="-254" font-family="Times,serif" text-decoration="underline" font-size="10.00" fill="#000000">high Heels :Product</text>
<polygon fill="none" stroke="#000000" points="328.5,-232 328.5,-248 424.5,-248 424.5,-232 328.5,-232"/>
<text text-anchor="start" x="331.5" y="-237" font-family="Times,serif" font-size="10.00" fill="#000000"> &#160;name = &quot;High Heels&quot;</text>
</g>
<!-- eu2003&#45;&gt;high_Heels8 -->
<g id="edge7" class="edge">
<title>eu2003&#45;&gt;high_Heels8</title>
<path fill="none" stroke="#000000" d="M329.0319,-303.9214C339.064,-292.1027 350.3149,-278.8483 359.3444,-268.2107"/>
<text text-anchor="middle" x="344.071" y="-270.2107" font-family="Times,serif" font-size="10.00" fill="#000000">product</text>
<text text-anchor="middle" x="344.3029" y="-295.9214" font-family="Times,serif" font-size="10.00" fill="#000000">palettes</text>
</g>
<!-- w9 -->
<g id="node9" class="node">
<title>w9</title>
<polygon fill="none" stroke="#000000" points="259.5,-167 259.5,-183 326.5,-183 326.5,-167 259.5,-167"/>
<text text-anchor="start" x="262.1602" y="-173" font-family="Times,serif" text-decoration="underline" font-size="10.00" fill="#000000">w9 :Warehouse</text>
<polygon fill="none" stroke="#000000" points="259.5,-161 259.5,-167 326.5,-167 326.5,-161 259.5,-161"/>
</g>
<!-- eu2003&#45;&gt;w9 -->
<g id="edge8" class="edge">
<title>eu2003&#45;&gt;w9</title>
<path fill="none" stroke="#000000" d="M301.4568,-303.9087C299.1952,-270.6019 295.6223,-217.9823 293.7456,-190.3446"/>
<text text-anchor="middle" x="283.4722" y="-192.3446" font-family="Times,serif" font-size="10.00" fill="#000000">ramp</text>
<text text-anchor="middle" x="285.905" y="-295.9087" font-family="Times,serif" font-size="10.00" fill="#000000">atRamp</text>
</g>
<!-- eu3334&#45;&gt;high_Heels8 -->
<g id="edge9" class="edge">
<title>eu3334&#45;&gt;high_Heels8</title>
<path fill="none" stroke="#000000" d="M396.0075,-303.9214C391.8847,-292.1027 387.261,-278.8483 383.5503,-268.2107"/>
<text text-anchor="middle" x="398.8237" y="-270.2107" font-family="Times,serif" font-size="10.00" fill="#000000">product</text>
<text text-anchor="middle" x="380.7365" y="-295.9214" font-family="Times,serif" font-size="10.00" fill="#000000">palettes</text>
</g>
<!-- eu3334&#45;&gt;w9 -->
<g id="edge10" class="edge">
<title>eu3334&#45;&gt;w9</title>
<path fill="none" stroke="#000000" d="M430.1599,-303.5915C444.5072,-281.189 457.277,-250.7842 441.5,-228 428.9142,-209.8244 373.8575,-192.4933 334.3349,-182.0509"/>
<text text-anchor="middle" x="344.6083" y="-184.0509" font-family="Times,serif" font-size="10.00" fill="#000000">ramp</text>
<text text-anchor="middle" x="414.6081" y="-295.5915" font-family="Times,serif" font-size="10.00" fill="#000000">atRamp</text>
</g>
<!-- fast_area10 -->
<g id="node10" class="node">
<title>fast_area10</title>
<polygon fill="none" stroke="#000000" points="88.5,-96 88.5,-112 173.5,-112 173.5,-96 88.5,-96"/>
<text text-anchor="start" x="101.8545" y="-102" font-family="Times,serif" text-decoration="underline" font-size="10.00" fill="#000000">fast area :Area</text>
<polygon fill="none" stroke="#000000" points="88.5,-80 88.5,-96 173.5,-96 173.5,-80 88.5,-80"/>
<text text-anchor="start" x="91.5" y="-85" font-family="Times,serif" font-size="10.00" fill="#000000"> &#160;name = &quot;fast area&quot;</text>
</g>
<!-- f26&#45;&gt;fast_area10 -->
<g id="edge11" class="edge">
<title>f26&#45;&gt;fast_area10</title>
<path fill="none" stroke="#000000" d="M130.5,-151.6334C130.5,-140.6411 130.5,-127.1195 130.5,-116.1593"/>
<text text-anchor="middle" x="122.1772" y="-118.1593" font-family="Times,serif" font-size="10.00" fill="#000000">area</text>
<text text-anchor="middle" x="118.0073" y="-143.6334" font-family="Times,serif" font-size="10.00" fill="#000000">places</text>
</g>
<!-- nike_Airs7&#45;&gt;w9 -->
<g id="edge12" class="edge">
<title>nike_Airs7&#45;&gt;w9</title>
<path fill="none" stroke="#000000" d="M233.2065,-227.6334C245.6717,-215.9376 261.1889,-201.3784 273.2223,-190.0877"/>
<text text-anchor="middle" x="251.8429" y="-192.0877" font-family="Times,serif" font-size="10.00" fill="#000000">warehouse</text>
<text text-anchor="middle" x="215.9873" y="-219.6334" font-family="Times,serif" font-size="10.00" fill="#000000">products</text>
</g>
<!-- high_Heels8&#45;&gt;w9 -->
<g id="edge13" class="edge">
<title>high_Heels8&#45;&gt;w9</title>
<path fill="none" stroke="#000000" d="M353.9895,-227.6334C341.0627,-215.9376 324.9708,-201.3784 312.4917,-190.0877"/>
<text text-anchor="middle" x="333.8711" y="-192.0877" font-family="Times,serif" font-size="10.00" fill="#000000">warehouse</text>
<text text-anchor="middle" x="336.7703" y="-219.6334" font-family="Times,serif" font-size="10.00" fill="#000000">products</text>
</g>
<!-- w9&#45;&gt;fast_area10 -->
<g id="edge14" class="edge">
<title>w9&#45;&gt;fast_area10</title>
<path fill="none" stroke="#000000" d="M254.1083,-153.9891C229.7812,-142.5764 198.286,-127.8008 173.1761,-116.0209"/>
<text text-anchor="middle" x="162.9076" y="-118.0209" font-family="Times,serif" font-size="10.00" fill="#000000">areas</text>
<text text-anchor="middle" x="232.7289" y="-145.9891" font-family="Times,serif" font-size="10.00" fill="#000000">warehouse</text>
</g>
<!-- middle_area11 -->
<g id="node11" class="node">
<title>middle_area11</title>
<polygon fill="none" stroke="#000000" points="243.5,-96 243.5,-112 341.5,-112 341.5,-96 243.5,-96"/>
<text text-anchor="start" x="256.687" y="-102" font-family="Times,serif" text-decoration="underline" font-size="10.00" fill="#000000">middle area :Area</text>
<polygon fill="none" stroke="#000000" points="243.5,-80 243.5,-96 341.5,-96 341.5,-80 243.5,-80"/>
<text text-anchor="start" x="246.5" y="-85" font-family="Times,serif" font-size="10.00" fill="#000000"> &#160;name = &quot;middle area&quot;</text>
</g>
<!-- w9&#45;&gt;middle_area11 -->
<g id="edge15" class="edge">
<title>w9&#45;&gt;middle_area11</title>
<path fill="none" stroke="#000000" d="M292.5,-153.9891C292.5,-142.5764 292.5,-127.8008 292.5,-116.0209"/>
<text text-anchor="middle" x="282.2314" y="-118.0209" font-family="Times,serif" font-size="10.00" fill="#000000">areas</text>
<text text-anchor="middle" x="313.8794" y="-145.9891" font-family="Times,serif" font-size="10.00" fill="#000000">warehouse</text>
</g>
<!-- slow_area12 -->
<g id="node12" class="node">
<title>slow_area12</title>
<polygon fill="none" stroke="#000000" points="376.5,-96 376.5,-112 465.5,-112 465.5,-96 376.5,-96"/>
<text text-anchor="start" x="389.6279" y="-102" font-family="Times,serif" text-decoration="underline" font-size="10.00" fill="#000000">slow area :Area</text>
<polygon fill="none" stroke="#000000" points="376.5,-80 376.5,-96 465.5,-96 465.5,-80 376.5,-80"/>
<text text-anchor="start" x="379.5" y="-85" font-family="Times,serif" font-size="10.00" fill="#000000"> &#160;name = &quot;slow area&quot;</text>
</g>
<!-- w9&#45;&gt;slow_area12 -->
<g id="edge16" class="edge">
<title>w9&#45;&gt;slow_area12</title>
<path fill="none" stroke="#000000" d="M322.8342,-153.9891C342.0556,-142.5764 366.9407,-127.8008 386.7806,-116.0209"/>
<text text-anchor="middle" x="376.512" y="-118.0209" font-family="Times,serif" font-size="10.00" fill="#000000">areas</text>
<text text-anchor="middle" x="344.2136" y="-155.9891" font-family="Times,serif" font-size="10.00" fill="#000000">warehouse</text>
</g>
<!-- f113 -->
<g id="node13" class="node">
<title>f113</title>
<polygon fill="none" stroke="#000000" points="8.5,-20 8.5,-36 67.5,-36 67.5,-20 8.5,-20"/>
<text text-anchor="start" x="20.3682" y="-26" font-family="Times,serif" text-decoration="underline" font-size="10.00" fill="#000000">f1 :Place</text>
<polygon fill="none" stroke="#000000" points="8.5,-4 8.5,-20 67.5,-20 67.5,-4 8.5,-4"/>
<text text-anchor="start" x="11.5" y="-9" font-family="Times,serif" font-size="10.00" fill="#000000"> &#160;name = &quot;f1&quot;</text>
</g>
<!-- fast_area10&#45;&gt;f113 -->
<g id="edge17" class="edge">
<title>fast_area10&#45;&gt;f113</title>
<path fill="none" stroke="#000000" d="M105.5777,-75.6334C92.1267,-64.6411 75.5804,-51.1195 62.1686,-40.1593"/>
<text text-anchor="middle" x="49.6759" y="-42.1593" font-family="Times,serif" font-size="10.00" fill="#000000">places</text>
<text text-anchor="middle" x="97.255" y="-67.6334" font-family="Times,serif" font-size="10.00" fill="#000000">area</text>
</g>
<!-- f314 -->
<g id="node14" class="node">
<title>f314</title>
<polygon fill="none" stroke="#000000" points="101.5,-20 101.5,-36 160.5,-36 160.5,-20 101.5,-20"/>
<text text-anchor="start" x="113.3682" y="-26" font-family="Times,serif" text-decoration="underline" font-size="10.00" fill="#000000">f3 :Place</text>
<polygon fill="none" stroke="#000000" points="101.5,-4 101.5,-20 160.5,-20 160.5,-4 101.5,-4"/>
<text text-anchor="start" x="104.5" y="-9" font-family="Times,serif" font-size="10.00" fill="#000000"> &#160;name = &quot;f3&quot;</text>
</g>
<!-- fast_area10&#45;&gt;f314 -->
<g id="edge18" class="edge">
<title>fast_area10&#45;&gt;f314</title>
<path fill="none" stroke="#000000" d="M130.5,-75.6334C130.5,-64.6411 130.5,-51.1195 130.5,-40.1593"/>
<text text-anchor="middle" x="118.0073" y="-42.1593" font-family="Times,serif" font-size="10.00" fill="#000000">places</text>
<text text-anchor="middle" x="122.1772" y="-67.6334" font-family="Times,serif" font-size="10.00" fill="#000000">area</text>
</g>
<!-- m115 -->
<g id="node15" class="node">
<title>m115</title>
<polygon fill="none" stroke="#000000" points="194.5,-20 194.5,-36 258.5,-36 258.5,-20 194.5,-20"/>
<text text-anchor="start" x="206.644" y="-26" font-family="Times,serif" text-decoration="underline" font-size="10.00" fill="#000000">m1 :Place</text>
<polygon fill="none" stroke="#000000" points="194.5,-4 194.5,-20 258.5,-20 258.5,-4 194.5,-4"/>
<text text-anchor="start" x="197.5" y="-9" font-family="Times,serif" font-size="10.00" fill="#000000"> &#160;name = &quot;m1&quot;</text>
</g>
<!-- middle_area11&#45;&gt;m115 -->
<g id="edge19" class="edge">
<title>middle_area11&#45;&gt;m115</title>
<path fill="none" stroke="#000000" d="M274.8132,-75.6334C265.2673,-64.6411 253.5248,-51.1195 244.0068,-40.1593"/>
<text text-anchor="middle" x="231.5141" y="-42.1593" font-family="Times,serif" font-size="10.00" fill="#000000">places</text>
<text text-anchor="middle" x="266.4905" y="-67.6334" font-family="Times,serif" font-size="10.00" fill="#000000">area</text>
</g>
<!-- m216 -->
<g id="node16" class="node">
<title>m216</title>
<polygon fill="none" stroke="#000000" points="292.5,-20 292.5,-36 356.5,-36 356.5,-20 292.5,-20"/>
<text text-anchor="start" x="304.644" y="-26" font-family="Times,serif" text-decoration="underline" font-size="10.00" fill="#000000">m2 :Place</text>
<polygon fill="none" stroke="#000000" points="292.5,-4 292.5,-20 356.5,-20 356.5,-4 292.5,-4"/>
<text text-anchor="start" x="295.5" y="-9" font-family="Times,serif" font-size="10.00" fill="#000000"> &#160;name = &quot;m2&quot;</text>
</g>
<!-- middle_area11&#45;&gt;m216 -->
<g id="edge20" class="edge">
<title>middle_area11&#45;&gt;m216</title>
<path fill="none" stroke="#000000" d="M301.0754,-75.6334C305.7037,-64.6411 311.3971,-51.1195 316.0119,-40.1593"/>
<text text-anchor="middle" x="303.5192" y="-42.1593" font-family="Times,serif" font-size="10.00" fill="#000000">places</text>
<text text-anchor="middle" x="292.7527" y="-67.6334" font-family="Times,serif" font-size="10.00" fill="#000000">area</text>
</g>
<!-- s117 -->
<g id="node17" class="node">
<title>s117</title>
<polygon fill="none" stroke="#000000" points="390.5,-20 390.5,-36 450.5,-36 450.5,-20 390.5,-20"/>
<text text-anchor="start" x="402.5874" y="-26" font-family="Times,serif" text-decoration="underline" font-size="10.00" fill="#000000">s1 :Place</text>
<polygon fill="none" stroke="#000000" points="390.5,-4 390.5,-20 450.5,-20 450.5,-4 390.5,-4"/>
<text text-anchor="start" x="393.5" y="-9" font-family="Times,serif" font-size="10.00" fill="#000000"> &#160;name = &quot;s1&quot;</text>
</g>
<!-- slow_area12&#45;&gt;s117 -->
<g id="edge21" class="edge">
<title>slow_area12&#45;&gt;s117</title>
<path fill="none" stroke="#000000" d="M420.5,-75.6334C420.5,-64.6411 420.5,-51.1195 420.5,-40.1593"/>
<text text-anchor="middle" x="408.0073" y="-42.1593" font-family="Times,serif" font-size="10.00" fill="#000000">places</text>
<text text-anchor="middle" x="412.1772" y="-67.6334" font-family="Times,serif" font-size="10.00" fill="#000000">area</text>
</g>
</g>
</svg>
