<?xml version="1.0" encoding="UTF-8" standalone="no"?>
<!DOCTYPE svg PUBLIC "-//W3C//DTD SVG 1.1//EN"
 "http://www.w3.org/Graphics/SVG/1.1/DTD/svg11.dtd">
<!-- Generated by graphviz version 2.40.1 (20161225.0304)
 -->
<!-- Title: H Pages: 1 -->
<svg width="560px" height="196px"
 viewBox="0.00 0.00 559.50 196.00" xmlns="http://www.w3.org/2000/svg" xmlns:xlink="http://www.w3.org/1999/xlink">
<g id="graph0" class="graph" transform=" rotate(0) translate(4 192)">
<title>H</title>
<polygon fill="#ffffff" stroke="transparent" points="-4,4 -4,-192 555.5,-192 555.5,4 -4,4"/>
<!-- w1 -->
<g id="node1" class="node">
<title>w1</title>
<polygon fill="none" stroke="#000000" points="302.5,-165 302.5,-181 369.5,-181 369.5,-165 302.5,-165"/>
<text text-anchor="start" x="305.1602" y="-171" font-family="Times,serif" text-decoration="underline" font-size="10.00" fill="#000000">w1 :Warehouse</text>
<polygon fill="none" stroke="#000000" points="302.5,-159 302.5,-165 369.5,-165 369.5,-159 302.5,-159"/>
</g>
<!-- fast_area2 -->
<g id="node2" class="node">
<title>fast_area2</title>
<polygon fill="none" stroke="#000000" points="136.5,-96 136.5,-112 221.5,-112 221.5,-96 136.5,-96"/>
<text text-anchor="start" x="149.8545" y="-102" font-family="Times,serif" text-decoration="underline" font-size="10.00" fill="#000000">fast area :Area</text>
<polygon fill="none" stroke="#000000" points="136.5,-80 136.5,-96 221.5,-96 221.5,-80 136.5,-80"/>
<text text-anchor="start" x="139.5" y="-85" font-family="Times,serif" font-size="10.00" fill="#000000"> &#160;name = &quot;fast area&quot;</text>
</g>
<!-- w1&#45;&gt;fast_area2 -->
<g id="edge1" class="edge">
<title>w1&#45;&gt;fast_area2</title>
<path fill="none" stroke="#000000" d="M297.0935,-151.8976C274.126,-141.0721 244.8993,-127.2965 221.2073,-116.1296"/>
<text text-anchor="middle" x="210.9388" y="-118.1296" font-family="Times,serif" font-size="10.00" fill="#000000">areas</text>
<text text-anchor="middle" x="275.7141" y="-143.8976" font-family="Times,serif" font-size="10.00" fill="#000000">warehouse</text>
</g>
<!-- middle_area3 -->
<g id="node3" class="node">
<title>middle_area3</title>
<polygon fill="none" stroke="#000000" points="286.5,-96 286.5,-112 384.5,-112 384.5,-96 286.5,-96"/>
<text text-anchor="start" x="299.687" y="-102" font-family="Times,serif" text-decoration="underline" font-size="10.00" fill="#000000">middle area :Area</text>
<polygon fill="none" stroke="#000000" points="286.5,-80 286.5,-96 384.5,-96 384.5,-80 286.5,-80"/>
<text text-anchor="start" x="289.5" y="-85" font-family="Times,serif" font-size="10.00" fill="#000000"> &#160;name = &quot;middle area&quot;</text>
</g>
<!-- w1&#45;&gt;middle_area3 -->
<g id="edge2" class="edge">
<title>w1&#45;&gt;middle_area3</title>
<path fill="none" stroke="#000000" d="M335.5,-151.7079C335.5,-140.9223 335.5,-127.2586 335.5,-116.1628"/>
<text text-anchor="middle" x="325.2314" y="-118.1628" font-family="Times,serif" font-size="10.00" fill="#000000">areas</text>
<text text-anchor="middle" x="356.8794" y="-143.7079" font-family="Times,serif" font-size="10.00" fill="#000000">warehouse</text>
</g>
<!-- slow_area4 -->
<g id="node4" class="node">
<title>slow_area4</title>
<polygon fill="none" stroke="#000000" points="452.5,-96 452.5,-112 541.5,-112 541.5,-96 452.5,-96"/>
<text text-anchor="start" x="465.6279" y="-102" font-family="Times,serif" text-decoration="underline" font-size="10.00" fill="#000000">slow area :Area</text>
<polygon fill="none" stroke="#000000" points="452.5,-80 452.5,-96 541.5,-96 541.5,-80 452.5,-80"/>
<text text-anchor="start" x="455.5" y="-85" font-family="Times,serif" font-size="10.00" fill="#000000"> &#160;name = &quot;slow area&quot;</text>
</g>
<!-- w1&#45;&gt;slow_area4 -->
<g id="edge3" class="edge">
<title>w1&#45;&gt;slow_area4</title>
<path fill="none" stroke="#000000" d="M374.885,-151.8976C398.4377,-141.0721 428.409,-127.2965 452.7046,-116.1296"/>
<text text-anchor="middle" x="442.436" y="-118.1296" font-family="Times,serif" font-size="10.00" fill="#000000">areas</text>
<text text-anchor="middle" x="396.2644" y="-153.8976" font-family="Times,serif" font-size="10.00" fill="#000000">warehouse</text>
</g>
<!-- f15 -->
<g id="node5" class="node">
<title>f15</title>
<polygon fill="none" stroke="#000000" points="8.5,-20 8.5,-36 67.5,-36 67.5,-20 8.5,-20"/>
<text text-anchor="start" x="20.3682" y="-26" font-family="Times,serif" text-decoration="underline" font-size="10.00" fill="#000000">f1 :Place</text>
<polygon fill="none" stroke="#000000" points="8.5,-4 8.5,-20 67.5,-20 67.5,-4 8.5,-4"/>
<text text-anchor="start" x="11.5" y="-9" font-family="Times,serif" font-size="10.00" fill="#000000"> &#160;name = &quot;f1&quot;</text>
</g>
<!-- fast_area2&#45;&gt;f15 -->
<g id="edge4" class="edge">
<title>fast_area2&#45;&gt;f15</title>
<path fill="none" stroke="#000000" d="M141.0848,-75.8329C120.6883,-64.8391 95.5137,-51.2698 75.0901,-40.2613"/>
<text text-anchor="middle" x="62.5974" y="-42.2613" font-family="Times,serif" font-size="10.00" fill="#000000">places</text>
<text text-anchor="middle" x="132.762" y="-67.8329" font-family="Times,serif" font-size="10.00" fill="#000000">area</text>
</g>
<!-- f26 -->
<g id="node6" class="node">
<title>f26</title>
<polygon fill="none" stroke="#000000" points="101.5,-20 101.5,-36 160.5,-36 160.5,-20 101.5,-20"/>
<text text-anchor="start" x="113.3682" y="-26" font-family="Times,serif" text-decoration="underline" font-size="10.00" fill="#000000">f2 :Place</text>
<polygon fill="none" stroke="#000000" points="101.5,-4 101.5,-20 160.5,-20 160.5,-4 101.5,-4"/>
<text text-anchor="start" x="104.5" y="-9" font-family="Times,serif" font-size="10.00" fill="#000000"> &#160;name = &quot;f2&quot;</text>
</g>
<!-- fast_area2&#45;&gt;f26 -->
<g id="edge5" class="edge">
<title>fast_area2&#45;&gt;f26</title>
<path fill="none" stroke="#000000" d="M165.6369,-75.6334C158.6944,-64.6411 150.1544,-51.1195 143.2322,-40.1593"/>
<text text-anchor="middle" x="130.7395" y="-42.1593" font-family="Times,serif" font-size="10.00" fill="#000000">places</text>
<text text-anchor="middle" x="157.3141" y="-67.6334" font-family="Times,serif" font-size="10.00" fill="#000000">area</text>
</g>
<!-- f37 -->
<g id="node7" class="node">
<title>f37</title>
<polygon fill="none" stroke="#000000" points="194.5,-20 194.5,-36 253.5,-36 253.5,-20 194.5,-20"/>
<text text-anchor="start" x="206.3682" y="-26" font-family="Times,serif" text-decoration="underline" font-size="10.00" fill="#000000">f3 :Place</text>
<polygon fill="none" stroke="#000000" points="194.5,-4 194.5,-20 253.5,-20 253.5,-4 194.5,-4"/>
<text text-anchor="start" x="197.5" y="-9" font-family="Times,serif" font-size="10.00" fill="#000000"> &#160;name = &quot;f3&quot;</text>
</g>
<!-- fast_area2&#45;&gt;f37 -->
<g id="edge6" class="edge">
<title>fast_area2&#45;&gt;f37</title>
<path fill="none" stroke="#000000" d="M190.5592,-75.6334C197.0677,-64.6411 205.074,-51.1195 211.5636,-40.1593"/>
<text text-anchor="middle" x="199.0709" y="-42.1593" font-family="Times,serif" font-size="10.00" fill="#000000">places</text>
<text text-anchor="middle" x="182.2364" y="-67.6334" font-family="Times,serif" font-size="10.00" fill="#000000">area</text>
</g>
<!-- m18 -->
<g id="node8" class="node">
<title>m18</title>
<polygon fill="none" stroke="#000000" points="287.5,-20 287.5,-36 351.5,-36 351.5,-20 287.5,-20"/>
<text text-anchor="start" x="299.644" y="-26" font-family="Times,serif" text-decoration="underline" font-size="10.00" fill="#000000">m1 :Place</text>
<polygon fill="none" stroke="#000000" points="287.5,-4 287.5,-20 351.5,-20 351.5,-4 287.5,-4"/>
<text text-anchor="start" x="290.5" y="-9" font-family="Times,serif" font-size="10.00" fill="#000000"> &#160;name = &quot;m1&quot;</text>
</g>
<!-- middle_area3&#45;&gt;m18 -->
<g id="edge7" class="edge">
<title>middle_area3&#45;&gt;m18</title>
<path fill="none" stroke="#000000" d="M331.2123,-75.6334C328.8981,-64.6411 326.0515,-51.1195 323.7441,-40.1593"/>
<text text-anchor="middle" x="311.2514" y="-42.1593" font-family="Times,serif" font-size="10.00" fill="#000000">places</text>
<text text-anchor="middle" x="322.8895" y="-67.6334" font-family="Times,serif" font-size="10.00" fill="#000000">area</text>
</g>
<!-- m29 -->
<g id="node9" class="node">
<title>m29</title>
<polygon fill="none" stroke="#000000" points="385.5,-20 385.5,-36 449.5,-36 449.5,-20 385.5,-20"/>
<text text-anchor="start" x="397.644" y="-26" font-family="Times,serif" text-decoration="underline" font-size="10.00" fill="#000000">m2 :Place</text>
<polygon fill="none" stroke="#000000" points="385.5,-4 385.5,-20 449.5,-20 449.5,-4 385.5,-4"/>
<text text-anchor="start" x="388.5" y="-9" font-family="Times,serif" font-size="10.00" fill="#000000"> &#160;name = &quot;m2&quot;</text>
</g>
<!-- middle_area3&#45;&gt;m29 -->
<g id="edge8" class="edge">
<title>middle_area3&#45;&gt;m29</title>
<path fill="none" stroke="#000000" d="M357.4745,-75.6334C369.3345,-64.6411 383.9237,-51.1195 395.7492,-40.1593"/>
<text text-anchor="middle" x="383.2565" y="-42.1593" font-family="Times,serif" font-size="10.00" fill="#000000">places</text>
<text text-anchor="middle" x="349.1517" y="-67.6334" font-family="Times,serif" font-size="10.00" fill="#000000">area</text>
</g>
<!-- s110 -->
<g id="node10" class="node">
<title>s110</title>
<polygon fill="none" stroke="#000000" points="483.5,-20 483.5,-36 543.5,-36 543.5,-20 483.5,-20"/>
<text text-anchor="start" x="495.5874" y="-26" font-family="Times,serif" text-decoration="underline" font-size="10.00" fill="#000000">s1 :Place</text>
<polygon fill="none" stroke="#000000" points="483.5,-4 483.5,-20 543.5,-20 543.5,-4 483.5,-4"/>
<text text-anchor="start" x="486.5" y="-9" font-family="Times,serif" font-size="10.00" fill="#000000"> &#160;name = &quot;s1&quot;</text>
</g>
<!-- slow_area4&#45;&gt;s110 -->
<g id="edge9" class="edge">
<title>slow_area4&#45;&gt;s110</title>
<path fill="none" stroke="#000000" d="M501.0557,-75.6334C503.5145,-64.6411 506.5391,-51.1195 508.9907,-40.1593"/>
<text text-anchor="middle" x="496.498" y="-42.1593" font-family="Times,serif" font-size="10.00" fill="#000000">places</text>
<text text-anchor="middle" x="492.7329" y="-67.6334" font-family="Times,serif" font-size="10.00" fill="#000000">area</text>
</g>
</g>
</svg>
