<?xml version="1.0" encoding="UTF-8" standalone="no"?>
<!DOCTYPE svg PUBLIC "-//W3C//DTD SVG 1.1//EN"
 "http://www.w3.org/Graphics/SVG/1.1/DTD/svg11.dtd">
<!-- Generated by graphviz version 2.38.0 (20140413.2041)
 -->
<!-- Title: H Pages: 1 -->
<svg width="552px" height="200px"
 viewBox="0.00 0.00 552.00 200.00" xmlns="http://www.w3.org/2000/svg" xmlns:xlink="http://www.w3.org/1999/xlink">
<g id="graph0" class="graph" transform="scale(0.7500187504687618 0.7500187504687618) rotate(0) translate(4 196)">
<title>H</title>
<polygon fill="white" stroke="none" points="-4,4 -4,-196 548,-196 548,4 -4,4"/>
<!-- w1 -->
<g id="node1" class="node"><title>w1</title>
<polygon fill="none" stroke="black" points="297,-168 297,-185 366,-185 366,-168 297,-168"/>
<text text-anchor="start" x="300" y="-175" font-family="Times New Roman,serif" text-decoration="underline" font-size="10.00">w1 :Warehouse</text>
<polygon fill="none" stroke="black" points="297,-162 297,-168 366,-168 366,-162 297,-162"/>
</g>
<!-- fast_area2 -->
<g id="node2" class="node"><title>fast_area2</title>
<polygon fill="none" stroke="black" points="134,-99 134,-116 219,-116 219,-99 134,-99"/>
<text text-anchor="start" x="147.5" y="-106" font-family="Times New Roman,serif" text-decoration="underline" font-size="10.00">fast area :Area</text>
<polygon fill="none" stroke="black" points="134,-82 134,-99 219,-99 219,-82 134,-82"/>
<text text-anchor="start" x="137" y="-88" font-family="Times New Roman,serif" font-size="10.00"> &#160;name = &quot;fast area&quot;</text>
</g>
<!-- w1&#45;&gt;fast_area2 -->
<g id="edge1" class="edge"><title>w1&#45;&gt;fast_area2</title>
<path fill="none" stroke="black" d="M294.659,-155.885C271.932,-145.181 242.551,-131.343 218.712,-120.116"/>
<text text-anchor="middle" x="207.712" y="-123.116" font-family="Times New Roman,serif" font-size="10.00">areas</text>
<text text-anchor="middle" x="272.659" y="-147.885" font-family="Times New Roman,serif" font-size="10.00">warehouse</text>
</g>
<!-- middle_area3 -->
<g id="node3" class="node"><title>middle_area3</title>
<polygon fill="none" stroke="black" points="283,-99 283,-116 379,-116 379,-99 283,-99"/>
<text text-anchor="start" x="296" y="-106" font-family="Times New Roman,serif" text-decoration="underline" font-size="10.00">middle area :Area</text>
<polygon fill="none" stroke="black" points="283,-82 283,-99 379,-99 379,-82 283,-82"/>
<text text-anchor="start" x="286" y="-88" font-family="Times New Roman,serif" font-size="10.00"> &#160;name = &quot;middle area&quot;</text>
</g>
<!-- w1&#45;&gt;middle_area3 -->
<g id="edge2" class="edge"><title>w1&#45;&gt;middle_area3</title>
<path fill="none" stroke="black" d="M331,-155.7C331,-144.991 331,-131.199 331,-120.018"/>
<text text-anchor="middle" x="320" y="-123.018" font-family="Times New Roman,serif" font-size="10.00">areas</text>
<text text-anchor="middle" x="353" y="-147.7" font-family="Times New Roman,serif" font-size="10.00">warehouse</text>
</g>
<!-- slow_area4 -->
<g id="node4" class="node"><title>slow_area4</title>
<polygon fill="none" stroke="black" points="445,-99 445,-116 533,-116 533,-99 445,-99"/>
<text text-anchor="start" x="458" y="-106" font-family="Times New Roman,serif" text-decoration="underline" font-size="10.00">slow area :Area</text>
<polygon fill="none" stroke="black" points="445,-82 445,-99 533,-99 533,-82 445,-82"/>
<text text-anchor="start" x="448" y="-88" font-family="Times New Roman,serif" font-size="10.00"> &#160;name = &quot;slow area&quot;</text>
</g>
<!-- w1&#45;&gt;slow_area4 -->
<g id="edge3" class="edge"><title>w1&#45;&gt;slow_area4</title>
<path fill="none" stroke="black" d="M368.044,-155.885C391.212,-145.181 421.161,-131.343 445.462,-120.116"/>
<text text-anchor="middle" x="434.462" y="-123.116" font-family="Times New Roman,serif" font-size="10.00">areas</text>
<text text-anchor="middle" x="390.044" y="-158.885" font-family="Times New Roman,serif" font-size="10.00">warehouse</text>
</g>
<!-- f15 -->
<g id="node5" class="node"><title>f15</title>
<polygon fill="none" stroke="black" points="8,-21 8,-38 66,-38 66,-21 8,-21"/>
<text text-anchor="start" x="20" y="-28" font-family="Times New Roman,serif" text-decoration="underline" font-size="10.00">f1 :Place</text>
<polygon fill="none" stroke="black" points="8,-4 8,-21 66,-21 66,-4 8,-4"/>
<text text-anchor="start" x="11" y="-10" font-family="Times New Roman,serif" font-size="10.00"> &#160;name = &quot;f1&quot;</text>
</g>
<!-- fast_area2&#45;&gt;f15 -->
<g id="edge4" class="edge"><title>fast_area2&#45;&gt;f15</title>
<path fill="none" stroke="black" d="M139.115,-77.8329C119.008,-66.8391 94.1908,-53.2698 74.0569,-42.2613"/>
<text text-anchor="middle" x="61.0569" y="-45.2613" font-family="Times New Roman,serif" font-size="10.00">places</text>
<text text-anchor="middle" x="130.615" y="-69.8329" font-family="Times New Roman,serif" font-size="10.00">area</text>
</g>
<!-- f26 -->
<g id="node6" class="node"><title>f26</title>
<polygon fill="none" stroke="black" points="100,-21 100,-38 158,-38 158,-21 100,-21"/>
<text text-anchor="start" x="112" y="-28" font-family="Times New Roman,serif" text-decoration="underline" font-size="10.00">f2 :Place</text>
<polygon fill="none" stroke="black" points="100,-4 100,-21 158,-21 158,-4 100,-4"/>
<text text-anchor="start" x="103" y="-10" font-family="Times New Roman,serif" font-size="10.00"> &#160;name = &quot;f2&quot;</text>
</g>
<!-- fast_area2&#45;&gt;f26 -->
<g id="edge5" class="edge"><title>fast_area2&#45;&gt;f26</title>
<path fill="none" stroke="black" d="M163.405,-77.6334C156.607,-66.6411 148.245,-53.1195 141.467,-42.1593"/>
<text text-anchor="middle" x="128.467" y="-45.1593" font-family="Times New Roman,serif" font-size="10.00">places</text>
<text text-anchor="middle" x="154.905" y="-69.6334" font-family="Times New Roman,serif" font-size="10.00">area</text>
</g>
<!-- f37 -->
<g id="node7" class="node"><title>f37</title>
<polygon fill="none" stroke="black" points="192,-21 192,-38 250,-38 250,-21 192,-21"/>
<text text-anchor="start" x="204" y="-28" font-family="Times New Roman,serif" text-decoration="underline" font-size="10.00">f3 :Place</text>
<polygon fill="none" stroke="black" points="192,-4 192,-21 250,-21 250,-4 192,-4"/>
<text text-anchor="start" x="195" y="-10" font-family="Times New Roman,serif" font-size="10.00"> &#160;name = &quot;f3&quot;</text>
</g>
<!-- fast_area2&#45;&gt;f37 -->
<g id="edge6" class="edge"><title>fast_area2&#45;&gt;f37</title>
<path fill="none" stroke="black" d="M188.059,-77.6334C194.568,-66.6411 202.574,-53.1195 209.064,-42.1593"/>
<text text-anchor="middle" x="196.064" y="-45.1593" font-family="Times New Roman,serif" font-size="10.00">places</text>
<text text-anchor="middle" x="179.559" y="-69.6334" font-family="Times New Roman,serif" font-size="10.00">area</text>
</g>
<!-- m18 -->
<g id="node8" class="node"><title>m18</title>
<polygon fill="none" stroke="black" points="284,-21 284,-38 346,-38 346,-21 284,-21"/>
<text text-anchor="start" x="296.5" y="-28" font-family="Times New Roman,serif" text-decoration="underline" font-size="10.00">m1 :Place</text>
<polygon fill="none" stroke="black" points="284,-4 284,-21 346,-21 346,-4 284,-4"/>
<text text-anchor="start" x="287" y="-10" font-family="Times New Roman,serif" font-size="10.00"> &#160;name = &quot;m1&quot;</text>
</g>
<!-- middle_area3&#45;&gt;m18 -->
<g id="edge7" class="edge"><title>middle_area3&#45;&gt;m18</title>
<path fill="none" stroke="black" d="M326.712,-77.6334C324.398,-66.6411 321.551,-53.1195 319.244,-42.1593"/>
<text text-anchor="middle" x="306.244" y="-45.1593" font-family="Times New Roman,serif" font-size="10.00">places</text>
<text text-anchor="middle" x="318.212" y="-69.6334" font-family="Times New Roman,serif" font-size="10.00">area</text>
</g>
<!-- m29 -->
<g id="node9" class="node"><title>m29</title>
<polygon fill="none" stroke="black" points="380,-21 380,-38 442,-38 442,-21 380,-21"/>
<text text-anchor="start" x="392.5" y="-28" font-family="Times New Roman,serif" text-decoration="underline" font-size="10.00">m2 :Place</text>
<polygon fill="none" stroke="black" points="380,-4 380,-21 442,-21 442,-4 380,-4"/>
<text text-anchor="start" x="383" y="-10" font-family="Times New Roman,serif" font-size="10.00"> &#160;name = &quot;m2&quot;</text>
</g>
<!-- middle_area3&#45;&gt;m29 -->
<g id="edge8" class="edge"><title>middle_area3&#45;&gt;m29</title>
<path fill="none" stroke="black" d="M352.439,-77.6334C364.009,-66.6411 378.243,-53.1195 389.78,-42.1593"/>
<text text-anchor="middle" x="376.78" y="-45.1593" font-family="Times New Roman,serif" font-size="10.00">places</text>
<text text-anchor="middle" x="343.939" y="-69.6334" font-family="Times New Roman,serif" font-size="10.00">area</text>
</g>
<!-- s110 -->
<g id="node10" class="node"><title>s110</title>
<polygon fill="none" stroke="black" points="476,-21 476,-38 536,-38 536,-21 476,-21"/>
<text text-anchor="start" x="488.5" y="-28" font-family="Times New Roman,serif" text-decoration="underline" font-size="10.00">s1 :Place</text>
<polygon fill="none" stroke="black" points="476,-4 476,-21 536,-21 536,-4 476,-4"/>
<text text-anchor="start" x="479" y="-10" font-family="Times New Roman,serif" font-size="10.00"> &#160;name = &quot;s1&quot;</text>
</g>
<!-- slow_area4&#45;&gt;s110 -->
<g id="edge9" class="edge"><title>slow_area4&#45;&gt;s110</title>
<path fill="none" stroke="black" d="M493.556,-77.6334C496.014,-66.6411 499.039,-53.1195 501.491,-42.1593"/>
<text text-anchor="middle" x="488.491" y="-45.1593" font-family="Times New Roman,serif" font-size="10.00">places</text>
<text text-anchor="middle" x="485.056" y="-69.6334" font-family="Times New Roman,serif" font-size="10.00">area</text>
</g>
</g>
</svg>
