<svg width="400pt" height="294pt"
 viewBox="0.00 0.00 400.11 294.00" xmlns="http://www.w3.org/2000/svg" xmlns:xlink="http://www.w3.org/1999/xlink">
<g id="graph0" class="graph" transform="scale(1 1) rotate(0) translate(4 290)">
<title>H</title>
<polygon fill="white" stroke="none" points="-4,4 -4,-290 396.113,-290 396.113,4 -4,4"/>
<!-- Storage -->
<g id="node1" class="node"><title>Storage</title>
<polygon fill="none" stroke="black" points="20.113,-264.5 20.113,-281.5 76.113,-281.5 76.113,-264.5 20.113,-264.5"/>
<text text-anchor="start" x="32.613" y="-270.5" font-family="Times New Roman,serif" font-size="10.00">Storage</text>
<polygon fill="none" stroke="black" points="20.113,-236.5 20.113,-264.5 76.113,-264.5 76.113,-236.5 20.113,-236.5"/>
<text text-anchor="start" x="23.113" y="-253.5" font-family="Times New Roman,serif" font-size="10.00">name :String</text>
<text text-anchor="start" x="23.113" y="-242.5" font-family="Times New Roman,serif" font-size="10.00">user :User</text>
</g>
<!-- Board -->
<g id="node2" class="node"><title>Board</title>
<polygon fill="none" stroke="black" points="56.113,-159.5 56.113,-176.5 99.113,-176.5 99.113,-159.5 56.113,-159.5"/>
<text text-anchor="start" x="65.113" y="-165.5" font-family="Times New Roman,serif" font-size="10.00">Board</text>
<polygon fill="none" stroke="black" points="56.113,-142.5 56.113,-159.5 99.113,-159.5 99.113,-142.5 56.113,-142.5"/>
<text text-anchor="start" x="59.113" y="-148.5" font-family="Times New Roman,serif" font-size="10.00">id :String</text>
</g>
<!-- Board&#45;&gt;Storage -->
<g id="edge1" class="edge"><title>Board&#45;&gt;Storage</title>
<path fill="none" stroke="black" d="M71.1041,-180.806C66.6247,-195.943 60.476,-216.721 55.6643,-232.982"/>
<text text-anchor="middle" x="66.1643" y="-224.982" font-family="Times New Roman,serif" font-size="10.00">store</text>
<text text-anchor="middle" x="53.1041" y="-183.806" font-family="Times New Roman,serif" font-size="10.00">boards *</text>
</g>
<!-- Product -->
<g id="node3" class="node"><title>Product</title>
<polygon fill="none" stroke="black" points="20.113,-48 20.113,-65 76.113,-65 76.113,-48 20.113,-48"/>
<text text-anchor="start" x="32.113" y="-54" font-family="Times New Roman,serif" font-size="10.00">Product</text>
<polygon fill="none" stroke="black" points="20.113,-20 20.113,-48 76.113,-48 76.113,-20 20.113,-20"/>
<text text-anchor="start" x="23.113" y="-37" font-family="Times New Roman,serif" font-size="10.00">name :String</text>
<text text-anchor="start" x="23.113" y="-26" font-family="Times New Roman,serif" font-size="10.00">items :int</text>
</g>
<!-- Product&#45;&gt;Storage -->
<g id="edge2" class="edge"><title>Product&#45;&gt;Storage</title>
<path fill="none" stroke="black" d="M44,-69.5662C41.7655,-84.7555 39.235,-104.424 38.113,-122 35.9892,-155.266 35.4293,-163.775 38.113,-197 39.0709,-208.86 41.052,-221.883 43,-232.879"/>
<text text-anchor="middle" x="32.5" y="-224.879" font-family="Times New Roman,serif" font-size="10.00">store</text>
<text text-anchor="middle" x="22" y="-72.5662" font-family="Times New Roman,serif" font-size="10.00">products *</text>
</g>
<!-- Product&#45;&gt;Board -->
<g id="edge3" class="edge"><title>Product&#45;&gt;Board</title>
<path fill="none" stroke="black" d="M54.6211,-69.696C59.8648,-90.3994 67.1362,-119.109 71.9761,-138.218"/>
<text text-anchor="middle" x="59.9761" y="-130.218" font-family="Times New Roman,serif" font-size="10.00">board</text>
<text text-anchor="middle" x="76.6211" y="-72.696" font-family="Times New Roman,serif" font-size="10.00">products *</text>
</g>
<!-- User -->
<g id="node4" class="node"><title>User</title>
<polygon fill="none" stroke="black" points="110.113,-48 110.113,-65 176.113,-65 176.113,-48 110.113,-48"/>
<text text-anchor="start" x="133.613" y="-54" font-family="Times New Roman,serif" font-size="10.00">User</text>
<polygon fill="none" stroke="black" points="110.113,-20 110.113,-48 176.113,-48 176.113,-20 110.113,-20"/>
<text text-anchor="start" x="113.113" y="-37" font-family="Times New Roman,serif" font-size="10.00">name :String</text>
<text text-anchor="start" x="113.113" y="-26" font-family="Times New Roman,serif" font-size="10.00">passwd :String</text>
</g>
<!-- Content -->
<g id="node5" class="node"><title>Content</title>
<polygon fill="none" stroke="black" points="200.113,-175.5 200.113,-192.5 280.113,-192.5 280.113,-175.5 200.113,-175.5"/>
<text text-anchor="start" x="223.613" y="-181.5" font-family="Times New Roman,serif" font-size="10.00">Content</text>
<polygon fill="none" stroke="black" points="200.113,-125.5 200.113,-175.5 280.113,-175.5 280.113,-125.5 200.113,-125.5"/>
<text text-anchor="start" x="203.113" y="-164.5" font-family="Times New Roman,serif" font-size="10.00">id :String</text>
<text text-anchor="start" x="203.113" y="-153.5" font-family="Times New Roman,serif" font-size="10.00">description :String</text>
<text text-anchor="start" x="203.113" y="-142.5" font-family="Times New Roman,serif" font-size="10.00">action :String</text>
<text text-anchor="start" x="203.113" y="-131.5" font-family="Times New Roman,serif" font-size="10.00">value :String</text>
</g>
<!-- Page -->
<g id="node8" class="node"><title>Page</title>
<polygon fill="none" stroke="black" points="200.113,-264.5 200.113,-281.5 280.113,-281.5 280.113,-264.5 200.113,-264.5"/>
<text text-anchor="start" x="230.113" y="-270.5" font-family="Times New Roman,serif" font-size="10.00">Page</text>
<polygon fill="none" stroke="black" points="200.113,-236.5 200.113,-264.5 280.113,-264.5 280.113,-236.5 200.113,-236.5"/>
<text text-anchor="start" x="203.113" y="-253.5" font-family="Times New Roman,serif" font-size="10.00">id :String</text>
<text text-anchor="start" x="203.113" y="-242.5" font-family="Times New Roman,serif" font-size="10.00">description :String</text>
</g>
<!-- Content&#45;&gt;Page -->
<g id="edge5" class="edge"><title>Content&#45;&gt;Page</title>
<path fill="none" stroke="black" d="M240.113,-197.27C240.113,-209.11 240.113,-221.968 240.113,-232.831"/>
<text text-anchor="middle" x="220.613" y="-200.27" font-family="Times New Roman,serif" font-size="10.00">content *</text>
</g>
<!-- Element -->
<g id="node6" class="node"><title>Element</title>
<polygon fill="none" stroke="black" points="210.113,-54 210.113,-71 270.113,-71 270.113,-54 210.113,-54"/>
<text text-anchor="start" x="224.113" y="-60" font-family="Times New Roman,serif" font-size="10.00">Element</text>
<polygon fill="none" stroke="black" points="210.113,-15 210.113,-54 270.113,-54 270.113,-15 210.113,-15"/>
<text text-anchor="start" x="213.113" y="-43" font-family="Times New Roman,serif" font-size="10.00">id :String</text>
<text text-anchor="start" x="213.113" y="-32" font-family="Times New Roman,serif" font-size="10.00">text :String</text>
<text text-anchor="start" x="213.113" y="-21" font-family="Times New Roman,serif" font-size="10.00">action :String</text>
</g>
<!-- Element&#45;&gt;Content -->
<g id="edge4" class="edge"><title>Element&#45;&gt;Content</title>
<path fill="none" stroke="black" d="M240.113,-75.2876C240.113,-89.7222 240.113,-106.95 240.113,-121.976"/>
<text text-anchor="middle" x="218.613" y="-78.2876" font-family="Times New Roman,serif" font-size="10.00">elements *</text>
</g>
<!-- StockApp -->
<g id="node7" class="node"><title>StockApp</title>
<polygon fill="none" stroke="black" points="304.113,-65 304.113,-82 384.113,-82 384.113,-65 304.113,-65"/>
<text text-anchor="start" x="323.613" y="-71" font-family="Times New Roman,serif" font-size="10.00">StockApp</text>
<polygon fill="none" stroke="black" points="304.113,-4 304.113,-65 384.113,-65 384.113,-4 304.113,-4"/>
<text text-anchor="start" x="307.113" y="-54" font-family="Times New Roman,serif" font-size="10.00">id :String</text>
<text text-anchor="start" x="307.113" y="-43" font-family="Times New Roman,serif" font-size="10.00">description :String</text>
<text text-anchor="start" x="307.113" y="-32" font-family="Times New Roman,serif" font-size="10.00">user :String</text>
<text text-anchor="start" x="307.113" y="-21" font-family="Times New Roman,serif" font-size="10.00">content :Page</text>
<text text-anchor="start" x="307.113" y="-10" font-family="Times New Roman,serif" font-size="10.00">storage :Storage</text>
</g>
</g>
</svg>
