<svg width="336px" height="294px"
 viewBox="0.00 0.00 336.11 294.00" xmlns="http://www.w3.org/2000/svg" xmlns:xlink="http://www.w3.org/1999/xlink">
<g id="graph0" class="graph" transform="scale(0.7500187504687618 0.7500187504687618) rotate(0) translate(4 290)">
<title>H</title>
<polygon fill="white" stroke="none" points="-4,4 -4,-290 332.113,-290 332.113,4 -4,4"/>
<!-- Storage -->
<g id="node1" class="node"><title>Storage</title>
<polygon fill="none" stroke="black" points="19.113,-259.5 19.113,-276.5 75.113,-276.5 75.113,-259.5 19.113,-259.5"/>
<text text-anchor="start" x="31.613" y="-265.5" font-family="Times New Roman,serif" font-size="10.00">Storage</text>
<polygon fill="none" stroke="black" points="19.113,-242.5 19.113,-259.5 75.113,-259.5 75.113,-242.5 19.113,-242.5"/>
<text text-anchor="start" x="22.113" y="-248.5" font-family="Times New Roman,serif" font-size="10.00">name :String</text>
</g>
<!-- Board -->
<g id="node2" class="node"><title>Board</title>
<polygon fill="none" stroke="black" points="56.113,-159.5 56.113,-176.5 99.113,-176.5 99.113,-159.5 56.113,-159.5"/>
<text text-anchor="start" x="65.113" y="-165.5" font-family="Times New Roman,serif" font-size="10.00">Board</text>
<polygon fill="none" stroke="black" points="56.113,-142.5 56.113,-159.5 99.113,-159.5 99.113,-142.5 56.113,-142.5"/>
<text text-anchor="start" x="59.113" y="-148.5" font-family="Times New Roman,serif" font-size="10.00">id :String</text>
</g>
<!-- Board&#45;&gt;Storage -->
<g id="edge1" class="edge"><title>Board&#45;&gt;Storage</title>
<path fill="none" stroke="black" d="M70.8969,-180.806C65.7482,-197.625 58.4675,-221.408 53.321,-238.22"/>
<text text-anchor="middle" x="42.821" y="-230.22" font-family="Times New Roman,serif" font-size="10.00">store</text>
<text text-anchor="middle" x="52.8969" y="-183.806" font-family="Times New Roman,serif" font-size="10.00">boards *</text>
</g>
<!-- Product -->
<g id="node3" class="node"><title>Product</title>
<polygon fill="none" stroke="black" points="20.113,-48 20.113,-65 76.113,-65 76.113,-48 20.113,-48"/>
<text text-anchor="start" x="32.113" y="-54" font-family="Times New Roman,serif" font-size="10.00">Product</text>
<polygon fill="none" stroke="black" points="20.113,-20 20.113,-48 76.113,-48 76.113,-20 20.113,-20"/>
<text text-anchor="start" x="23.113" y="-37" font-family="Times New Roman,serif" font-size="10.00">name :String</text>
<text text-anchor="start" x="23.113" y="-26" font-family="Times New Roman,serif" font-size="10.00">items :int</text>
</g>
<!-- Product&#45;&gt;Storage -->
<g id="edge2" class="edge"><title>Product&#45;&gt;Storage</title>
<path fill="none" stroke="black" d="M44,-69.5662C41.7655,-84.7555 39.235,-104.424 38.113,-122 35.9892,-155.266 35.6932,-163.755 38.113,-197 39.1234,-210.883 41.4008,-226.391 43.4117,-238.361"/>
<text text-anchor="middle" x="53.9117" y="-230.361" font-family="Times New Roman,serif" font-size="10.00">store</text>
<text text-anchor="middle" x="22" y="-72.5662" font-family="Times New Roman,serif" font-size="10.00">products *</text>
</g>
<!-- Product&#45;&gt;Board -->
<g id="edge3" class="edge"><title>Product&#45;&gt;Board</title>
<path fill="none" stroke="black" d="M54.6211,-69.696C59.8648,-90.3994 67.1362,-119.109 71.9761,-138.218"/>
<text text-anchor="middle" x="59.9761" y="-130.218" font-family="Times New Roman,serif" font-size="10.00">board</text>
<text text-anchor="middle" x="76.6211" y="-72.696" font-family="Times New Roman,serif" font-size="10.00">products *</text>
</g>
<!-- Content -->
<g id="node4" class="node"><title>Content</title>
<polygon fill="none" stroke="black" points="136.113,-175.5 136.113,-192.5 216.113,-192.5 216.113,-175.5 136.113,-175.5"/>
<text text-anchor="start" x="159.613" y="-181.5" font-family="Times New Roman,serif" font-size="10.00">Content</text>
<polygon fill="none" stroke="black" points="136.113,-125.5 136.113,-175.5 216.113,-175.5 216.113,-125.5 136.113,-125.5"/>
<text text-anchor="start" x="139.113" y="-164.5" font-family="Times New Roman,serif" font-size="10.00">id :String</text>
<text text-anchor="start" x="139.113" y="-153.5" font-family="Times New Roman,serif" font-size="10.00">description :String</text>
<text text-anchor="start" x="139.113" y="-142.5" font-family="Times New Roman,serif" font-size="10.00">action :String</text>
<text text-anchor="start" x="139.113" y="-131.5" font-family="Times New Roman,serif" font-size="10.00">value :String</text>
</g>
<!-- Page -->
<g id="node7" class="node"><title>Page</title>
<polygon fill="none" stroke="black" points="136.113,-264.5 136.113,-281.5 216.113,-281.5 216.113,-264.5 136.113,-264.5"/>
<text text-anchor="start" x="166.113" y="-270.5" font-family="Times New Roman,serif" font-size="10.00">Page</text>
<polygon fill="none" stroke="black" points="136.113,-236.5 136.113,-264.5 216.113,-264.5 216.113,-236.5 136.113,-236.5"/>
<text text-anchor="start" x="139.113" y="-253.5" font-family="Times New Roman,serif" font-size="10.00">id :String</text>
<text text-anchor="start" x="139.113" y="-242.5" font-family="Times New Roman,serif" font-size="10.00">description :String</text>
</g>
<!-- Content&#45;&gt;Page -->
<g id="edge5" class="edge"><title>Content&#45;&gt;Page</title>
<path fill="none" stroke="black" d="M176.113,-197.27C176.113,-209.11 176.113,-221.968 176.113,-232.831"/>
<text text-anchor="middle" x="156.613" y="-200.27" font-family="Times New Roman,serif" font-size="10.00">content *</text>
</g>
<!-- Element -->
<g id="node5" class="node"><title>Element</title>
<polygon fill="none" stroke="black" points="146.113,-54 146.113,-71 206.113,-71 206.113,-54 146.113,-54"/>
<text text-anchor="start" x="160.113" y="-60" font-family="Times New Roman,serif" font-size="10.00">Element</text>
<polygon fill="none" stroke="black" points="146.113,-15 146.113,-54 206.113,-54 206.113,-15 146.113,-15"/>
<text text-anchor="start" x="149.113" y="-43" font-family="Times New Roman,serif" font-size="10.00">id :String</text>
<text text-anchor="start" x="149.113" y="-32" font-family="Times New Roman,serif" font-size="10.00">text :String</text>
<text text-anchor="start" x="149.113" y="-21" font-family="Times New Roman,serif" font-size="10.00">action :String</text>
</g>
<!-- Element&#45;&gt;Content -->
<g id="edge4" class="edge"><title>Element&#45;&gt;Content</title>
<path fill="none" stroke="black" d="M176.113,-75.2876C176.113,-89.7222 176.113,-106.95 176.113,-121.976"/>
<text text-anchor="middle" x="154.613" y="-78.2876" font-family="Times New Roman,serif" font-size="10.00">elements *</text>
</g>
<!-- StockApp -->
<g id="node6" class="node"><title>StockApp</title>
<polygon fill="none" stroke="black" points="240.113,-65 240.113,-82 320.113,-82 320.113,-65 240.113,-65"/>
<text text-anchor="start" x="259.613" y="-71" font-family="Times New Roman,serif" font-size="10.00">StockApp</text>
<polygon fill="none" stroke="black" points="240.113,-4 240.113,-65 320.113,-65 320.113,-4 240.113,-4"/>
<text text-anchor="start" x="243.113" y="-54" font-family="Times New Roman,serif" font-size="10.00">id :String</text>
<text text-anchor="start" x="243.113" y="-43" font-family="Times New Roman,serif" font-size="10.00">description :String</text>
<text text-anchor="start" x="243.113" y="-32" font-family="Times New Roman,serif" font-size="10.00">user :String</text>
<text text-anchor="start" x="243.113" y="-21" font-family="Times New Roman,serif" font-size="10.00">content :Page</text>
<text text-anchor="start" x="243.113" y="-10" font-family="Times New Roman,serif" font-size="10.00">storage :Storage</text>
</g>
</g>
</svg>
