<svg width="417px" height="270px"
 viewBox="0.00 0.00 416.84 270.00" xmlns="http://www.w3.org/2000/svg" xmlns:xlink="http://www.w3.org/1999/xlink">
<g id="graph0" class="graph" transform=" rotate(0) translate(4 266)">
<title>H</title>
<polygon fill="#ffffff" stroke="transparent" points="-4,4 -4,-266 412.8401,-266 412.8401,4 -4,4"/>
<!-- Storage -->
<g id="node1" class="node">
<title>Storage</title>
<polygon fill="none" stroke="#000000" points="16.8401,-237 16.8401,-253 73.8401,-253 73.8401,-237 16.8401,-237"/>
<text text-anchor="start" x="30.0667" y="-242" font-family="Times,serif" font-size="10.00" fill="#000000">Storage</text>
<polygon fill="none" stroke="#000000" points="16.8401,-221 16.8401,-237 73.8401,-237 73.8401,-221 16.8401,-221"/>
<text text-anchor="start" x="19.8401" y="-226" font-family="Times,serif" font-size="10.00" fill="#000000">name :String</text>
</g>
<!-- Board -->
<g id="node2" class="node">
<title>Board</title>
<polygon fill="none" stroke="#000000" points="54.8401,-146 54.8401,-162 97.8401,-162 97.8401,-146 54.8401,-146"/>
<text text-anchor="start" x="64.1209" y="-151" font-family="Times,serif" font-size="10.00" fill="#000000">Board</text>
<polygon fill="none" stroke="#000000" points="54.8401,-130 54.8401,-146 97.8401,-146 97.8401,-130 54.8401,-130"/>
<text text-anchor="start" x="57.8401" y="-135" font-family="Times,serif" font-size="10.00" fill="#000000">id :String</text>
</g>
<!-- Board&#45;&gt;Storage -->
<g id="edge1" class="edge">
<title>Board&#45;&gt;Storage</title>
<path fill="none" stroke="#000000" d="M68.9602,-166.1958C63.823,-181.2761 56.8334,-201.7939 51.7008,-216.8606"/>
<text text-anchor="middle" x="61.4201" y="-208.8606" font-family="Times,serif" font-size="10.00" fill="#000000">store</text>
<text text-anchor="middle" x="51.8802" y="-168.1958" font-family="Times,serif" font-size="10.00" fill="#000000">boards *</text>
</g>
<!-- Product -->
<g id="node3" class="node">
<title>Product</title>
<polygon fill="none" stroke="#000000" points="18.8401,-50 18.8401,-66 75.8401,-66 75.8401,-50 18.8401,-50"/>
<text text-anchor="start" x="31.7859" y="-55" font-family="Times,serif" font-size="10.00" fill="#000000">Product</text>
<polygon fill="none" stroke="#000000" points="18.8401,-14 18.8401,-50 75.8401,-50 75.8401,-14 18.8401,-14"/>
<text text-anchor="start" x="21.8401" y="-39" font-family="Times,serif" font-size="10.00" fill="#000000">id :String</text>
<text text-anchor="start" x="21.8401" y="-29" font-family="Times,serif" font-size="10.00" fill="#000000">name :String</text>
<text text-anchor="start" x="21.8401" y="-19" font-family="Times,serif" font-size="10.00" fill="#000000">items :int</text>
</g>
<!-- Product&#45;&gt;Storage -->
<g id="edge2" class="edge">
<title>Product&#45;&gt;Storage</title>
<path fill="none" stroke="#000000" d="M41.9385,-70.2358C39.9233,-84.1343 37.8318,-100.8611 36.8401,-116 35.097,-142.6096 35.1027,-149.39 36.8401,-176 37.7309,-189.6426 39.7309,-204.8926 41.5082,-216.7319"/>
<text text-anchor="middle" x="31.789" y="-208.7319" font-family="Times,serif" font-size="10.00" fill="#000000">store</text>
<text text-anchor="middle" x="20.9692" y="-72.2358" font-family="Times,serif" font-size="10.00" fill="#000000">products *</text>
</g>
<!-- Product&#45;&gt;Board -->
<g id="edge3" class="edge">
<title>Product&#45;&gt;Board</title>
<path fill="none" stroke="#000000" d="M55.0728,-70.0918C59.9625,-87.9644 66.0296,-110.1407 70.3407,-125.8986"/>
<text text-anchor="middle" x="58.9564" y="-117.8986" font-family="Times,serif" font-size="10.00" fill="#000000">board</text>
<text text-anchor="middle" x="76.042" y="-72.0918" font-family="Times,serif" font-size="10.00" fill="#000000">products *</text>
</g>
<!-- Content -->
<g id="node4" class="node">
<title>Content</title>
<polygon fill="none" stroke="#000000" points="134.8401,-156 134.8401,-172 214.8401,-172 214.8401,-156 134.8401,-156"/>
<text text-anchor="start" x="159.0076" y="-161" font-family="Times,serif" font-size="10.00" fill="#000000">Content</text>
<polygon fill="none" stroke="#000000" points="134.8401,-120 134.8401,-156 214.8401,-156 214.8401,-120 134.8401,-120"/>
<text text-anchor="start" x="137.8401" y="-145" font-family="Times,serif" font-size="10.00" fill="#000000">id :String</text>
<text text-anchor="start" x="137.8401" y="-135" font-family="Times,serif" font-size="10.00" fill="#000000">description :String</text>
<text text-anchor="start" x="137.8401" y="-125" font-family="Times,serif" font-size="10.00" fill="#000000">action :String</text>
</g>
<!-- Page -->
<g id="node7" class="node">
<title>Page</title>
<polygon fill="none" stroke="#000000" points="134.8401,-242 134.8401,-258 214.8401,-258 214.8401,-242 134.8401,-242"/>
<text text-anchor="start" x="165.1209" y="-247" font-family="Times,serif" font-size="10.00" fill="#000000">Page</text>
<polygon fill="none" stroke="#000000" points="134.8401,-216 134.8401,-242 214.8401,-242 214.8401,-216 134.8401,-216"/>
<text text-anchor="start" x="137.8401" y="-231" font-family="Times,serif" font-size="10.00" fill="#000000">id :String</text>
<text text-anchor="start" x="137.8401" y="-221" font-family="Times,serif" font-size="10.00" fill="#000000">description :String</text>
</g>
<!-- Content&#45;&gt;Page -->
<g id="edge5" class="edge">
<title>Content&#45;&gt;Page</title>
<path fill="none" stroke="#000000" d="M174.8401,-176.049C174.8401,-187.6455 174.8401,-200.7615 174.8401,-211.8477"/>
<text text-anchor="middle" x="156.3733" y="-178.049" font-family="Times,serif" font-size="10.00" fill="#000000">content *</text>
</g>
<!-- Element -->
<g id="node5" class="node">
<title>Element</title>
<polygon fill="none" stroke="#000000" points="144.8401,-50 144.8401,-66 204.8401,-66 204.8401,-50 144.8401,-50"/>
<text text-anchor="start" x="158.18" y="-55" font-family="Times,serif" font-size="10.00" fill="#000000">Element</text>
<polygon fill="none" stroke="#000000" points="144.8401,-14 144.8401,-50 204.8401,-50 204.8401,-14 144.8401,-14"/>
<text text-anchor="start" x="147.8401" y="-39" font-family="Times,serif" font-size="10.00" fill="#000000">id :String</text>
<text text-anchor="start" x="147.8401" y="-29" font-family="Times,serif" font-size="10.00" fill="#000000">text :String</text>
<text text-anchor="start" x="147.8401" y="-19" font-family="Times,serif" font-size="10.00" fill="#000000">action :String</text>
</g>
<!-- Element&#45;&gt;Content -->
<g id="edge4" class="edge">
<title>Element&#45;&gt;Content</title>
<path fill="none" stroke="#000000" d="M174.8401,-70.0918C174.8401,-84.4144 174.8401,-101.5007 174.8401,-115.8329"/>
<text text-anchor="middle" x="153.3191" y="-72.0918" font-family="Times,serif" font-size="10.00" fill="#000000">elements *</text>
</g>
<!-- StockApp -->
<g id="node6" class="node">
<title>StockApp</title>
<polygon fill="none" stroke="#000000" points="238.8401,-60 238.8401,-76 318.8401,-76 318.8401,-60 238.8401,-60"/>
<text text-anchor="start" x="258.8401" y="-65" font-family="Times,serif" font-size="10.00" fill="#000000">StockApp</text>
<polygon fill="none" stroke="#000000" points="238.8401,-4 238.8401,-60 318.8401,-60 318.8401,-4 238.8401,-4"/>
<text text-anchor="start" x="241.8401" y="-49" font-family="Times,serif" font-size="10.00" fill="#000000">id :String</text>
<text text-anchor="start" x="241.8401" y="-39" font-family="Times,serif" font-size="10.00" fill="#000000">description :String</text>
<text text-anchor="start" x="241.8401" y="-29" font-family="Times,serif" font-size="10.00" fill="#000000">user :String</text>
<text text-anchor="start" x="241.8401" y="-19" font-family="Times,serif" font-size="10.00" fill="#000000">content :Page</text>
<text text-anchor="start" x="241.8401" y="-9" font-family="Times,serif" font-size="10.00" fill="#000000">storage :Storage</text>
</g>
<!-- Person -->
<g id="node8" class="node">
<title>Person</title>
<polygon fill="none" stroke="#000000" points="352.8401,-40 352.8401,-56 400.8401,-56 400.8401,-40 352.8401,-40"/>
<text text-anchor="start" x="363.2293" y="-45" font-family="Times,serif" font-size="10.00" fill="#000000">Person</text>
<polygon fill="none" stroke="#000000" points="352.8401,-24 352.8401,-40 400.8401,-40 400.8401,-24 352.8401,-24"/>
<text text-anchor="start" x="355.8401" y="-29" font-family="Times,serif" font-size="10.00" fill="#000000">job :String</text>
</g>
</g>
</svg>
