<svg width="334px" height="270px"
 viewBox="0.00 0.00 334.10 270.00" xmlns="http://www.w3.org/2000/svg" xmlns:xlink="http://www.w3.org/1999/xlink">
<g id="graph0" class="graph" transform=" rotate(0) translate(4 266)">
<title>H</title>
<polygon fill="#ffffff" stroke="transparent" points="-4,4 -4,-266 330.1034,-266 330.1034,4 -4,4"/>
<!-- Storage -->
<g id="node1" class="node">
<title>Storage</title>
<polygon fill="none" stroke="#000000" points="16.1034,-237 16.1034,-253 73.1034,-253 73.1034,-237 16.1034,-237"/>
<text text-anchor="start" x="29.3299" y="-242" font-family="Times,serif" font-size="10.00" fill="#000000">Storage</text>
<polygon fill="none" stroke="#000000" points="16.1034,-221 16.1034,-237 73.1034,-237 73.1034,-221 16.1034,-221"/>
<text text-anchor="start" x="19.1034" y="-226" font-family="Times,serif" font-size="10.00" fill="#000000">name :String</text>
</g>
<!-- Board -->
<g id="node2" class="node">
<title>Board</title>
<polygon fill="none" stroke="#000000" points="54.1034,-146 54.1034,-162 97.1034,-162 97.1034,-146 54.1034,-146"/>
<text text-anchor="start" x="63.3841" y="-151" font-family="Times,serif" font-size="10.00" fill="#000000">Board</text>
<polygon fill="none" stroke="#000000" points="54.1034,-130 54.1034,-146 97.1034,-146 97.1034,-130 54.1034,-130"/>
<text text-anchor="start" x="57.1034" y="-135" font-family="Times,serif" font-size="10.00" fill="#000000">id :String</text>
</g>
<!-- Board&#45;&gt;Storage -->
<g id="edge1" class="edge">
<title>Board&#45;&gt;Storage</title>
<path fill="none" stroke="#000000" d="M68.2235,-166.1958C63.0862,-181.2761 56.0966,-201.7939 50.964,-216.8606"/>
<text text-anchor="middle" x="60.6833" y="-208.8606" font-family="Times,serif" font-size="10.00" fill="#000000">store</text>
<text text-anchor="middle" x="51.1434" y="-168.1958" font-family="Times,serif" font-size="10.00" fill="#000000">boards *</text>
</g>
<!-- Product -->
<g id="node3" class="node">
<title>Product</title>
<polygon fill="none" stroke="#000000" points="18.1034,-45 18.1034,-61 75.1034,-61 75.1034,-45 18.1034,-45"/>
<text text-anchor="start" x="31.0492" y="-50" font-family="Times,serif" font-size="10.00" fill="#000000">Product</text>
<polygon fill="none" stroke="#000000" points="18.1034,-19 18.1034,-45 75.1034,-45 75.1034,-19 18.1034,-19"/>
<text text-anchor="start" x="21.1034" y="-34" font-family="Times,serif" font-size="10.00" fill="#000000">name :String</text>
<text text-anchor="start" x="21.1034" y="-24" font-family="Times,serif" font-size="10.00" fill="#000000">items :int</text>
</g>
<!-- Product&#45;&gt;Storage -->
<g id="edge2" class="edge">
<title>Product&#45;&gt;Storage</title>
<path fill="none" stroke="#000000" d="M41.9385,-65.2515C39.7168,-80.002 37.2168,-99.002 36.1034,-116 34.3602,-142.6096 34.3659,-149.39 36.1034,-176 36.9941,-189.6426 38.9941,-204.8926 40.7714,-216.7319"/>
<text text-anchor="middle" x="31.0522" y="-208.7319" font-family="Times,serif" font-size="10.00" fill="#000000">store</text>
<text text-anchor="middle" x="20.9692" y="-67.2515" font-family="Times,serif" font-size="10.00" fill="#000000">products *</text>
</g>
<!-- Product&#45;&gt;Board -->
<g id="edge3" class="edge">
<title>Product&#45;&gt;Board</title>
<path fill="none" stroke="#000000" d="M52.976,-65.1205C58.0343,-83.6095 64.8238,-108.4265 69.5424,-125.6738"/>
<text text-anchor="middle" x="58.1582" y="-117.6738" font-family="Times,serif" font-size="10.00" fill="#000000">board</text>
<text text-anchor="middle" x="73.9452" y="-67.1205" font-family="Times,serif" font-size="10.00" fill="#000000">products *</text>
</g>
<!-- Content -->
<g id="node4" class="node">
<title>Content</title>
<polygon fill="none" stroke="#000000" points="134.1034,-156 134.1034,-172 214.1034,-172 214.1034,-156 134.1034,-156"/>
<text text-anchor="start" x="158.2708" y="-161" font-family="Times,serif" font-size="10.00" fill="#000000">Content</text>
<polygon fill="none" stroke="#000000" points="134.1034,-120 134.1034,-156 214.1034,-156 214.1034,-120 134.1034,-120"/>
<text text-anchor="start" x="137.1034" y="-145" font-family="Times,serif" font-size="10.00" fill="#000000">id :String</text>
<text text-anchor="start" x="137.1034" y="-135" font-family="Times,serif" font-size="10.00" fill="#000000">description :String</text>
<text text-anchor="start" x="137.1034" y="-125" font-family="Times,serif" font-size="10.00" fill="#000000">action :String</text>
</g>
<!-- Page -->
<g id="node7" class="node">
<title>Page</title>
<polygon fill="none" stroke="#000000" points="134.1034,-242 134.1034,-258 214.1034,-258 214.1034,-242 134.1034,-242"/>
<text text-anchor="start" x="164.3841" y="-247" font-family="Times,serif" font-size="10.00" fill="#000000">Page</text>
<polygon fill="none" stroke="#000000" points="134.1034,-216 134.1034,-242 214.1034,-242 214.1034,-216 134.1034,-216"/>
<text text-anchor="start" x="137.1034" y="-231" font-family="Times,serif" font-size="10.00" fill="#000000">id :String</text>
<text text-anchor="start" x="137.1034" y="-221" font-family="Times,serif" font-size="10.00" fill="#000000">description :String</text>
</g>
<!-- Content&#45;&gt;Page -->
<g id="edge5" class="edge">
<title>Content&#45;&gt;Page</title>
<path fill="none" stroke="#000000" d="M174.1034,-176.049C174.1034,-187.6455 174.1034,-200.7615 174.1034,-211.8477"/>
<text text-anchor="middle" x="155.6366" y="-178.049" font-family="Times,serif" font-size="10.00" fill="#000000">content *</text>
</g>
<!-- Element -->
<g id="node5" class="node">
<title>Element</title>
<polygon fill="none" stroke="#000000" points="144.1034,-50 144.1034,-66 204.1034,-66 204.1034,-50 144.1034,-50"/>
<text text-anchor="start" x="157.4432" y="-55" font-family="Times,serif" font-size="10.00" fill="#000000">Element</text>
<polygon fill="none" stroke="#000000" points="144.1034,-14 144.1034,-50 204.1034,-50 204.1034,-14 144.1034,-14"/>
<text text-anchor="start" x="147.1034" y="-39" font-family="Times,serif" font-size="10.00" fill="#000000">id :String</text>
<text text-anchor="start" x="147.1034" y="-29" font-family="Times,serif" font-size="10.00" fill="#000000">text :String</text>
<text text-anchor="start" x="147.1034" y="-19" font-family="Times,serif" font-size="10.00" fill="#000000">action :String</text>
</g>
<!-- Element&#45;&gt;Content -->
<g id="edge4" class="edge">
<title>Element&#45;&gt;Content</title>
<path fill="none" stroke="#000000" d="M174.1034,-70.0918C174.1034,-84.4144 174.1034,-101.5007 174.1034,-115.8329"/>
<text text-anchor="middle" x="152.5824" y="-72.0918" font-family="Times,serif" font-size="10.00" fill="#000000">elements *</text>
</g>
<!-- StockApp -->
<g id="node6" class="node">
<title>StockApp</title>
<polygon fill="none" stroke="#000000" points="238.1034,-60 238.1034,-76 318.1034,-76 318.1034,-60 238.1034,-60"/>
<text text-anchor="start" x="258.1034" y="-65" font-family="Times,serif" font-size="10.00" fill="#000000">StockApp</text>
<polygon fill="none" stroke="#000000" points="238.1034,-4 238.1034,-60 318.1034,-60 318.1034,-4 238.1034,-4"/>
<text text-anchor="start" x="241.1034" y="-49" font-family="Times,serif" font-size="10.00" fill="#000000">id :String</text>
<text text-anchor="start" x="241.1034" y="-39" font-family="Times,serif" font-size="10.00" fill="#000000">description :String</text>
<text text-anchor="start" x="241.1034" y="-29" font-family="Times,serif" font-size="10.00" fill="#000000">user :String</text>
<text text-anchor="start" x="241.1034" y="-19" font-family="Times,serif" font-size="10.00" fill="#000000">content :Page</text>
<text text-anchor="start" x="241.1034" y="-9" font-family="Times,serif" font-size="10.00" fill="#000000">storage :Storage</text>
</g>
</g>
</svg>
