<svg width="488px" height="452px"
 viewBox="0.00 0.00 487.50 452.00" xmlns="http://www.w3.org/2000/svg" xmlns:xlink="http://www.w3.org/1999/xlink">
<g id="graph0" class="graph" transform=" rotate(0) translate(4 448)">
<title>H</title>
<polygon fill="#ffffff" stroke="transparent" points="-4,4 -4,-448 483.5,-448 483.5,4 -4,4"/>
<!-- Palette -->
<g id="node1" class="node">
<title>Palette</title>
<polygon fill="none" stroke="#000000" points="73.5,-338 73.5,-354 130.5,-354 130.5,-338 73.5,-338"/>
<text text-anchor="start" x="88.394" y="-343" font-family="Times,serif" font-size="10.00" fill="#000000">Palette</text>
<polygon fill="none" stroke="#000000" points="73.5,-302 73.5,-338 130.5,-338 130.5,-302 73.5,-302"/>
<text text-anchor="start" x="76.5" y="-327" font-family="Times,serif" font-size="10.00" fill="#000000">id :String</text>
<text text-anchor="start" x="76.5" y="-317" font-family="Times,serif" font-size="10.00" fill="#000000">quantity :int</text>
<text text-anchor="start" x="76.5" y="-307" font-family="Times,serif" font-size="10.00" fill="#000000">items :String</text>
</g>
<!-- Arrival -->
<g id="node10" class="node">
<title>Arrival</title>
<polygon fill="none" stroke="#000000" points="60.5,-424 60.5,-440 142.5,-440 142.5,-424 60.5,-424"/>
<text text-anchor="start" x="87.0615" y="-429" font-family="Times,serif" font-size="10.00" fill="#000000">Arrival</text>
<polygon fill="none" stroke="#000000" points="60.5,-398 60.5,-424 142.5,-424 142.5,-398 60.5,-398"/>
<text text-anchor="start" x="63.5" y="-413" font-family="Times,serif" font-size="10.00" fill="#000000">id :String</text>
<text text-anchor="start" x="63.5" y="-403" font-family="Times,serif" font-size="10.00" fill="#000000">producer :Producer</text>
</g>
<!-- Palette&#45;&gt;Arrival -->
<g id="edge10" class="edge">
<title>Palette&#45;&gt;Arrival</title>
<path fill="none" stroke="#000000" d="M101.5,-358.049C101.5,-369.6455 101.5,-382.7615 101.5,-393.8477"/>
<text text-anchor="middle" x="82.479" y="-360.049" font-family="Times,serif" font-size="10.00" fill="#000000">palettes *</text>
</g>
<!-- Product -->
<g id="node2" class="node">
<title>Product</title>
<polygon fill="none" stroke="#000000" points="138.5,-237 138.5,-253 195.5,-253 195.5,-237 138.5,-237"/>
<text text-anchor="start" x="151.4458" y="-242" font-family="Times,serif" font-size="10.00" fill="#000000">Product</text>
<polygon fill="none" stroke="#000000" points="138.5,-221 138.5,-237 195.5,-237 195.5,-221 138.5,-221"/>
<text text-anchor="start" x="141.5" y="-226" font-family="Times,serif" font-size="10.00" fill="#000000">name :String</text>
</g>
<!-- Product&#45;&gt;Palette -->
<g id="edge1" class="edge">
<title>Product&#45;&gt;Palette</title>
<path fill="none" stroke="#000000" d="M152.0744,-257.1958C143.5469,-269.1344 132.5851,-284.4809 123.0481,-297.8326"/>
<text text-anchor="middle" x="142.0691" y="-289.8326" font-family="Times,serif" font-size="10.00" fill="#000000">palettes *</text>
<text text-anchor="middle" x="136.801" y="-259.1958" font-family="Times,serif" font-size="10.00" fill="#000000">product</text>
</g>
<!-- Place -->
<g id="node3" class="node">
<title>Place</title>
<polygon fill="none" stroke="#000000" points="8.5,-237 8.5,-253 65.5,-253 65.5,-237 8.5,-237"/>
<text text-anchor="start" x="26.1724" y="-242" font-family="Times,serif" font-size="10.00" fill="#000000">Place</text>
<polygon fill="none" stroke="#000000" points="8.5,-221 8.5,-237 65.5,-237 65.5,-221 8.5,-221"/>
<text text-anchor="start" x="11.5" y="-226" font-family="Times,serif" font-size="10.00" fill="#000000">name :String</text>
</g>
<!-- Place&#45;&gt;Palette -->
<g id="edge2" class="edge">
<title>Place&#45;&gt;Palette</title>
<path fill="none" stroke="#000000" d="M50.9256,-257.1958C59.4531,-269.1344 70.4149,-284.4809 79.9519,-297.8326"/>
<text text-anchor="middle" x="66.6267" y="-289.8326" font-family="Times,serif" font-size="10.00" fill="#000000">palette</text>
<text text-anchor="middle" x="40.3787" y="-259.1958" font-family="Times,serif" font-size="10.00" fill="#000000">place</text>
</g>
<!-- Warehouse -->
<g id="node4" class="node">
<title>Warehouse</title>
<polygon fill="none" stroke="#000000" points="76.5,-136 76.5,-152 126.5,-152 126.5,-136 76.5,-136"/>
<text text-anchor="start" x="79.4102" y="-141" font-family="Times,serif" font-size="10.00" fill="#000000">Warehouse</text>
<polygon fill="none" stroke="#000000" points="76.5,-130 76.5,-136 126.5,-136 126.5,-130 76.5,-130"/>
</g>
<!-- Warehouse&#45;&gt;Palette -->
<g id="edge3" class="edge">
<title>Warehouse&#45;&gt;Palette</title>
<path fill="none" stroke="#000000" d="M101.5,-159.2708C101.5,-191.4367 101.5,-258.473 101.5,-297.6742"/>
<text text-anchor="middle" x="82.1982" y="-289.6742" font-family="Times,serif" font-size="10.00" fill="#000000">atRamp *</text>
<text text-anchor="middle" x="91.2266" y="-161.2708" font-family="Times,serif" font-size="10.00" fill="#000000">ramp</text>
</g>
<!-- Warehouse&#45;&gt;Product -->
<g id="edge4" class="edge">
<title>Warehouse&#45;&gt;Product</title>
<path fill="none" stroke="#000000" d="M113.726,-159.0569C124.8321,-175.4597 141.1974,-199.63 152.7537,-216.6977"/>
<text text-anchor="middle" x="131.7844" y="-208.6977" font-family="Times,serif" font-size="10.00" fill="#000000">products *</text>
<text text-anchor="middle" x="135.1054" y="-161.0569" font-family="Times,serif" font-size="10.00" fill="#000000">warehouse</text>
</g>
<!-- Area -->
<g id="node5" class="node">
<title>Area</title>
<polygon fill="none" stroke="#000000" points="43.5,-35 43.5,-51 100.5,-51 100.5,-35 43.5,-35"/>
<text text-anchor="start" x="62.2856" y="-40" font-family="Times,serif" font-size="10.00" fill="#000000">Area</text>
<polygon fill="none" stroke="#000000" points="43.5,-19 43.5,-35 100.5,-35 100.5,-19 43.5,-19"/>
<text text-anchor="start" x="46.5" y="-24" font-family="Times,serif" font-size="10.00" fill="#000000">name :String</text>
</g>
<!-- Area&#45;&gt;Place -->
<g id="edge5" class="edge">
<title>Area&#45;&gt;Place</title>
<path fill="none" stroke="#000000" d="M68.0161,-55.107C61.3073,-93.8263 46.6675,-178.3192 39.9698,-216.9743"/>
<text text-anchor="middle" x="23.7271" y="-208.9743" font-family="Times,serif" font-size="10.00" fill="#000000">places *</text>
<text text-anchor="middle" x="59.6934" y="-57.107" font-family="Times,serif" font-size="10.00" fill="#000000">area</text>
</g>
<!-- Area&#45;&gt;Warehouse -->
<g id="edge6" class="edge">
<title>Area&#45;&gt;Warehouse</title>
<path fill="none" stroke="#000000" d="M77.2843,-55.4379C82.8009,-74.93 91.0328,-104.0159 96.3343,-122.7478"/>
<text text-anchor="middle" x="74.9549" y="-114.7478" font-family="Times,serif" font-size="10.00" fill="#000000">warehouse</text>
<text text-anchor="middle" x="91.3029" y="-57.4379" font-family="Times,serif" font-size="10.00" fill="#000000">areas *</text>
</g>
<!-- Producer -->
<g id="node6" class="node">
<title>Producer</title>
<polygon fill="none" stroke="#000000" points="191.5,-35 191.5,-51 248.5,-51 248.5,-35 191.5,-35"/>
<text text-anchor="start" x="201.9507" y="-40" font-family="Times,serif" font-size="10.00" fill="#000000">Producer</text>
<polygon fill="none" stroke="#000000" points="191.5,-19 191.5,-35 248.5,-35 248.5,-19 191.5,-19"/>
<text text-anchor="start" x="194.5" y="-24" font-family="Times,serif" font-size="10.00" fill="#000000">name :String</text>
</g>
<!-- Content -->
<g id="node7" class="node">
<title>Content</title>
<polygon fill="none" stroke="#000000" points="287.5,-156 287.5,-172 367.5,-172 367.5,-156 287.5,-156"/>
<text text-anchor="start" x="311.6675" y="-161" font-family="Times,serif" font-size="10.00" fill="#000000">Content</text>
<polygon fill="none" stroke="#000000" points="287.5,-110 287.5,-156 367.5,-156 367.5,-110 287.5,-110"/>
<text text-anchor="start" x="290.5" y="-145" font-family="Times,serif" font-size="10.00" fill="#000000">id :String</text>
<text text-anchor="start" x="290.5" y="-135" font-family="Times,serif" font-size="10.00" fill="#000000">description :String</text>
<text text-anchor="start" x="290.5" y="-125" font-family="Times,serif" font-size="10.00" fill="#000000">action :String</text>
<text text-anchor="start" x="290.5" y="-115" font-family="Times,serif" font-size="10.00" fill="#000000">value :String</text>
</g>
<!-- Page -->
<g id="node9" class="node">
<title>Page</title>
<polygon fill="none" stroke="#000000" points="258.5,-242 258.5,-258 338.5,-258 338.5,-242 258.5,-242"/>
<text text-anchor="start" x="288.7808" y="-247" font-family="Times,serif" font-size="10.00" fill="#000000">Page</text>
<polygon fill="none" stroke="#000000" points="258.5,-216 258.5,-242 338.5,-242 338.5,-216 258.5,-216"/>
<text text-anchor="start" x="261.5" y="-231" font-family="Times,serif" font-size="10.00" fill="#000000">id :String</text>
<text text-anchor="start" x="261.5" y="-221" font-family="Times,serif" font-size="10.00" fill="#000000">description :String</text>
</g>
<!-- Content&#45;&gt;Page -->
<g id="edge9" class="edge">
<title>Content&#45;&gt;Page</title>
<path fill="none" stroke="#000000" d="M316.8661,-176.2017C313.3098,-187.9745 309.4187,-200.8553 306.1372,-211.7183"/>
<text text-anchor="middle" x="298.3993" y="-178.2017" font-family="Times,serif" font-size="10.00" fill="#000000">content *</text>
</g>
<!-- Element -->
<g id="node8" class="node">
<title>Element</title>
<polygon fill="none" stroke="#000000" points="297.5,-50 297.5,-66 357.5,-66 357.5,-50 297.5,-50"/>
<text text-anchor="start" x="310.8398" y="-55" font-family="Times,serif" font-size="10.00" fill="#000000">Element</text>
<polygon fill="none" stroke="#000000" points="297.5,-4 297.5,-50 357.5,-50 357.5,-4 297.5,-4"/>
<text text-anchor="start" x="300.5" y="-39" font-family="Times,serif" font-size="10.00" fill="#000000">id :String</text>
<text text-anchor="start" x="300.5" y="-29" font-family="Times,serif" font-size="10.00" fill="#000000">text :String</text>
<text text-anchor="start" x="300.5" y="-19" font-family="Times,serif" font-size="10.00" fill="#000000">value :String</text>
<text text-anchor="start" x="300.5" y="-9" font-family="Times,serif" font-size="10.00" fill="#000000">action :String</text>
</g>
<!-- Element&#45;&gt;Content -->
<g id="edge7" class="edge">
<title>Element&#45;&gt;Content</title>
<path fill="none" stroke="#000000" d="M327.5,-70.0021C327.5,-81.4598 327.5,-94.1909 327.5,-105.6725"/>
<text text-anchor="middle" x="305.979" y="-72.0021" font-family="Times,serif" font-size="10.00" fill="#000000">elements *</text>
</g>
<!-- WebApp -->
<g id="node11" class="node">
<title>WebApp</title>
<polygon fill="none" stroke="#000000" points="391.5,-45 391.5,-61 471.5,-61 471.5,-45 391.5,-45"/>
<text text-anchor="start" x="413.8486" y="-50" font-family="Times,serif" font-size="10.00" fill="#000000">WebApp</text>
<polygon fill="none" stroke="#000000" points="391.5,-9 391.5,-45 471.5,-45 471.5,-9 391.5,-9"/>
<text text-anchor="start" x="394.5" y="-34" font-family="Times,serif" font-size="10.00" fill="#000000">id :String</text>
<text text-anchor="start" x="394.5" y="-24" font-family="Times,serif" font-size="10.00" fill="#000000">description :String</text>
<text text-anchor="start" x="394.5" y="-14" font-family="Times,serif" font-size="10.00" fill="#000000">content :Page</text>
</g>
<!-- Object -->
<g id="node12" class="node">
<title>Object</title>
<ellipse fill="none" stroke="#000000" cx="227.5" cy="-141" rx="33.8596" ry="18"/>
<text text-anchor="middle" x="227.5" y="-136.8" font-family="Times,serif" font-size="14.00" fill="#000000">Object</text>
</g>
<!-- Object&#45;&gt;Page -->
<g id="edge8" class="edge">
<title>Object&#45;&gt;Page</title>
<path fill="none" stroke="#000000" d="M240.1934,-158.1629C251.2022,-173.048 267.2853,-194.7943 279.773,-211.679"/>
<text text-anchor="middle" x="224.7808" y="-160.1629" font-family="Times,serif" font-size="10.00" fill="#000000">tables *</text>
</g>
</g>
</svg>
