<svg width="488px" height="472px"
 viewBox="0.00 0.00 488.00 472.00" xmlns="http://www.w3.org/2000/svg" xmlns:xlink="http://www.w3.org/1999/xlink">
<g id="graph0" class="graph" transform="scale(0.7500187504687618 0.7500187504687618) rotate(0) translate(4 468)">
<title>H</title>
<polygon fill="white" stroke="none" points="-4,4 -4,-468 484,-468 484,4 -4,4"/>
<!-- Palette -->
<g id="node1" class="node"><title>Palette</title>
<polygon fill="none" stroke="black" points="72,-354 72,-371 128,-371 128,-354 72,-354"/>
<text text-anchor="start" x="86" y="-360" font-family="Times New Roman,serif" font-size="10.00">Palette</text>
<polygon fill="none" stroke="black" points="72,-315 72,-354 128,-354 128,-315 72,-315"/>
<text text-anchor="start" x="75" y="-343" font-family="Times New Roman,serif" font-size="10.00">id :String</text>
<text text-anchor="start" x="75" y="-332" font-family="Times New Roman,serif" font-size="10.00">quantity :int</text>
<text text-anchor="start" x="75" y="-321" font-family="Times New Roman,serif" font-size="10.00">items :String</text>
</g>
<!-- Arrival -->
<g id="node10" class="node"><title>Arrival</title>
<polygon fill="none" stroke="black" points="59,-442.5 59,-459.5 142,-459.5 142,-442.5 59,-442.5"/>
<text text-anchor="start" x="86.5" y="-448.5" font-family="Times New Roman,serif" font-size="10.00">Arrival</text>
<polygon fill="none" stroke="black" points="59,-414.5 59,-442.5 142,-442.5 142,-414.5 59,-414.5"/>
<text text-anchor="start" x="62" y="-431.5" font-family="Times New Roman,serif" font-size="10.00">id :String</text>
<text text-anchor="start" x="62" y="-420.5" font-family="Times New Roman,serif" font-size="10.00">producer :Producer</text>
</g>
<!-- Palette&#45;&gt;Arrival -->
<g id="edge10" class="edge"><title>Palette&#45;&gt;Arrival</title>
<path fill="none" stroke="black" d="M100,-375.058C100,-386.71 100,-399.809 100,-410.909"/>
<text text-anchor="middle" x="80" y="-378.058" font-family="Times New Roman,serif" font-size="10.00">palettes *</text>
</g>
<!-- Product -->
<g id="node2" class="node"><title>Product</title>
<polygon fill="none" stroke="black" points="136,-248.5 136,-265.5 192,-265.5 192,-248.5 136,-248.5"/>
<text text-anchor="start" x="148" y="-254.5" font-family="Times New Roman,serif" font-size="10.00">Product</text>
<polygon fill="none" stroke="black" points="136,-231.5 136,-248.5 192,-248.5 192,-231.5 136,-231.5"/>
<text text-anchor="start" x="139" y="-237.5" font-family="Times New Roman,serif" font-size="10.00">name :String</text>
</g>
<!-- Product&#45;&gt;Palette -->
<g id="edge1" class="edge"><title>Product&#45;&gt;Palette</title>
<path fill="none" stroke="black" d="M150.113,-269.571C141.804,-281.58 131.067,-297.099 121.663,-310.69"/>
<text text-anchor="middle" x="101.663" y="-302.69" font-family="Times New Roman,serif" font-size="10.00">palettes *</text>
<text text-anchor="middle" x="134.113" y="-272.571" font-family="Times New Roman,serif" font-size="10.00">product</text>
</g>
<!-- Place -->
<g id="node3" class="node"><title>Place</title>
<polygon fill="none" stroke="black" points="8,-248.5 8,-265.5 64,-265.5 64,-248.5 8,-248.5"/>
<text text-anchor="start" x="25" y="-254.5" font-family="Times New Roman,serif" font-size="10.00">Place</text>
<polygon fill="none" stroke="black" points="8,-231.5 8,-248.5 64,-248.5 64,-231.5 8,-231.5"/>
<text text-anchor="start" x="11" y="-237.5" font-family="Times New Roman,serif" font-size="10.00">name :String</text>
</g>
<!-- Place&#45;&gt;Palette -->
<g id="edge2" class="edge"><title>Place&#45;&gt;Palette</title>
<path fill="none" stroke="black" d="M49.887,-269.571C58.1956,-281.58 68.9332,-297.099 78.3367,-310.69"/>
<text text-anchor="middle" x="64.3367" y="-302.69" font-family="Times New Roman,serif" font-size="10.00">palette</text>
<text text-anchor="middle" x="38.887" y="-272.571" font-family="Times New Roman,serif" font-size="10.00">place</text>
</g>
<!-- Warehouse -->
<g id="node4" class="node"><title>Warehouse</title>
<polygon fill="none" stroke="black" points="74,-142.5 74,-159.5 127,-159.5 127,-142.5 74,-142.5"/>
<text text-anchor="start" x="77" y="-148.5" font-family="Times New Roman,serif" font-size="10.00">Warehouse</text>
<polygon fill="none" stroke="black" points="74,-136.5 74,-142.5 127,-142.5 127,-136.5 74,-136.5"/>
</g>
<!-- Warehouse&#45;&gt;Palette -->
<g id="edge3" class="edge"><title>Warehouse&#45;&gt;Palette</title>
<path fill="none" stroke="black" d="M100,-166.583C100,-198.973 100,-269.738 100,-310.804"/>
<text text-anchor="middle" x="119" y="-302.804" font-family="Times New Roman,serif" font-size="10.00">atRamp *</text>
<text text-anchor="middle" x="90" y="-169.583" font-family="Times New Roman,serif" font-size="10.00">ramp</text>
</g>
<!-- Warehouse&#45;&gt;Product -->
<g id="edge4" class="edge"><title>Warehouse&#45;&gt;Product</title>
<path fill="none" stroke="black" d="M111.148,-166.57C122.178,-183.461 139.064,-209.317 150.768,-227.239"/>
<text text-anchor="middle" x="128.768" y="-219.239" font-family="Times New Roman,serif" font-size="10.00">products *</text>
<text text-anchor="middle" x="133.148" y="-169.57" font-family="Times New Roman,serif" font-size="10.00">warehouse</text>
</g>
<!-- Area -->
<g id="node5" class="node"><title>Area</title>
<polygon fill="none" stroke="black" points="26,-37.5 26,-54.5 82,-54.5 82,-37.5 26,-37.5"/>
<text text-anchor="start" x="44" y="-43.5" font-family="Times New Roman,serif" font-size="10.00">Area</text>
<polygon fill="none" stroke="black" points="26,-20.5 26,-37.5 82,-37.5 82,-20.5 26,-20.5"/>
<text text-anchor="start" x="29" y="-26.5" font-family="Times New Roman,serif" font-size="10.00">name :String</text>
</g>
<!-- Area&#45;&gt;Place -->
<g id="edge5" class="edge"><title>Area&#45;&gt;Place</title>
<path fill="none" stroke="black" d="M52.2741,-58.5398C48.8423,-98.3861 41.1962,-187.167 37.7471,-227.214"/>
<text text-anchor="middle" x="20.7471" y="-219.214" font-family="Times New Roman,serif" font-size="10.00">places *</text>
<text text-anchor="middle" x="43.7741" y="-61.5398" font-family="Times New Roman,serif" font-size="10.00">area</text>
</g>
<!-- Area&#45;&gt;Warehouse -->
<g id="edge6" class="edge"><title>Area&#45;&gt;Warehouse</title>
<path fill="none" stroke="black" d="M62.5444,-58.7466C71.2225,-79.3098 84.5177,-110.814 92.7131,-130.233"/>
<text text-anchor="middle" x="70.7131" y="-122.233" font-family="Times New Roman,serif" font-size="10.00">warehouse</text>
<text text-anchor="middle" x="77.0444" y="-61.7466" font-family="Times New Roman,serif" font-size="10.00">areas *</text>
</g>
<!-- Producer -->
<g id="node6" class="node"><title>Producer</title>
<polygon fill="none" stroke="black" points="151,-37.5 151,-54.5 207,-54.5 207,-37.5 151,-37.5"/>
<text text-anchor="start" x="160.5" y="-43.5" font-family="Times New Roman,serif" font-size="10.00">Producer</text>
<polygon fill="none" stroke="black" points="151,-20.5 151,-37.5 207,-37.5 207,-20.5 151,-20.5"/>
<text text-anchor="start" x="154" y="-26.5" font-family="Times New Roman,serif" font-size="10.00">name :String</text>
</g>
<!-- Content -->
<g id="node7" class="node"><title>Content</title>
<polygon fill="none" stroke="black" points="288,-164.5 288,-181.5 368,-181.5 368,-164.5 288,-164.5"/>
<text text-anchor="start" x="311.5" y="-170.5" font-family="Times New Roman,serif" font-size="10.00">Content</text>
<polygon fill="none" stroke="black" points="288,-114.5 288,-164.5 368,-164.5 368,-114.5 288,-114.5"/>
<text text-anchor="start" x="291" y="-153.5" font-family="Times New Roman,serif" font-size="10.00">id :String</text>
<text text-anchor="start" x="291" y="-142.5" font-family="Times New Roman,serif" font-size="10.00">description :String</text>
<text text-anchor="start" x="291" y="-131.5" font-family="Times New Roman,serif" font-size="10.00">action :String</text>
<text text-anchor="start" x="291" y="-120.5" font-family="Times New Roman,serif" font-size="10.00">value :String</text>
</g>
<!-- Page -->
<g id="node9" class="node"><title>Page</title>
<polygon fill="none" stroke="black" points="257,-253.5 257,-270.5 337,-270.5 337,-253.5 257,-253.5"/>
<text text-anchor="start" x="287" y="-259.5" font-family="Times New Roman,serif" font-size="10.00">Page</text>
<polygon fill="none" stroke="black" points="257,-225.5 257,-253.5 337,-253.5 337,-225.5 257,-225.5"/>
<text text-anchor="start" x="260" y="-242.5" font-family="Times New Roman,serif" font-size="10.00">id :String</text>
<text text-anchor="start" x="260" y="-231.5" font-family="Times New Roman,serif" font-size="10.00">description :String</text>
</g>
<!-- Content&#45;&gt;Page -->
<g id="edge9" class="edge"><title>Content&#45;&gt;Page</title>
<path fill="none" stroke="black" d="M316.369,-186.27C312.623,-198.11 308.556,-210.968 305.12,-221.831"/>
<text text-anchor="middle" x="296.869" y="-189.27" font-family="Times New Roman,serif" font-size="10.00">content *</text>
</g>
<!-- Element -->
<g id="node8" class="node"><title>Element</title>
<polygon fill="none" stroke="black" points="298,-53.5 298,-70.5 358,-70.5 358,-53.5 298,-53.5"/>
<text text-anchor="start" x="312" y="-59.5" font-family="Times New Roman,serif" font-size="10.00">Element</text>
<polygon fill="none" stroke="black" points="298,-3.5 298,-53.5 358,-53.5 358,-3.5 298,-3.5"/>
<text text-anchor="start" x="301" y="-42.5" font-family="Times New Roman,serif" font-size="10.00">id :String</text>
<text text-anchor="start" x="301" y="-31.5" font-family="Times New Roman,serif" font-size="10.00">text :String</text>
<text text-anchor="start" x="301" y="-20.5" font-family="Times New Roman,serif" font-size="10.00">value :String</text>
<text text-anchor="start" x="301" y="-9.5" font-family="Times New Roman,serif" font-size="10.00">action :String</text>
</g>
<!-- Element&#45;&gt;Content -->
<g id="edge7" class="edge"><title>Element&#45;&gt;Content</title>
<path fill="none" stroke="black" d="M328,-75.0986C328,-86.6022 328,-99.3027 328,-110.812"/>
<text text-anchor="middle" x="306.5" y="-78.0986" font-family="Times New Roman,serif" font-size="10.00">elements *</text>
</g>
<!-- WebApp -->
<g id="node11" class="node"><title>WebApp</title>
<polygon fill="none" stroke="black" points="392,-48.5 392,-65.5 472,-65.5 472,-48.5 392,-48.5"/>
<text text-anchor="start" x="413" y="-54.5" font-family="Times New Roman,serif" font-size="10.00">WebApp</text>
<polygon fill="none" stroke="black" points="392,-9.5 392,-48.5 472,-48.5 472,-9.5 392,-9.5"/>
<text text-anchor="start" x="395" y="-37.5" font-family="Times New Roman,serif" font-size="10.00">id :String</text>
<text text-anchor="start" x="395" y="-26.5" font-family="Times New Roman,serif" font-size="10.00">description :String</text>
<text text-anchor="start" x="395" y="-15.5" font-family="Times New Roman,serif" font-size="10.00">content :Page</text>
</g>
<!-- Object -->
<g id="node12" class="node"><title>Object</title>
<ellipse fill="none" stroke="black" cx="227" cy="-148.5" rx="35.194" ry="18"/>
<text text-anchor="middle" x="227" y="-144.8" font-family="Times New Roman,serif" font-size="14.00">Object</text>
</g>
<!-- Object&#45;&gt;Page -->
<g id="edge8" class="edge"><title>Object&#45;&gt;Page</title>
<path fill="none" stroke="black" d="M238.559,-165.683C249.432,-180.905 265.891,-203.947 278.574,-221.704"/>
<text text-anchor="middle" x="254.559" y="-168.683" font-family="Times New Roman,serif" font-size="10.00">tables *</text>
</g>
</g>
</svg>
